<svg width="25" height="25" viewBox="0 0 25 25" fill="none" xmlns="http://www.w3.org/2000/svg">
<path d="M6.78637 9.27968C6.53516 8.60327 5.49548 8.61532 5.25993 9.29711L3.29793 14.4485C2.97445 15.3096 4.28137 15.8066 4.61207 14.949L4.92824 14.1189L7.1099 14.1189L7.42241 14.947C7.7557 15.809 9.05816 15.3089 8.7381 14.4505L6.79396 9.29885C6.79156 9.29241 6.78903 9.28601 6.78637 9.27968ZM5.46384 12.7127L6.02409 11.2417L6.57923 12.7127L5.46384 12.7127ZM20.08 10.2008C20.4683 10.2008 20.7831 9.88596 20.7831 9.49764C20.7831 9.10933 20.4683 8.79452 20.08 8.79452L17.8985 8.79452C17.5102 8.79452 17.1954 9.10933 17.1954 9.49764L17.1954 14.6749C17.1954 15.0633 17.5102 15.3781 17.8985 15.3781L20.08 15.3781C20.4683 15.3781 20.7831 15.0633 20.7831 14.6749C20.7831 14.2866 20.4683 13.9718 20.08 13.9718L18.6016 13.9718L18.6016 12.7894L19.9191 12.7894C20.3075 12.7894 20.6223 12.4746 20.6223 12.0863C20.6223 11.698 20.3075 11.3831 19.9191 11.3831L18.6016 11.3831L18.6016 10.2008L20.08 10.2008ZM12.8884 10.1606C13.2711 10.1606 13.6401 10.2732 13.9554 10.4863C14.2772 10.7036 14.7143 10.6191 14.9317 10.2973C15.1491 9.97554 15.0644 9.53847 14.7427 9.32107C14.1939 8.95033 13.5527 8.75439 12.8884 8.75439C11.0601 8.75439 9.57276 10.2418 9.57276 12.07C9.57276 13.8982 11.0601 15.3856 12.8884 15.3856C14.6302 15.3856 15.8467 14.0222 15.8467 12.07C15.8467 11.6817 15.5319 11.3669 15.1436 11.3669L13.5805 11.3669C13.1922 11.3669 12.8774 11.6817 12.8774 12.07C12.8774 12.4583 13.1922 12.7731 13.5805 12.7731L14.3504 12.7731C14.176 13.4201 13.7331 13.9794 12.8884 13.9794C11.8355 13.9794 10.979 13.1228 10.979 12.07C10.979 11.0171 11.8355 10.1606 12.8884 10.1606Z" fill="#ED2F51"/>
<path d="M23.3144 11.375C22.9261 11.375 22.6113 11.6898 22.6113 12.0781C22.6113 14.9078 21.5093 17.5681 19.5084 19.569C17.5075 21.5699 14.8472 22.6719 12.0175 22.6719C9.18786 22.6719 6.52752 21.5699 4.52661 19.569C2.5257 17.5681 1.42377 14.9078 1.42377 12.0781C1.42377 9.24842 2.5257 6.58813 4.52661 4.58722C6.52752 2.58631 9.18786 1.48437 12.0175 1.48437C13.4366 1.48437 14.8132 1.75995 16.1093 2.30352C16.8495 2.61389 17.5518 3.00767 18.2027 3.47722L17.2707 3.59464C16.3559 3.7145 16.5377 5.1027 17.4464 4.98987L19.9618 4.673C20.3361 4.64202 20.6336 4.2845 20.5943 3.91067L20.3702 1.38683C20.3359 1.00002 19.9943 0.714125 19.6076 0.748625C19.2208 0.782984 18.9351 1.12442 18.9695 1.51119L19.0439 2.35002C18.3011 1.81202 17.4988 1.36126 16.653 1.00663C15.1839 0.3905 13.6243 0.078125 12.0175 0.078125C8.8122 0.078125 5.79875 1.32636 3.53225 3.59286C1.26575 5.85936 0.0175171 8.87281 0.0175171 12.0781C0.0175171 15.2834 1.26575 18.2969 3.53225 20.5634C5.79875 22.8299 8.8122 24.0781 12.0175 24.0781C15.2228 24.0781 18.2363 22.8299 20.5028 20.5634C22.7693 18.2969 24.0175 15.2834 24.0175 12.0781C24.0175 11.6898 23.7027 11.375 23.3144 11.375Z" fill="#ED2F51"/>
</svg>
