<svg width="388" height="355" viewBox="0 0 388 355" fill="none" xmlns="http://www.w3.org/2000/svg">
<path opacity="0.1" fill-rule="evenodd" clip-rule="evenodd" d="M188.532 28.1654C222.628 32.7783 230.686 -40.3043 265.088 -39.7707C292.13 -39.3513 281.422 17.1027 305.209 29.9752C338.977 48.2488 410.092 5.87299 418.626 43.3159C428.623 87.1785 346.043 102.222 331.369 144.748C323.729 166.89 355.956 184.683 362.042 207.302C369.887 236.462 388.335 271.018 372.209 296.547C356.77 320.989 318.828 321.647 289.925 321.467C263.091 321.299 240.851 290.907 214.423 295.563C188.417 300.145 178.846 337.237 153.751 345.459C128.726 353.658 92.5317 361.194 75.5462 341.064C55.1711 316.918 86.4876 274.642 70.8353 247.196C57.8605 224.445 8.79431 236.645 1.62925 211.452C-5.53929 186.246 25.6051 165.286 41.6474 144.568C53.3836 129.412 82.7 124.948 83.4454 105.791C84.8693 69.1935 42.8317 39.447 47.1527 3.07798C50.553 -25.5412 74.9698 -66.6878 103.339 -61.6537C144.313 -54.383 147.294 22.5864 188.532 28.1654Z" stroke="white"/>
</svg>
