<svg width="56" height="56" viewBox="0 0 56 56" fill="none" xmlns="http://www.w3.org/2000/svg">
<circle cx="28" cy="28" r="28" fill="#FFF2F4"/>
<path d="M38.4538 37.3438C38.3825 37.4673 38.2799 37.5699 38.1564 37.6412C38.0328 37.7125 37.8927 37.75 37.75 37.75H18.25C18.1075 37.7499 17.9675 37.7122 17.8441 37.6409C17.7207 37.5695 17.6182 37.4669 17.547 37.3434C17.4758 37.2199 17.4383 37.0799 17.4384 36.9373C17.4384 36.7948 17.4759 36.6547 17.5472 36.5313C19.094 33.8571 21.4777 31.9396 24.2595 31.0306C22.8835 30.2115 21.8144 28.9633 21.2164 27.4778C20.6185 25.9922 20.5247 24.3515 20.9495 22.8075C21.3743 21.2635 22.2942 19.9016 23.5679 18.931C24.8416 17.9604 26.3987 17.4348 28 17.4348C29.6014 17.4348 31.1585 17.9604 32.4322 18.931C33.7059 19.9016 34.6258 21.2635 35.0506 22.8075C35.4753 24.3515 35.3816 25.9922 34.7836 27.4778C34.1856 28.9633 33.1166 30.2115 31.7406 31.0306C34.5224 31.9396 36.906 33.8571 38.4528 36.5313C38.5243 36.6547 38.562 36.7948 38.5622 36.9374C38.5624 37.08 38.525 37.2202 38.4538 37.3438Z" fill="#ED2F51"/>
</svg>
