<svg width="24" height="24" viewBox="0 0 24 24" fill="none" xmlns="http://www.w3.org/2000/svg">
    <g clip-path="url(#clip0_57_2913)">
        <path
            d="M5.09212 22.08L1.28012 23.556C1.16336 23.6002 1.03632 23.6098 0.914253 23.5836C0.792189 23.5573 0.680295 23.4964 0.592012 23.4081C0.503729 23.3198 0.442811 23.2079 0.416576 23.0859C0.390341 22.9638 0.399905 22.8368 0.444119 22.72L1.92012 18.908L5.09212 22.08Z"
            fill="#CE326B" />
        <path
            d="M19.7038 4.02685C20.1838 3.24045 20.1838 2.75965 19.7038 1.97365C19.6796 1.93602 19.6689 1.89129 19.6734 1.84678C19.678 1.80227 19.6976 1.76065 19.7289 1.72873C19.7603 1.69682 19.8016 1.67652 19.846 1.67116C19.8904 1.6658 19.9353 1.67571 19.9734 1.69925C20.7598 2.17925 21.2406 2.17925 22.0266 1.69925C22.0648 1.6763 22.1096 1.66679 22.1539 1.67224C22.1982 1.67769 22.2394 1.69778 22.2709 1.72932C22.3024 1.76086 22.3225 1.80204 22.328 1.84631C22.3334 1.89058 22.3239 1.9354 22.301 1.97365C21.821 2.75965 21.821 3.24045 22.301 4.02685C22.3245 4.06489 22.3344 4.10981 22.3291 4.15423C22.3237 4.19865 22.3034 4.23992 22.2715 4.27128C22.2396 4.30263 22.1979 4.32221 22.1534 4.32678C22.1089 4.33135 22.0642 4.32066 22.0266 4.29645C21.2406 3.81645 20.7598 3.81645 19.9734 4.29645C19.9359 4.32088 19.8912 4.3317 19.8468 4.32708C19.8023 4.32245 19.7608 4.30268 19.7292 4.27106C19.6975 4.23945 19.6778 4.19793 19.6731 4.15346C19.6685 4.10899 19.6793 4.06429 19.7038 4.02685ZM21.8202 13.538C21.6151 13.7927 21.5034 14.1097 21.5034 14.4366C21.5034 14.7636 21.6151 15.0806 21.8202 15.3352C21.8422 15.3686 21.852 15.4084 21.848 15.4482C21.844 15.4879 21.8264 15.525 21.7982 15.5532C21.7699 15.5815 21.7328 15.5991 21.6931 15.6031C21.6534 15.6071 21.6135 15.5973 21.5802 15.5752C21.3256 15.3703 21.0086 15.2585 20.6818 15.2585C20.3549 15.2585 20.0379 15.3703 19.7834 15.5752C19.7501 15.5973 19.7102 15.6071 19.6705 15.6031C19.6307 15.5991 19.5936 15.5815 19.5654 15.5532C19.5371 15.525 19.5195 15.4879 19.5155 15.4482C19.5115 15.4084 19.5214 15.3686 19.5434 15.3352C19.7484 15.0806 19.8602 14.7636 19.8602 14.4366C19.8602 14.1097 19.7484 13.7927 19.5434 13.538C19.522 13.5048 19.5127 13.4651 19.517 13.4258C19.5213 13.3865 19.539 13.3498 19.5671 13.3219C19.5952 13.2941 19.632 13.2767 19.6713 13.2727C19.7107 13.2687 19.7503 13.2784 19.7834 13.3C20.0379 13.505 20.3549 13.6168 20.6818 13.6168C21.0086 13.6168 21.3256 13.505 21.5802 13.3C21.6133 13.2784 21.6528 13.2687 21.6922 13.2727C21.7316 13.2767 21.7684 13.2941 21.7965 13.3219C21.8246 13.3498 21.8423 13.3865 21.8466 13.4258C21.8509 13.4651 21.8416 13.5048 21.8202 13.538Z"
            fill="#F2CE36" />
        <path
            d="M23.5677 9.10801C23.5919 9.14564 23.6026 9.19038 23.598 9.23488C23.5935 9.27939 23.5739 9.32101 23.5425 9.35293C23.5112 9.38484 23.4699 9.40514 23.4255 9.4105C23.3811 9.41586 23.3361 9.40596 23.2981 9.38241C22.5121 8.90241 22.0313 8.90241 21.2449 9.38241C21.2067 9.40517 21.1619 9.41453 21.1177 9.40899C21.0736 9.40346 21.0325 9.38336 21.0011 9.35187C20.9696 9.32037 20.9496 9.27929 20.9441 9.23512C20.9387 9.19096 20.9481 9.14623 20.9709 9.10801C21.4509 8.32201 21.4509 7.84121 20.9709 7.05481C20.9475 7.0168 20.9377 6.97198 20.9431 6.92768C20.9485 6.88338 20.9687 6.84221 21.0005 6.81091C21.0324 6.77961 21.0738 6.76002 21.1182 6.75535C21.1626 6.75069 21.2073 6.76121 21.2449 6.78521C22.0313 7.26521 22.5121 7.26521 23.2981 6.78521C23.3356 6.76126 23.3801 6.75082 23.4243 6.75563C23.4685 6.76044 23.5098 6.78021 23.5413 6.81166C23.5727 6.84311 23.5925 6.88436 23.5973 6.92858C23.6021 6.9728 23.5917 7.01734 23.5677 7.05481C23.0869 7.84001 23.0869 8.32201 23.5677 9.10801Z"
            fill="#CE326B" />
        <path
            d="M17.2148 2.75523C17.2388 2.79285 17.2494 2.83751 17.2447 2.88189C17.24 2.92628 17.2205 2.96777 17.1892 2.99958C17.1578 3.03139 17.1167 3.05165 17.0724 3.05703C17.0281 3.06242 16.9833 3.05261 16.9452 3.02923C16.1588 2.54923 15.678 2.54923 14.892 3.02923C14.8538 3.05204 14.8091 3.06146 14.7649 3.05599C14.7208 3.05052 14.6797 3.03048 14.6482 2.99903C14.6167 2.96759 14.5966 2.92653 14.5911 2.88238C14.5855 2.83822 14.5949 2.79347 14.6176 2.75523C15.0976 1.96883 15.0976 1.48803 14.6176 0.702027C14.5941 0.663982 14.5842 0.619062 14.5896 0.574645C14.5949 0.530227 14.6152 0.488951 14.6471 0.457596C14.679 0.426241 14.7207 0.406669 14.7652 0.402095C14.8097 0.397522 14.8544 0.408218 14.892 0.432427C15.678 0.912427 16.1588 0.912427 16.9452 0.432427C16.9827 0.408472 17.0273 0.398035 17.0715 0.402844C17.1157 0.407654 17.1569 0.427421 17.1884 0.458873C17.2198 0.490325 17.2396 0.531575 17.2444 0.575794C17.2492 0.620013 17.2388 0.664549 17.2148 0.702027C16.734 1.48803 16.734 1.96883 17.2148 2.75523Z"
            fill="#5E4EF9" />
        <path
            d="M10.7002 2.41844C10.4952 2.673 10.3834 2.99001 10.3834 3.31684C10.3834 3.64368 10.4952 3.96068 10.7002 4.21524C10.7218 4.24835 10.7315 4.2879 10.7275 4.32727C10.7235 4.36664 10.7061 4.40344 10.6783 4.43154C10.6504 4.45964 10.6137 4.47732 10.5744 4.48164C10.5351 4.48595 10.4955 4.47663 10.4622 4.45524C10.2075 4.25022 9.89047 4.13843 9.56356 4.13843C9.23666 4.13843 8.91959 4.25022 8.66496 4.45524C8.63166 4.47726 8.59177 4.4871 8.55204 4.48309C8.51232 4.47908 8.4752 4.46147 8.44697 4.43324C8.41874 4.405 8.40113 4.36789 8.39712 4.32816C8.39311 4.28844 8.40294 4.24855 8.42496 4.21524C8.62995 3.96068 8.74173 3.64368 8.74173 3.31684C8.74173 2.99001 8.62995 2.673 8.42496 2.41844C8.40294 2.38514 8.39311 2.34525 8.39712 2.30552C8.40113 2.2658 8.41874 2.22868 8.44697 2.20045C8.4752 2.17222 8.51232 2.15461 8.55204 2.1506C8.59177 2.14659 8.63166 2.15642 8.66496 2.17844C8.91959 2.38346 9.23666 2.49525 9.56356 2.49525C9.89047 2.49525 10.2075 2.38346 10.4622 2.17844C10.4955 2.15705 10.5351 2.14774 10.5744 2.15205C10.6137 2.15636 10.6504 2.17405 10.6783 2.20214C10.7061 2.23024 10.7235 2.26705 10.7275 2.30642C10.7315 2.34579 10.7218 2.38533 10.7002 2.41844Z"
            fill="#CE326B" />
        <path
            d="M7.81617 21.028L5.09217 22.08C4.5069 21.6121 3.94867 21.1113 3.42017 20.58C2.88893 20.0515 2.38813 19.4933 1.92017 18.908L2.97217 16.184L7.81617 21.028Z"
            fill="#F2CE36" />
        <path
            d="M10.5922 19.956L7.81617 21.028C5.93364 19.7055 4.2947 18.0665 2.97217 16.184L4.04417 13.408L10.5922 19.956Z"
            fill="#CE326B" />
        <path
            d="M13.5202 18.82V18.824L10.5922 19.956C7.9488 18.2886 5.71158 16.0514 4.04419 13.408L5.17619 10.48H5.18019L13.5202 18.82Z"
            fill="#F2CE36" />
        <path
            d="M13.52 18.824V18.82C11.7498 17.8902 10.1313 16.6966 8.72003 15.28C7.30352 13.8688 6.10988 12.2502 5.18003 10.48H5.17603L6.60003 6.80005L17.2 17.4L13.52 18.824Z"
            fill="#CE326B" />
        <path
            d="M17.2001 17.4C17.2001 17.4 15.0801 17.4 10.8401 13.1624C6.6001 8.92485 6.6001 6.80005 6.6001 6.80005C6.6001 6.80005 8.7201 6.80005 12.9565 11.0428C17.1929 15.2856 17.2001 17.4 17.2001 17.4Z"
            fill="#B52862" />
        <path
            d="M14.646 9.75406C14.5669 9.75404 14.4896 9.73057 14.4238 9.68662C14.3581 9.64267 14.3068 9.5802 14.2765 9.50712C14.2463 9.43404 14.2383 9.35363 14.2538 9.27605C14.2692 9.19846 14.3073 9.1272 14.3632 9.07126L18.1756 5.25846C18.2128 5.22129 18.2569 5.19181 18.3055 5.1717C18.354 5.15159 18.4061 5.14124 18.4586 5.14124C18.5112 5.14124 18.5632 5.15159 18.6118 5.1717C18.6603 5.19181 18.7044 5.22129 18.7416 5.25846C18.7788 5.29562 18.8083 5.33974 18.8284 5.3883C18.8485 5.43686 18.8588 5.4889 18.8588 5.54146C18.8588 5.59402 18.8485 5.64606 18.8284 5.69462C18.8083 5.74317 18.7788 5.78729 18.7416 5.82446L14.9288 9.63686C14.8538 9.71188 14.7521 9.75404 14.646 9.75406Z"
            fill="#5E4EF9" />
        <path
            d="M20.6822 11.9776C20.6038 11.9777 20.5271 11.9546 20.4618 11.9112C19.9021 11.5739 19.2712 11.3725 18.6196 11.3232C17.968 11.2738 17.3139 11.378 16.7098 11.6272C16.6129 11.6659 16.5046 11.6652 16.4082 11.6253C16.3117 11.5853 16.2348 11.5092 16.1937 11.4132C16.1526 11.3172 16.1506 11.209 16.1882 11.1116C16.2259 11.0142 16.3001 10.9354 16.395 10.892C17.1213 10.5913 17.9084 10.4665 18.6921 10.5278C19.4758 10.5891 20.2339 10.8348 20.9046 11.2448C20.9761 11.2925 21.0303 11.3618 21.0592 11.4427C21.0882 11.5236 21.0904 11.6116 21.0654 11.6938C21.0405 11.776 20.9898 11.8479 20.9207 11.8991C20.8517 11.9502 20.7681 11.9777 20.6822 11.9776Z"
            fill="#CE326B" />
        <path
            d="M12.7404 7.84764C12.6862 7.84787 12.6325 7.83684 12.5828 7.81524C12.4854 7.77343 12.4086 7.69469 12.3692 7.59629C12.3299 7.49789 12.3312 7.38789 12.3728 7.29044C12.6224 6.68646 12.7268 6.03231 12.6774 5.38064C12.6281 4.72897 12.4265 4.09798 12.0888 3.53844C12.0597 3.49469 12.0396 3.44563 12.0295 3.39408C12.0193 3.34253 12.0195 3.28949 12.0299 3.23799C12.0508 3.13398 12.1123 3.04256 12.2006 2.98384C12.289 2.92513 12.3971 2.90392 12.5011 2.92488C12.5526 2.93526 12.6015 2.95569 12.6451 2.98499C12.6887 3.01429 12.7261 3.05189 12.7552 3.09564C13.1652 3.76637 13.4108 4.52448 13.4721 5.30816C13.5334 6.09185 13.4087 6.87893 13.108 7.60524C13.0772 7.67718 13.0259 7.73849 12.9606 7.78158C12.8952 7.82466 12.8187 7.84764 12.7404 7.84764Z"
            fill="#F2CE36" />
        <path
            d="M18.1409 9.43606C18.0422 9.43603 17.9471 9.39955 17.8737 9.33363C17.8003 9.26771 17.7538 9.17699 17.7433 9.0789C17.7327 8.98082 17.7588 8.88229 17.8164 8.80225C17.8741 8.7222 17.9593 8.66629 18.0557 8.64526L18.1249 8.63006C18.1767 8.6173 18.2306 8.61505 18.2833 8.62344C18.336 8.63183 18.3865 8.65069 18.4319 8.67891C18.4772 8.70713 18.5164 8.74413 18.5472 8.78774C18.578 8.83136 18.5997 8.88069 18.6112 8.93284C18.6226 8.98499 18.6235 9.0389 18.6137 9.0914C18.604 9.14389 18.5839 9.1939 18.5545 9.23849C18.5251 9.28308 18.4871 9.32133 18.4428 9.351C18.3984 9.38068 18.3485 9.40116 18.2961 9.41126L18.2265 9.42646C18.1984 9.43278 18.1697 9.436 18.1409 9.43606Z"
            fill="#CE326B" />
        <path
            d="M14.9646 6.25881C14.9048 6.25881 14.8458 6.24542 14.7919 6.21962C14.738 6.19382 14.6906 6.15627 14.6531 6.10972C14.6156 6.06318 14.589 6.00883 14.5753 5.95067C14.5616 5.8925 14.561 5.832 14.5738 5.77361L14.589 5.70401C14.5991 5.65159 14.6195 5.60171 14.6492 5.55733C14.6789 5.51295 14.7171 5.47495 14.7617 5.44559C14.8063 5.41622 14.8563 5.39608 14.9088 5.38634C14.9613 5.37661 15.0152 5.37748 15.0674 5.38891C15.1195 5.40034 15.1689 5.42209 15.2125 5.45289C15.2561 5.48368 15.2931 5.5229 15.3213 5.56822C15.3495 5.61354 15.3684 5.66405 15.3768 5.71678C15.3852 5.7695 15.3829 5.82337 15.3702 5.87521L15.355 5.94441C15.3355 6.03346 15.2861 6.11317 15.2151 6.17035C15.1441 6.22753 15.0557 6.25874 14.9646 6.25881ZM10.8338 6.57681C10.7442 6.57677 10.6572 6.54667 10.5868 6.49133C10.5164 6.43599 10.4666 6.35862 10.4454 6.27161L10.4318 6.21521C10.4086 6.11283 10.4265 6.00543 10.4818 5.91619C10.5371 5.82694 10.6253 5.76301 10.7273 5.73818C10.8293 5.71335 10.9369 5.72961 11.0271 5.78346C11.1172 5.83731 11.1825 5.92442 11.209 6.02601L11.223 6.08241C11.2354 6.13347 11.2376 6.18648 11.2295 6.2384C11.2214 6.29032 11.2032 6.34013 11.1759 6.38501C11.1485 6.42988 11.1126 6.46893 11.0702 6.49991C11.0278 6.5309 10.9796 6.55323 10.9286 6.56561C10.8975 6.57325 10.8657 6.57702 10.8338 6.57681Z"
            fill="#F2CE36" />
        <path
            d="M17.8801 13.5796C17.8482 13.5796 17.8163 13.5759 17.7853 13.5684L17.7289 13.5548C17.6258 13.5297 17.5368 13.4647 17.4817 13.374C17.4265 13.2834 17.4096 13.1745 17.4347 13.0714C17.4598 12.9683 17.5248 12.8794 17.6155 12.8242C17.7061 12.769 17.815 12.7521 17.9181 12.7772L17.9745 12.7912C18.0693 12.8146 18.1523 12.8718 18.2078 12.9521C18.2634 13.0324 18.2876 13.1302 18.276 13.2272C18.2644 13.3241 18.2177 13.4135 18.1448 13.4784C18.0719 13.5433 17.9777 13.5793 17.8801 13.5796Z"
            fill="#CE326B" />
    </g>
    <defs>
        <clipPath id="clip0_57_2913">
            <rect width="24" height="24" fill="white" />
        </clipPath>
    </defs>
</svg>