<svg width="17" height="16" viewBox="0 0 17 16" fill="none" xmlns="http://www.w3.org/2000/svg">
<path d="M8.5 0C4.08862 0 0.5 3.58862 0.5 8C0.5 12.4114 4.08862 16 8.5 16C12.9114 16 16.5 12.4114 16.5 8C16.5 3.58862 12.9114 0 8.5 0Z" fill="#1877F2"/>
<path d="M12.5547 6.30469L8.22132 10.6379C8.09132 10.7679 7.92066 10.8334 7.75 10.8334C7.57935 10.8334 7.40869 10.7679 7.27869 10.6379L5.11207 8.47132C4.85132 8.21069 4.85132 7.78932 5.11207 7.52869C5.37269 7.26794 5.79394 7.26794 6.05469 7.52869L7.75 9.224L11.6121 5.36207C11.8727 5.10132 12.2939 5.10132 12.5547 5.36207C12.8153 5.62269 12.8153 6.04394 12.5547 6.30469Z" fill="white"/>
</svg>
