<svg width="18" height="18" viewBox="0 0 18 18" fill="none" xmlns="http://www.w3.org/2000/svg">
<path d="M8.99976 17.0293C13.6942 17.0293 17.4998 13.2237 17.4998 8.5293C17.4998 3.83488 13.6942 0.0292969 8.99976 0.0292969C4.30534 0.0292969 0.499756 3.83488 0.499756 8.5293C0.499756 13.2237 4.30534 17.0293 8.99976 17.0293Z" fill="#83808B"/>
<path d="M8.12927 12.0293C7.98262 12.0295 7.83738 12.0028 7.70191 11.9509C7.56643 11.899 7.44339 11.8228 7.33985 11.7267L4.85049 9.42371C4.74173 9.32892 4.65466 9.2149 4.59444 9.0884C4.53421 8.96191 4.50205 8.82552 4.49987 8.68732C4.4977 8.54912 4.52554 8.41192 4.58175 8.28385C4.63796 8.15579 4.7214 8.03947 4.82712 7.94178C4.93284 7.8441 5.05869 7.76704 5.1972 7.71517C5.33572 7.66331 5.48408 7.63769 5.6335 7.63984C5.78291 7.64199 5.93034 7.67187 6.06704 7.7277C6.20375 7.78353 6.32694 7.86417 6.42932 7.96486L8.12927 9.537L11.5975 6.32824C11.8072 6.13613 12.0907 6.02865 12.3858 6.0293C12.681 6.02995 12.9639 6.13866 13.1726 6.33168C13.3814 6.5247 13.499 6.78632 13.4998 7.05932C13.5005 7.33233 13.3844 7.59451 13.1767 7.78853L8.91888 11.7267C8.8153 11.8228 8.69222 11.8989 8.55671 11.9509C8.42121 12.0028 8.27595 12.0295 8.12927 12.0293Z" fill="#F8F9E8"/>
</svg>
