<svg width="21" height="19" viewBox="0 0 21 19" fill="none" xmlns="http://www.w3.org/2000/svg">
    <g clip-path="url(#clip0_296_282)">
    <path d="M18.0031 3H2.64012C2.47035 3 2.30753 3.05995 2.18749 3.16666C2.06744 3.27336 2 3.41809 2 3.569V13.242C2 13.5438 2.13488 13.8333 2.37498 14.0467C2.61507 14.2601 2.94071 14.38 3.28025 14.38H17.363C17.7025 14.38 18.0282 14.2601 18.2683 14.0467C18.5084 13.8333 18.6432 13.5438 18.6432 13.242V3.569C18.6432 3.41809 18.5758 3.27336 18.4558 3.16666C18.3357 3.05995 18.1729 3 18.0031 3ZM7.97717 8.69L3.28025 12.5165V4.86347L7.97717 8.69ZM8.92135 9.46526L9.88954 10.2476C10.0075 10.3436 10.1617 10.3968 10.3216 10.3968C10.4816 10.3968 10.6357 10.3436 10.7537 10.2476L11.7219 9.46526L16.3548 13.242H4.28845L8.92135 9.46526ZM12.6661 8.69L17.363 4.86347V12.5165L12.6661 8.69Z" fill="#6669F8"/>
    </g>
    <defs>
    <clipPath id="clip0_296_282">
    <rect width="20.25" height="18" fill="white" transform="translate(0 0.5)"/>
    </clipPath>
    </defs>
    </svg>
    