<svg width="30" height="15" viewBox="0 0 30 15" fill="none" xmlns="http://www.w3.org/2000/svg">
<path d="M28.8254 8.70884L8.14942 8.72393C7.70942 8.72425 7.34916 8.36451 7.34884 7.92451C7.34851 7.48451 7.70825 7.12425 8.14825 7.12393L28.8242 7.10884C29.2642 7.10852 29.6245 7.46826 29.6248 7.90826C29.6252 8.34826 29.2654 8.70852 28.8254 8.70884Z" fill="white"/>
<path fill-rule="evenodd" clip-rule="evenodd" d="M0.888257 7.1293C1.32826 7.12898 1.68852 7.48872 1.68884 7.92872C1.68916 8.36871 1.32942 8.72898 0.889424 8.7293C0.449425 8.72962 0.0891616 8.36988 0.0888405 7.92988C0.0885195 7.48988 0.444257 7.12962 0.888257 7.1293Z" fill="white"/>
<path d="M4.51741 8.72637C4.95924 8.72605 5.31715 8.36761 5.31683 7.92579C5.31651 7.48396 4.95807 7.12605 4.51625 7.12637C4.07442 7.12669 3.71651 7.48513 3.71683 7.92695C3.71715 8.36878 4.07559 8.72669 4.51741 8.72637Z" fill="white"/>
<path d="M23.514 14.9605C23.3616 14.9593 23.2127 14.9148 23.0847 14.8322C22.9567 14.7496 22.8548 14.6322 22.7909 14.4939C22.7271 14.3555 22.7039 14.2019 22.7241 14.0508C22.7443 13.8998 22.807 13.7576 22.905 13.6409L27.7728 7.90938L22.8966 2.18094C22.6084 1.84515 22.652 1.34112 22.9878 1.05287C23.3236 0.764625 23.8276 0.808259 24.1159 1.14405L29.4324 7.38817C29.6847 7.68799 29.685 8.12399 29.4332 8.42417L24.1258 14.68C23.9659 14.8682 23.742 14.9603 23.514 14.9605Z" fill="white"/>
</svg>
