<svg width="25" height="25" viewBox="0 0 25 25" fill="none" xmlns="http://www.w3.org/2000/svg">
<path d="M5.64252 16.8894L5.64252 19.8198L3.53314 19.8198C3.1445 19.8198 2.83002 20.1343 2.83002 20.5229C2.83002 20.9116 3.1445 21.2261 3.53314 21.2261L5.64252 21.2261L5.64252 23.3823C5.64252 23.771 5.957 24.0854 6.34564 24.0854C6.73428 24.0854 7.04877 23.771 7.04877 23.3823L7.04877 21.2261L9.15814 21.2261C9.54678 21.2261 9.86127 20.9116 9.86127 20.5229C9.86127 20.1343 9.54678 19.8198 9.15814 19.8198L7.04877 19.8198L7.04877 16.8922C7.52703 16.8308 7.9941 16.7338 8.43692 16.5774C8.03333 16.2414 7.66719 15.8633 7.33897 15.4532C7.01214 15.5204 6.67932 15.5543 6.34564 15.5542C3.632 15.5542 1.42377 13.346 1.42377 10.6323C1.42377 7.91868 3.632 5.71045 6.34564 5.71045C9.15008 5.71045 11.2675 8.10253 11.2675 10.6323C11.2675 11.4468 11.0496 12.2041 10.6978 12.8815C11.0051 13.2471 11.381 13.5471 11.8115 13.7634C12.3449 12.8362 12.6738 11.7767 12.6738 10.6323C12.6738 7.37095 9.99158 4.3042 6.34564 4.3042C2.85613 4.3042 0.0175171 7.14281 0.0175171 10.6323C0.0175171 13.8811 2.48713 16.5344 5.64252 16.8894Z" fill="#ED2F51"/>
<path d="M23.3144 0.0854492L19.0956 0.0854492C18.707 0.0854492 18.3925 0.399934 18.3925 0.788574C18.3925 1.17721 18.707 1.4917 19.0956 1.4917L21.617 1.4917L17.3048 5.71012C16.2222 4.84406 14.8681 4.3042 13.3769 4.3042C12.6404 4.3042 11.9436 4.4549 11.2856 4.68726C11.6892 5.02321 12.0553 5.40131 12.3836 5.81146C12.7104 5.7442 13.0432 5.71036 13.3769 5.71045C16.0905 5.71045 18.2988 7.91868 18.2988 10.6323C18.2988 13.346 16.0905 15.5542 13.3769 15.5542C10.5914 15.5542 8.45502 13.1884 8.45502 10.6323C8.45502 9.81787 8.67294 9.06051 9.02478 8.38312C8.71742 8.01759 8.34158 7.71759 7.91103 7.50121C7.3776 8.42845 7.04877 9.48796 7.04877 10.6323C7.04877 13.9255 9.803 16.9604 13.3769 16.9604C16.8664 16.9604 19.705 14.1218 19.705 10.6323C19.705 9.14109 19.1652 7.78706 18.2991 6.70439L22.6113 2.48596L22.6113 5.00732C22.6113 5.39596 22.9258 5.71045 23.3144 5.71045C23.703 5.71045 24.0175 5.39596 24.0175 5.00732L24.0175 0.788574C24.0175 0.403871 23.7022 0.0854492 23.3144 0.0854492Z" fill="#ED2F51"/>
</svg>
