<svg width="19" height="19" viewBox="0 0 19 19" fill="none" xmlns="http://www.w3.org/2000/svg">
<path d="M8.38696 10.3728H9.982L10.5238 8.68604H8.92872L8.38696 10.3728Z" fill="#83808B"/>
<path d="M9.5 0.529297C4.52961 0.529297 0.5 4.55891 0.5 9.5293C0.5 14.4997 4.52961 18.5293 9.5 18.5293C14.4704 18.5293 18.5 14.4997 18.5 9.5293C18.5 4.55891 14.4704 0.529297 9.5 0.529297ZM14.0759 7.68676L13.5957 8.5632C13.5754 8.60036 13.5454 8.63136 13.509 8.65295C13.4726 8.67454 13.431 8.68592 13.3886 8.6859H12.1265L11.5851 10.3734H13.1246C13.1657 10.3734 13.206 10.384 13.2417 10.4043C13.2774 10.4246 13.3071 10.4538 13.3281 10.4892C13.349 10.5245 13.3604 10.5646 13.3611 10.6057C13.3618 10.6467 13.3518 10.6872 13.332 10.7232L12.8518 11.5996C12.8314 11.6368 12.8014 11.6678 12.7649 11.6894C12.7284 11.711 12.6868 11.7224 12.6444 11.7223H11.1523L10.6176 13.388C10.6019 13.4368 10.5711 13.4794 10.5296 13.5096C10.4882 13.5398 10.4383 13.556 10.387 13.5561H9.29187C9.25371 13.5561 9.21608 13.5471 9.18205 13.5298C9.14803 13.5125 9.11858 13.4874 9.09609 13.4565C9.07361 13.4257 9.05873 13.39 9.05268 13.3523C9.04662 13.3146 9.04956 13.276 9.06125 13.2397L9.54887 11.722H7.95312L7.41875 13.3873C7.403 13.4361 7.37219 13.4787 7.33076 13.5089C7.28933 13.5391 7.23939 13.5553 7.18813 13.5554H6.09371C6.05557 13.5553 6.01798 13.5463 5.984 13.529C5.95003 13.5116 5.92062 13.4865 5.89818 13.4557C5.87573 13.4249 5.86089 13.3892 5.85485 13.3515C5.84882 13.3138 5.85176 13.2753 5.86344 13.239L6.3507 11.7213H5.13113C5.09012 11.7213 5.04981 11.7106 5.01418 11.6903C4.97855 11.6699 4.94883 11.6407 4.92793 11.6054C4.90704 11.5701 4.89569 11.53 4.89501 11.4889C4.89434 11.4479 4.90435 11.4075 4.92406 11.3715L5.4043 10.495C5.42462 10.4579 5.45457 10.4269 5.49101 10.4053C5.52744 10.3837 5.56902 10.3723 5.61137 10.3723H6.78418L7.32559 8.68484H5.87539C5.83434 8.68489 5.79399 8.67424 5.75832 8.65394C5.72264 8.63364 5.69286 8.6044 5.67193 8.56909C5.65099 8.53378 5.63962 8.49363 5.63892 8.45259C5.63823 8.41155 5.64824 8.37103 5.66797 8.33504L6.1482 7.45859C6.16861 7.42144 6.19863 7.39044 6.23512 7.36886C6.27161 7.34727 6.31323 7.33589 6.35563 7.3359H7.75906L8.29379 5.6702C8.30954 5.62141 8.34034 5.57887 8.38178 5.54867C8.42321 5.51848 8.47315 5.50219 8.52441 5.50215H9.61883C9.657 5.50214 9.69463 5.51116 9.72865 5.52846C9.76267 5.54576 9.79213 5.57085 9.81461 5.6017C9.83709 5.63254 9.85197 5.66826 9.85802 5.70595C9.86408 5.74364 9.86114 5.78222 9.84945 5.81855L9.36184 7.33625H10.9569L11.492 5.67055C11.5076 5.6217 11.5384 5.5791 11.5798 5.54889C11.6213 5.51868 11.6713 5.50244 11.7226 5.5025H12.8166C12.8548 5.50249 12.8924 5.51151 12.9265 5.52881C12.9605 5.54611 12.9899 5.5712 13.0124 5.60205C13.0349 5.63289 13.0498 5.66862 13.0558 5.7063C13.0619 5.74399 13.059 5.78257 13.0473 5.81891L12.5586 7.33695H13.8675C13.9086 7.33673 13.9491 7.34724 13.9849 7.36747C14.0207 7.38769 14.0507 7.41691 14.0717 7.45225C14.0928 7.48759 14.1042 7.52781 14.105 7.56894C14.1057 7.61007 14.0957 7.65068 14.0759 7.68676Z" fill="#83808B"/>
</svg>
