<svg width="40" height="40" viewBox="0 0 40 40" fill="none" xmlns="http://www.w3.org/2000/svg">
<g clip-path="url(#clip0_1051_8516)">
<mask id="mask0_1051_8516" style="mask-type:luminance" maskUnits="userSpaceOnUse" x="0" y="0" width="40" height="40">
<path d="M40 0H0V40H40V0Z" fill="white"/>
</mask>
<g mask="url(#mask0_1051_8516)">
<path d="M12 8V6H28V8H30V10H32V16H34V22H32V26H30V28H28V30H24V32H32V34H34V40H6V34H8V32H16V30H12V28H10V26H8V22H6V16H8V10H10V8H12Z" fill="#8D5524"/>
<path d="M12 6V8H10V10H8V16H6V22H8V26H10V28H12V30H28V28H30V26H32V22H34V16H32V10H30V8H28V6H12Z" fill="white" fill-opacity="0.1"/>
<path fill-rule="evenodd" clip-rule="evenodd" d="M10 16H14V18H10V16ZM24 16H28V18H24V16Z" fill="white"/>
<path fill-rule="evenodd" clip-rule="evenodd" d="M14 16H16V18H14V16ZM28 16H30V18H28V16Z" fill="black"/>
<path fill-rule="evenodd" clip-rule="evenodd" d="M14 10V12H10V14H8V12H10V10H14ZM26 10H30V12H32V14H30V12H26V10Z" fill="#612616"/>
<path fill-rule="evenodd" clip-rule="evenodd" d="M14 10V12H10V14H8V12H10V10H14ZM26 10H30V12H32V14H30V12H26V10Z" fill="black" fill-opacity="0.1"/>
<path d="M16 26V28H24V26H26V24H24V26H16Z" fill="#E35D6A"/>
<path d="M10 10H30V8H28V6H12V8H10V10Z" fill="#612616"/>
<path d="M6 40V34H8V32H16V34H18V36H22V34H24V32H32V34H34V40H6Z" fill="#FFC425"/>
<path d="M12 32V34H14V36H16V38H24V36H26V34H28V32H24V34H22V36H18V34H16V32H12Z" fill="white" fill-opacity="0.4"/>
<path fill-rule="evenodd" clip-rule="evenodd" d="M26 40V38H30V40H26ZM28 32V34H32V32H28ZM12 32H8V34H12V32Z" fill="white" fill-opacity="0.2"/>
</g>
</g>
<defs>
<clipPath id="clip0_1051_8516">
<rect width="40" height="40" fill="white"/>
</clipPath>
</defs>
</svg>
