<svg width="18" height="12" viewBox="0 0 18 12" fill="none" xmlns="http://www.w3.org/2000/svg">
<path d="M8.24408 8.10375C8.99798 7.60186 9.57034 6.87067 9.87653 6.01832C10.1827 5.16597 10.2065 4.23771 9.94432 3.37081C9.68214 2.50391 9.14795 1.74439 8.42073 1.20457C7.69351 0.664751 6.81187 0.373291 5.90619 0.373291C5.00051 0.373291 4.11888 0.664751 3.39166 1.20457C2.66444 1.74439 2.13024 2.50391 1.86807 3.37081C1.6059 4.23771 1.62966 5.16597 1.93586 6.01832C2.24205 6.87067 2.81441 7.60186 3.5683 8.10375C2.20459 8.60637 1.03994 9.53646 0.248146 10.7552C0.206533 10.8171 0.177627 10.8866 0.163111 10.9597C0.148595 11.0328 0.148758 11.1081 0.16359 11.1812C0.178421 11.2542 0.207626 11.3236 0.249507 11.3853C0.291387 11.4469 0.345108 11.4997 0.407547 11.5404C0.469985 11.5811 0.539896 11.609 0.613215 11.6225C0.686534 11.636 0.761799 11.6347 0.834634 11.6188C0.90747 11.603 0.976424 11.5728 1.03749 11.53C1.09855 11.4873 1.15051 11.4328 1.19033 11.3698C1.70108 10.5842 2.39996 9.93871 3.22352 9.49185C4.04707 9.04498 4.96921 8.81092 5.90619 8.81092C6.84317 8.81092 7.76531 9.04498 8.58887 9.49185C9.41243 9.93871 10.1113 10.5842 10.6221 11.3698C10.7046 11.4924 10.832 11.5776 10.9768 11.607C11.1217 11.6364 11.2723 11.6076 11.396 11.5269C11.5198 11.4462 11.6069 11.32 11.6383 11.1756C11.6698 11.0312 11.6432 10.8802 11.5642 10.7552C10.7724 9.53646 9.6078 8.60637 8.24408 8.10375ZM2.81244 4.59375C2.81244 3.98187 2.99389 3.38372 3.33383 2.87496C3.67378 2.36619 4.15696 1.96966 4.72227 1.7355C5.28758 1.50134 5.90963 1.44008 6.50975 1.55945C7.10988 1.67882 7.66114 1.97347 8.09381 2.40614C8.52647 2.83881 8.82112 3.39006 8.9405 3.99019C9.05987 4.59032 8.9986 5.21237 8.76445 5.77768C8.53029 6.34299 8.13375 6.82617 7.62499 7.16611C7.11622 7.50606 6.51808 7.6875 5.90619 7.6875C5.08597 7.68657 4.2996 7.36033 3.71961 6.78034C3.13962 6.20035 2.81337 5.41398 2.81244 4.59375ZM17.5879 11.5336C17.463 11.6151 17.3108 11.6436 17.1648 11.6129C17.0188 11.5821 16.8911 11.4947 16.8096 11.3698C16.2994 10.5838 15.6006 9.93796 14.7769 9.49128C13.9532 9.0446 13.0307 8.81125 12.0937 8.8125C11.9445 8.8125 11.8014 8.75324 11.6959 8.64775C11.5905 8.54226 11.5312 8.39919 11.5312 8.25C11.5312 8.10082 11.5905 7.95774 11.6959 7.85225C11.8014 7.74677 11.9445 7.6875 12.0937 7.6875C12.5493 7.68707 12.9992 7.58602 13.4112 7.39157C13.8232 7.19711 14.1872 6.91406 14.4772 6.56262C14.7671 6.21119 14.9759 5.80006 15.0885 5.3586C15.2011 4.91713 15.2149 4.45624 15.1287 4.00886C15.0426 3.56147 14.8587 3.13863 14.5902 2.77055C14.3217 2.40246 13.9752 2.09823 13.5755 1.87957C13.1758 1.66092 12.7328 1.53324 12.278 1.50567C11.8232 1.4781 11.368 1.55132 10.9448 1.72008C10.8758 1.74991 10.8015 1.7656 10.7263 1.76624C10.6512 1.76688 10.5766 1.75244 10.5071 1.72378C10.4376 1.69512 10.3746 1.65283 10.3217 1.59939C10.2689 1.54595 10.2272 1.48246 10.1993 1.41267C10.1714 1.34287 10.1578 1.26819 10.1592 1.19303C10.1606 1.11787 10.1771 1.04377 10.2077 0.975086C10.2382 0.906407 10.2822 0.844549 10.3371 0.793169C10.392 0.741788 10.4566 0.701927 10.5271 0.67594C11.4957 0.289679 12.5729 0.275779 13.5511 0.636922C14.5293 0.998064 15.339 1.70866 15.8242 2.63162C16.3094 3.55459 16.4355 4.62452 16.1784 5.63502C15.9212 6.64552 15.2989 7.52499 14.4316 8.10375C15.7953 8.60637 16.9599 9.53646 17.7517 10.7552C17.8332 10.8802 17.8617 11.0324 17.831 11.1783C17.8003 11.3243 17.7128 11.4521 17.5879 11.5336Z" fill="#ED2F51"/>
</svg>
