<svg width="13" height="12" viewBox="0 0 13 12" fill="none" xmlns="http://www.w3.org/2000/svg">
<path d="M12.4136 11.76C12.3715 11.833 12.3109 11.8936 12.2379 11.9357C12.1649 11.9779 12.0821 12 11.9979 12H0.479443C0.395238 11.9999 0.312539 11.9777 0.239648 11.9355C0.166757 11.8934 0.106241 11.8328 0.064176 11.7598C0.0221112 11.6869 -2.1602e-05 11.6041 1.58209e-08 11.5199C2.16336e-05 11.4357 0.0221969 11.353 0.0642992 11.2801C0.977975 9.70051 2.38598 8.56787 4.02916 8.03094C3.21637 7.54708 2.58488 6.80979 2.23168 5.9323C1.87847 5.05481 1.82307 4.08564 2.07399 3.17361C2.32491 2.26159 2.86827 1.45715 3.62063 0.883827C4.37299 0.310504 5.29275 0 6.23866 0C7.18457 0 8.10433 0.310504 8.85669 0.883827C9.60905 1.45715 10.1524 2.26159 10.4033 3.17361C10.6542 4.08564 10.5988 5.05481 10.2456 5.9323C9.89243 6.80979 9.26095 7.54708 8.44816 8.03094C10.0913 8.56787 11.4993 9.70051 12.413 11.2801C12.4552 11.353 12.4775 11.4357 12.4776 11.52C12.4777 11.6042 12.4557 11.687 12.4136 11.76Z" fill="#64607D"/>
</svg>
