<svg width="22" height="16" viewBox="0 0 22 16" fill="none" xmlns="http://www.w3.org/2000/svg">
<path d="M5.09901 9.07463C5.10147 9.12388 5.09389 9.17311 5.07673 9.21934C5.05957 9.26557 5.03318 9.30782 4.99918 9.34352C4.96517 9.37923 4.92425 9.40765 4.87892 9.42704C4.83358 9.44644 4.78478 9.45641 4.73547 9.45634H0.725663C0.561558 9.45659 0.402196 9.40132 0.27349 9.29951C0.144784 9.1977 0.0543055 9.05534 0.0167668 8.89559C-0.00660775 8.78625 -0.0055302 8.67309 0.0199223 8.56421C0.0453748 8.45533 0.0945733 8.35341 0.163999 8.26576C0.805467 7.41507 1.65658 6.74527 2.63423 6.32175C2.20501 5.93041 1.87581 5.44191 1.6742 4.89718C1.47259 4.35244 1.40444 3.76733 1.47547 3.19084C1.54649 2.61435 1.75462 2.06328 2.08242 1.58377C2.41021 1.10426 2.84814 0.710271 3.35951 0.434809C3.87088 0.159348 4.44082 0.0104302 5.02158 0.000528361C5.60234 -0.00937349 6.17702 0.120029 6.69749 0.377898C7.21795 0.635766 7.66905 1.01459 8.01301 1.48265C8.35696 1.95071 8.58375 2.49437 8.67439 3.0681C8.68609 3.14525 8.67227 3.22412 8.63503 3.29269C8.59779 3.36127 8.53916 3.4158 8.46808 3.448C7.45962 3.91421 6.60556 4.65916 6.00667 5.59493C5.40778 6.53071 5.08905 7.61826 5.0881 8.72927C5.0881 8.8456 5.0881 8.96012 5.09901 9.07463ZM21.6399 8.26485C20.9999 7.41515 20.1508 6.74571 19.1751 6.32175C19.6044 5.93041 19.9336 5.44191 20.1352 4.89718C20.3368 4.35244 20.4049 3.76733 20.3339 3.19084C20.2629 2.61435 20.0547 2.06328 19.7269 1.58377C19.3992 1.10426 18.9612 0.710271 18.4499 0.434809C17.9385 0.159348 17.3685 0.0104302 16.7878 0.000528361C16.207 -0.00937349 15.6323 0.120029 15.1119 0.377898C14.5914 0.635766 14.1403 1.01459 13.7964 1.48265C13.4524 1.95071 13.2256 2.49437 13.135 3.0681C13.1233 3.14525 13.1371 3.22412 13.1743 3.29269C13.2116 3.36127 13.2702 3.4158 13.3413 3.448C14.3497 3.91421 15.2038 4.65916 15.8027 5.59493C16.4016 6.53071 16.7203 7.61826 16.7213 8.72927C16.7213 8.8456 16.7213 8.96012 16.7104 9.07463C16.7079 9.12388 16.7155 9.17311 16.7326 9.21934C16.7498 9.26557 16.7762 9.30782 16.8102 9.34352C16.8442 9.37923 16.8851 9.40765 16.9304 9.42704C16.9758 9.44644 17.0246 9.45641 17.0739 9.45634H21.0837C21.2478 9.45659 21.4072 9.40132 21.5359 9.29951C21.6646 9.1977 21.7551 9.05534 21.7926 8.89559C21.8161 8.78605 21.815 8.67265 21.7894 8.56357C21.7638 8.4545 21.7143 8.35248 21.6445 8.26485H21.6399ZM13.5512 12.1892C14.2752 11.6348 14.8072 10.8675 15.0725 9.99507C15.3378 9.12267 15.3231 8.18906 15.0304 7.32547C14.7376 6.46187 14.1817 5.71171 13.4406 5.1804C12.6996 4.64909 11.8106 4.36336 10.8988 4.36336C9.98692 4.36336 9.098 4.64909 8.35693 5.1804C7.61586 5.71171 7.0599 6.46187 6.7672 7.32547C6.4745 8.18906 6.45976 9.12267 6.72507 9.99507C6.99038 10.8675 7.52239 11.6348 8.24632 12.1892C6.96171 12.7458 5.88903 13.6991 5.18535 14.9094C5.12152 15.0199 5.08793 15.1453 5.08794 15.273C5.08794 15.4006 5.12155 15.526 5.18539 15.6365C5.24922 15.7471 5.34103 15.8389 5.45158 15.9027C5.56213 15.9665 5.68753 16 5.81517 16H15.9942C16.1218 16 16.2472 15.9665 16.3578 15.9027C16.4683 15.8389 16.5601 15.7471 16.624 15.6365C16.6878 15.526 16.7214 15.4006 16.7214 15.273C16.7214 15.1453 16.6878 15.0199 16.624 14.9094C15.9188 13.6983 14.8442 12.745 13.5576 12.1892H13.5512Z" fill="#ED2F51"/>
</svg>
