<svg width="14" height="17" viewBox="0 0 14 17" fill="none" xmlns="http://www.w3.org/2000/svg">
<path d="M7 2.8125C5.66498 2.8125 4.35994 3.20838 3.2499 3.95008C2.13987 4.69178 1.27471 5.74599 0.763816 6.97939C0.252925 8.21279 0.119252 9.56999 0.379702 10.8794C0.640153 12.1887 1.28303 13.3915 2.22703 14.3355C3.17104 15.2795 4.37377 15.9224 5.68314 16.1828C6.99252 16.4433 8.34972 16.3096 9.58312 15.7987C10.8165 15.2878 11.8707 14.4226 12.6124 13.3126C13.3541 12.2026 13.75 10.8975 13.75 9.5625C13.748 7.77292 13.0361 6.05722 11.7707 4.79179C10.5053 3.52636 8.78959 2.81455 7 2.8125ZM7 15.1875C5.88748 15.1875 4.79995 14.8576 3.87492 14.2395C2.94989 13.6214 2.22892 12.7429 1.80318 11.7151C1.37744 10.6873 1.26604 9.55626 1.48309 8.46512C1.70013 7.37397 2.23586 6.3717 3.02253 5.58502C3.8092 4.79835 4.81148 4.26262 5.90262 4.04558C6.99376 3.82854 8.12476 3.93993 9.1526 4.36568C10.1804 4.79142 11.0589 5.51239 11.677 6.43742C12.2951 7.36244 12.625 8.44998 12.625 9.5625C12.6233 11.0538 12.0302 12.4836 10.9756 13.5381C9.9211 14.5927 8.49133 15.1858 7 15.1875ZM10.2105 6.35203C10.2628 6.40427 10.3043 6.46631 10.3326 6.5346C10.3609 6.60288 10.3754 6.67608 10.3754 6.75C10.3754 6.82392 10.3609 6.89712 10.3326 6.9654C10.3043 7.03369 10.2628 7.09573 10.2105 7.14797L7.39797 9.96047C7.34571 10.0127 7.28367 10.0542 7.21538 10.0825C7.1471 10.1108 7.07391 10.1253 7 10.1253C6.92609 10.1253 6.85291 10.1108 6.78462 10.0825C6.71634 10.0542 6.6543 10.0127 6.60203 9.96047C6.54977 9.90821 6.50832 9.84616 6.48003 9.77788C6.45175 9.7096 6.43719 9.63641 6.43719 9.5625C6.43719 9.48859 6.45175 9.41541 6.48003 9.34712C6.50832 9.27884 6.54977 9.21679 6.60203 9.16453L9.41453 6.35203C9.46677 6.29973 9.52881 6.25824 9.5971 6.22994C9.66539 6.20163 9.73858 6.18706 9.8125 6.18706C9.88642 6.18706 9.95962 6.20163 10.0279 6.22994C10.0962 6.25824 10.1582 6.29973 10.2105 6.35203ZM4.75 1.125C4.75 0.975816 4.80927 0.832742 4.91476 0.727252C5.02025 0.621763 5.16332 0.5625 5.3125 0.5625H8.6875C8.83669 0.5625 8.97976 0.621763 9.08525 0.727252C9.19074 0.832742 9.25 0.975816 9.25 1.125C9.25 1.27418 9.19074 1.41726 9.08525 1.52275C8.97976 1.62824 8.83669 1.6875 8.6875 1.6875H5.3125C5.16332 1.6875 5.02025 1.62824 4.91476 1.52275C4.80927 1.41726 4.75 1.27418 4.75 1.125Z" fill="#ED2F51"/>
</svg>
