<svg width="72" height="70" viewBox="0 0 72 70" fill="none" xmlns="http://www.w3.org/2000/svg">
<path d="M68.9846 40.7305L68.9631 40.7412C66.4327 42.6817 65.3606 45.9838 66.2613 49.0396L66.272 49.0611C67.7086 53.9179 64.1492 58.8174 59.0885 58.9461H59.0672C55.8721 59.0319 53.0631 61.0689 52.0016 64.0817V64.0924C50.3075 68.8741 44.5396 70.7503 40.3689 67.8661C37.7792 66.0977 34.3556 66.0055 31.6309 67.8661H31.6203C27.4497 70.7395 21.6815 68.8739 19.9982 64.0815C19.4787 62.611 18.5251 61.3328 17.2635 60.4159C16.002 59.4989 14.4919 58.9864 12.9328 58.946H12.9114C7.85094 58.8173 4.29129 53.9177 5.72804 49.0609L5.73871 49.0394C6.63911 45.9837 5.56699 42.6815 3.03693 40.741L3.01544 40.7304C-1.00515 37.6425 -1.00515 31.5957 3.01544 28.508L3.03693 28.4973C5.56699 26.5568 6.63911 23.2545 5.72804 20.1989V20.1774C4.28048 15.3207 7.8508 10.4209 12.9114 10.2923H12.9328C16.1171 10.2065 18.9368 8.1694 19.9982 5.15676V5.14609C21.6814 0.364375 27.4497 -1.51183 31.6203 1.37234H31.6309C34.2576 3.18424 37.7313 3.18424 40.3689 1.37234C44.5816 -1.53678 50.3175 0.393067 52.0016 5.14609V5.15676C53.0631 8.15873 55.872 10.2067 59.0672 10.2923H59.0885C64.1491 10.4209 67.7086 15.3207 66.272 20.1774L66.2613 20.1989C65.3606 23.2545 66.4327 26.5568 68.9631 28.4973L68.9846 28.508C73.0051 31.5957 73.0051 37.6426 68.9846 40.7305Z" fill="#32BA7C"/>
<path d="M35.8854 54.8304C46.9153 54.8304 55.8567 45.8889 55.8567 34.859C55.8567 23.8292 46.9153 14.8877 35.8854 14.8877C24.8555 14.8877 15.9141 23.8292 15.9141 34.859C15.9141 45.8889 24.8555 54.8304 35.8854 54.8304Z" fill="#32BA7C"/>
<path d="M28.5497 47.4602L28.5496 47.4601L22.0851 40.5764C20.5809 38.9744 20.6586 36.4556 22.2585 34.9503L22.2587 34.95C23.8578 33.4434 26.3747 33.5239 27.8774 35.1246L27.8775 35.1247L30.9634 38.4094L31.3412 38.8115L31.7043 38.3961L44.8215 23.3905L44.8217 23.3903C46.2655 21.7365 48.7773 21.5683 50.4317 23.0162C52.0845 24.464 52.2514 26.978 50.8055 28.6326L34.4381 47.355C34.438 47.3551 34.438 47.3551 34.4379 47.3552C32.8887 49.1253 30.1556 49.1712 28.5497 47.4602Z" fill="white" stroke="#32BA7C"/>
</svg>
