<svg width="24" height="24" viewBox="0 0 24 24" fill="none" xmlns="http://www.w3.org/2000/svg">
<g clip-path="url(#clip0_731_1084)">
<path d="M16.2958 5.05552C16.5704 4.78097 17.0156 4.78097 17.2902 5.05552C20.2071 7.97246 20.2071 12.7186 17.2902 15.6356C17.1529 15.7729 16.9729 15.8416 16.793 15.8416C16.7007 15.8417 16.6092 15.8235 16.5239 15.7882C16.4386 15.7528 16.3611 15.701 16.2959 15.6356C16.0213 15.361 16.0213 14.9158 16.2958 14.6412C18.6644 12.2726 18.6644 8.41847 16.2958 6.04988C16.0212 5.77529 16.0212 5.33011 16.2958 5.05552ZM16.2958 5.05552L16.3665 5.12623M16.2958 5.05552L16.3665 5.12624C16.3665 5.12623 16.3665 5.12623 16.3665 5.12623M16.3665 5.12623C16.131 5.36177 16.131 5.74363 16.3665 5.97917C18.7742 8.38681 18.7742 12.3042 16.3665 14.7119C16.131 14.9475 16.1311 15.3294 16.3666 15.5649L16.3667 15.565C16.4226 15.621 16.489 15.6655 16.5622 15.6958C16.6353 15.7261 16.7137 15.7416 16.7929 15.7416H16.793C16.9475 15.7416 17.1017 15.6827 17.2195 15.5649L17.2195 15.5649C20.0974 12.6869 20.0974 8.00411 17.2195 5.12623C16.984 4.89074 16.6021 4.89073 16.3665 5.12623ZM12.0001 16.5206H12.0002C13.4215 16.5201 14.7947 17.0355 15.8648 17.971C16.9239 18.8972 17.6163 20.1708 17.8147 21.557C17.827 21.6425 17.8207 21.7297 17.7963 21.8126C17.7719 21.8955 17.7299 21.9722 17.6733 22.0375C17.6167 22.1028 17.5467 22.1552 17.4681 22.1911C17.3895 22.227 17.3041 22.2455 17.2177 22.2456H6.78274C6.69632 22.2455 6.61091 22.227 6.53229 22.1911C6.45367 22.1552 6.38368 22.1028 6.32706 22.0375C6.27045 21.9722 6.22852 21.8955 6.20413 21.8126C6.17974 21.7297 6.17345 21.6425 6.18568 21.557C6.38403 20.1708 7.07644 18.8972 8.13557 17.971C9.20562 17.0355 10.5788 16.5201 12.0001 16.5206ZM7.5752 20.9073L7.53062 21.0393H7.66994H16.3304H16.4697L16.4251 20.9073C15.7967 19.0466 14.0222 17.7268 12.0002 17.7268C9.97808 17.7268 8.2036 19.0466 7.5752 20.9073ZM7.63378 5.97921L7.63378 5.97921C5.22608 8.38691 5.22608 12.3042 7.63378 14.7119C7.86932 14.9475 7.86931 15.3294 7.63378 15.5649L7.63378 15.5649C7.51603 15.6826 7.36184 15.7415 7.20733 15.7415C7.05281 15.7415 6.89862 15.6827 6.78084 15.5649C3.903 12.687 3.903 8.00412 6.78083 5.12628C7.01638 4.89078 7.39829 4.89079 7.63378 5.12628C7.86932 5.36182 7.86931 5.74372 7.63378 5.97921ZM9.13766 10.3456C9.13766 8.76728 10.4218 7.4831 12.0002 7.4831C13.5785 7.4831 14.8627 8.76724 14.8627 10.3456C14.8627 11.9238 13.5785 13.2081 12.0002 13.2081C10.4218 13.2081 9.13766 11.9239 9.13766 10.3456ZM10.3439 10.3456C10.3439 11.2589 11.0868 12.0018 12.0002 12.0018C12.9135 12.0018 13.6565 11.2589 13.6565 10.3456C13.6565 9.43227 12.9135 8.68935 12.0002 8.68935C11.0868 8.68935 10.3439 9.43223 10.3439 10.3456Z" fill="#282828" stroke="white" stroke-width="0.2"/>
<path d="M4.43834 2.78386L4.50905 2.85457L4.43834 2.78386C0.2688 6.95349 0.268847 13.7376 4.43834 17.9071C4.67388 18.1427 4.67387 18.5246 4.43834 18.7601L4.50905 18.8308L4.43834 18.7601C4.32059 18.8778 4.1664 18.9367 4.01189 18.9367H4.01176C3.93259 18.9368 3.85418 18.9213 3.78103 18.891C3.70789 18.8607 3.64145 18.8162 3.58553 18.7602L3.58545 18.7601C1.3377 16.5123 0.100046 13.5244 0.1 10.3455C0.0999535 7.16673 1.33765 4.17872 3.58535 1.93092C3.82089 1.69542 4.2028 1.69543 4.43829 1.93092C4.67383 2.16646 4.67383 2.54837 4.43834 2.78386ZM19.5618 18.7601L19.5617 18.76C19.3261 18.5245 19.3261 18.1426 19.5617 17.9071L19.491 17.8364L19.5617 17.9071C23.7312 13.7375 23.7312 6.95339 19.5617 2.78386C19.3261 2.54831 19.3261 2.16641 19.5617 1.93092C19.7972 1.69542 20.1791 1.69543 20.4146 1.93092C22.6623 4.17866 23.9 7.16673 23.9 10.3455C23.9 13.5243 22.6623 16.5123 20.4146 18.76C20.2968 18.8778 20.1426 18.9367 19.9881 18.9367H19.988C19.9088 18.9368 19.8304 18.9212 19.7572 18.8909C19.6841 18.8606 19.6177 18.8162 19.5618 18.7601Z" fill="#282828" stroke="white" stroke-width="0.2"/>
</g>
<defs>
<clipPath id="clip0_731_1084">
<rect width="24" height="24" fill="white"/>
</clipPath>
</defs>
</svg>
