<svg width="18" height="25" viewBox="0 0 18 25" fill="none" xmlns="http://www.w3.org/2000/svg">
<path d="M9.01752 0.20166C4.36508 0.20166 0.580017 3.98672 0.580017 8.63916C0.580017 10.2111 1.01544 11.7451 1.8395 13.076L8.53724 23.8693C8.60031 23.9709 8.68829 24.0548 8.79283 24.113C8.89737 24.1711 9.01502 24.2017 9.13466 24.2017L9.14024 24.2017C9.26081 24.2007 9.37911 24.1688 9.48377 24.1089C9.58844 24.0491 9.67595 23.9633 9.73789 23.8598L16.2649 12.962C17.0435 11.6592 17.455 10.1644 17.455 8.63916C17.455 3.98672 13.67 0.20166 9.01752 0.20166ZM15.0581 12.24L9.12402 22.1479L3.03472 12.3351C2.3488 11.2273 1.97689 9.94932 1.97689 8.63916C1.97689 4.76213 5.14049 1.59854 9.01752 1.59854C12.8945 1.59854 16.0535 4.76213 16.0535 8.63916C16.0535 9.91046 15.7061 11.1558 15.0581 12.24Z" fill="#ED2F51"/>
<path d="M9.01752 4.42041C6.6913 4.42041 4.79877 6.31294 4.79877 8.63916C4.79877 10.9505 6.6605 12.8579 9.01752 12.8579C11.4036 12.8579 13.2363 10.9251 13.2363 8.63916C13.2363 6.31294 11.3437 4.42041 9.01752 4.42041ZM9.01752 11.461C7.4586 11.461 6.19564 10.1939 6.19564 8.63916C6.19564 7.08835 7.4667 5.81729 9.01752 5.81729C10.5683 5.81729 11.8347 7.08835 11.8347 8.63916C11.8347 10.1712 10.6011 11.461 9.01752 11.461Z" fill="#ED2F51"/>
</svg>
