<svg width="17" height="16" viewBox="0 0 17 16" fill="none" xmlns="http://www.w3.org/2000/svg">
<path d="M8.5 0C4.08862 0 0.5 3.58862 0.5 8C0.5 12.4114 4.08862 16 8.5 16C12.9114 16 16.5 12.4114 16.5 8C16.5 3.58862 12.9114 0 8.5 0ZM12 8.66663H9.16663V11.5C9.16663 11.868 8.86803 12.1666 8.5 12.1666C8.13197 12.1666 7.83337 11.868 7.83337 11.5V8.66663H5C4.63197 8.66663 4.33337 8.36803 4.33337 8C4.33337 7.63197 4.63197 7.33337 5 7.33337H7.83337V4.5C7.83337 4.13197 8.13197 3.83337 8.5 3.83337C8.86803 3.83337 9.16663 4.13197 9.16663 4.5V7.33337H12C12.368 7.33337 12.6666 7.63197 12.6666 8C12.6666 8.36803 12.368 8.66663 12 8.66663Z" fill="#ED2F51"/>
</svg>
