<svg width="15" height="15" viewBox="0 0 15 15" fill="none" xmlns="http://www.w3.org/2000/svg">
    <g clip-path="url(#clip0_296_272)">
    <path d="M13.0078 9.28121L10.2598 8.10933C10.118 8.04578 9.96232 8.01943 9.80751 8.03275C9.6527 8.04608 9.50384 8.09865 9.375 8.18551L7.9043 9.16402C7.00796 8.72868 6.28224 8.00708 5.8418 7.11324L6.81445 5.62496C6.90073 5.49598 6.95342 5.3475 6.96774 5.19299C6.98207 5.03848 6.95757 4.88283 6.89648 4.74019L5.71875 1.99215C5.63657 1.80659 5.49741 1.65203 5.32147 1.55089C5.14553 1.44975 4.94194 1.40728 4.74023 1.42965C3.94898 1.5333 3.22229 1.92076 2.69527 2.51999C2.16825 3.11922 1.87676 3.88945 1.875 4.68746C1.875 9.3398 5.66016 13.125 10.3125 13.125C11.1105 13.1232 11.8807 12.8317 12.48 12.3047C13.0792 11.7777 13.4667 11.051 13.5703 10.2597C13.5927 10.058 13.5502 9.85443 13.4491 9.67849C13.3479 9.50254 13.1934 9.36339 13.0078 9.28121Z" fill="#6669F8"/>
    </g>
    <defs>
    <clipPath id="clip0_296_272">
    <rect width="15" height="15" fill="white"/>
    </clipPath>
    </defs>
    </svg>
    