<svg width="20" height="21" viewBox="0 0 20 21" fill="none" xmlns="http://www.w3.org/2000/svg">
    <g clip-path="url(#clip0_296_246)">
    <path d="M10 1.75C8.17727 1.75207 6.42979 2.47706 5.14092 3.76592C3.85206 5.05479 3.12707 6.80227 3.125 8.625C3.125 14.5078 9.375 18.9531 9.64063 19.1406C9.74708 19.2115 9.87211 19.2493 10 19.2493C10.1279 19.2493 10.2529 19.2115 10.3594 19.1406C10.625 18.9531 16.875 14.5078 16.875 8.625C16.8729 6.80227 16.1479 5.05479 14.8591 3.76592C13.5702 2.47706 11.8227 1.75207 10 1.75ZM10 6.125C10.4945 6.125 10.9778 6.27162 11.3889 6.54633C11.8 6.82103 12.1205 7.21148 12.3097 7.66829C12.4989 8.12511 12.5484 8.62777 12.452 9.11273C12.3555 9.59768 12.1174 10.0431 11.7678 10.3928C11.4181 10.7424 10.9727 10.9805 10.4877 11.077C10.0028 11.1734 9.50011 11.1239 9.04329 10.9347C8.58648 10.7455 8.19603 10.425 7.92133 10.0139C7.64662 9.6028 7.5 9.11945 7.5 8.625C7.5 7.96196 7.76339 7.32607 8.23223 6.85723C8.70107 6.38839 9.33696 6.125 10 6.125Z" fill="#6669F8"/>
    </g>
    <defs>
    <clipPath id="clip0_296_246">
    <rect width="20" height="20" fill="white" transform="translate(0 0.5)"/>
    </clipPath>
    </defs>
    </svg>
    