<svg width="79" height="14" viewBox="0 0 79 14" fill="none" xmlns="http://www.w3.org/2000/svg">
<path d="M3.49432 2.55764C3.91812 1.96643 4.48597 1.51906 5.19786 1.21551C5.9249 0.911954 6.75811 0.759833 7.69749 0.759148L7.69988 4.03183C7.30592 4.00181 7.04077 3.98685 6.9044 3.98695C5.88927 3.98769 5.09403 4.27615 4.51871 4.85232C3.94337 5.41334 3.65611 6.26202 3.65694 7.39837L3.66115 13.171L0.115748 13.1736L0.106827 0.946501L3.49314 0.94403L3.49432 2.55764ZM14.8401 13.3447C13.5522 13.3456 12.393 13.0813 11.3623 12.5518C10.3468 12.0071 9.55077 11.2576 8.97432 10.3035C8.39788 9.34942 8.10921 8.26632 8.10833 7.05421C8.10745 5.84211 8.39453 4.75858 8.96958 3.80363C9.54463 2.84868 10.3395 2.10569 11.3543 1.57465C12.3842 1.02845 13.5431 0.754882 14.8309 0.753943C16.1188 0.753003 17.2705 1.02489 18.286 1.56959C19.3015 2.09915 20.0975 2.84098 20.674 3.79509C21.2504 4.7492 21.5391 5.83231 21.54 7.04441C21.5408 8.25652 21.2538 9.34004 20.6787 10.295C20.1036 11.2499 19.3088 12.0005 18.294 12.5467C17.2793 13.0777 16.128 13.3437 14.8401 13.3447ZM14.838 10.4356C15.7471 10.435 16.4892 10.1314 17.0646 9.52492C17.655 8.90328 17.9498 8.07732 17.9491 7.04703C17.9483 6.01675 17.6523 5.19879 17.061 4.59317C16.4848 3.97239 15.7421 3.66233 14.833 3.66299C13.924 3.66365 13.1742 3.9748 12.5837 4.59644C11.9933 5.20292 11.6984 6.02131 11.6992 7.05159C11.6999 8.08188 11.996 8.90741 12.5873 9.52818C13.1787 10.1338 13.9289 10.4363 14.838 10.4356ZM29.0507 13.3343C27.7628 13.3352 26.6035 13.0709 25.5728 12.5414C24.5573 11.9967 23.7613 11.2473 23.1849 10.2932C22.6084 9.33906 22.3198 8.25595 22.3189 7.04384C22.318 5.83174 22.6051 4.74821 23.1801 3.79326C23.7552 2.83831 24.5501 2.09532 25.5648 1.56428C26.5947 1.01808 27.7536 0.744514 29.0415 0.743574C30.3293 0.742634 31.481 1.01452 32.4966 1.55922C33.5121 2.08878 34.3081 2.83061 34.8845 3.78472C35.461 4.73883 35.7496 5.82194 35.7505 7.03404C35.7514 8.24615 35.4643 9.32968 34.8893 10.2846C34.3142 11.2396 33.5193 11.9901 32.5046 12.5363C31.4898 13.0674 30.3385 13.3334 29.0507 13.3343ZM29.0485 10.4253C29.9576 10.4246 30.6998 10.121 31.2751 9.51455C31.8656 8.89291 32.1604 8.06695 32.1596 7.03666C32.1589 6.00638 31.8628 5.18842 31.2715 4.5828C30.6953 3.96202 29.9527 3.65196 29.0436 3.65262C28.1345 3.65329 27.3847 3.96443 26.7943 4.58607C26.2038 5.19255 25.909 6.01094 25.9097 7.04122C25.9105 8.07151 26.2065 8.89704 26.7979 9.51781C27.3892 10.1234 28.1394 10.4259 29.0485 10.4253ZM49.2373 0.910653L44.0872 13.1415L40.4282 13.1442L35.283 0.920835L38.942 0.918165L42.3344 9.23376L45.8283 0.91314L49.2373 0.910653ZM55.4965 13.315C54.2086 13.3159 53.0493 13.0516 52.0187 12.5221C51.0031 11.9774 50.2071 11.228 49.6307 10.2739C49.0542 9.31976 48.7656 8.23665 48.7647 7.02455C48.7638 5.81245 49.0509 4.72892 49.6259 3.77397C50.201 2.81901 50.9959 2.07602 52.0107 1.54498C53.0405 0.998787 54.1994 0.725218 55.4873 0.724278C56.7751 0.723339 57.9268 0.995221 58.9424 1.53993C59.9579 2.06948 60.7539 2.81131 61.3303 3.76543C61.9068 4.71954 62.1954 5.80265 62.1963 7.01475C62.1972 8.22685 61.9101 9.31038 61.3351 10.2653C60.76 11.2203 59.9651 11.9709 58.9504 12.517C57.9356 13.0481 56.7843 13.3141 55.4965 13.315ZM55.4943 10.406C56.4034 10.4053 57.1456 10.1017 57.7209 9.49525C58.3114 8.87362 58.6062 8.04766 58.6055 7.01737C58.6047 5.98708 58.3087 5.16913 57.7173 4.56351C57.1411 3.94272 56.3985 3.63266 55.4894 3.63333C54.5803 3.63399 53.8306 3.94514 53.2401 4.56677C52.6497 5.17326 52.3548 5.99164 52.3556 7.02193C52.3563 8.05222 52.6524 8.87775 53.2437 9.49852C53.8351 10.1041 54.5853 10.4066 55.4943 10.406ZM64.0108 13.2099C63.7675 13.2101 63.5573 13.1218 63.3803 12.945C63.2143 12.7682 63.1312 12.5526 63.131 12.2982C63.1308 12.0439 63.2136 11.8337 63.3793 11.6677C63.5561 11.4907 63.7662 11.4021 64.0095 11.4019C64.2527 11.4017 64.4629 11.49 64.64 11.6668C64.817 11.8326 64.9056 12.0426 64.9058 12.297C64.906 12.5513 64.8177 12.767 64.6409 12.9441C64.4641 13.1211 64.2541 13.2097 64.0108 13.2099ZM66.9057 4.39989L68.0834 4.39903L68.0898 13.124L66.9121 13.1249L66.9057 4.39989ZM67.5015 2.4919C67.2582 2.49208 67.0535 2.40929 66.8876 2.24354C66.7216 2.07778 66.6385 1.87879 66.6383 1.64657C66.6381 1.42541 66.7209 1.23183 66.8867 1.06583C67.0524 0.899835 67.257 0.816748 67.5002 0.816571C67.7435 0.816393 67.9482 0.899181 68.1142 1.06493C68.2801 1.21963 68.3632 1.40756 68.3634 1.62872C68.3636 1.87201 68.2808 2.07665 68.115 2.24264C67.9493 2.40863 67.7448 2.49172 67.5015 2.4919ZM75.3081 4.3274C76.4029 4.32661 77.2712 4.64666 77.913 5.28757C78.5659 5.91742 78.8928 6.84055 78.8937 8.05696L78.8974 13.1161L77.7197 13.117L77.7161 8.17393C77.7154 7.26715 77.4882 6.57617 77.0345 6.101C76.5807 5.62582 75.9337 5.38854 75.0932 5.38916C74.1533 5.38984 73.407 5.67237 72.8545 6.23675C72.3131 6.79006 72.0427 7.5588 72.0434 8.54299L72.0468 13.1211L70.8691 13.122L70.8627 4.397L71.9907 4.39618L71.9918 6.00515C72.3121 5.47412 72.7542 5.06464 73.3179 4.77672C73.8927 4.47772 74.5561 4.32795 75.3081 4.3274Z" fill="white"/>
</svg>
