<svg width="57" height="10" viewBox="0 0 57 10" fill="none" xmlns="http://www.w3.org/2000/svg">
<g opacity="0.5">
<path d="M3.0764 1.47377C3.37912 1.05148 3.78472 0.731925 4.29322 0.515107C4.81253 0.298281 5.40768 0.189623 6.07867 0.189134L6.08037 2.52676C5.79898 2.50532 5.60958 2.49464 5.51218 2.49471C4.78708 2.49524 4.21905 2.70128 3.80811 3.11283C3.39715 3.51355 3.19197 4.11976 3.19256 4.93143L3.19557 9.05475L0.663135 9.0566L0.656763 0.322957L3.07556 0.321192L3.0764 1.47377ZM11.1805 9.17879C10.2606 9.17946 9.43258 8.99068 8.69638 8.61243C7.971 8.22335 7.40244 7.68806 6.99069 7.00655C6.57894 6.32505 6.37275 5.5514 6.37212 4.68561C6.37149 3.81982 6.57655 3.04587 6.9873 2.36376C7.39805 1.68166 7.96584 1.15095 8.69066 0.771634C9.4263 0.381493 10.2541 0.186087 11.174 0.185416C12.0939 0.184745 12.9165 0.378947 13.6419 0.768022C14.3673 1.14628 14.9358 1.67616 15.3476 2.35766C15.7593 3.03917 15.9655 3.81282 15.9661 4.67861C15.9668 5.5444 15.7617 6.31835 15.351 7.00045C14.9402 7.68256 14.3724 8.21868 13.6476 8.60882C12.9228 8.98813 12.1004 9.17812 11.1805 9.17879ZM11.179 7.1009C11.8284 7.10043 12.3585 6.88359 12.7694 6.4504C13.1912 6.00637 13.4018 5.4164 13.4012 4.68048C13.4007 3.94456 13.1892 3.36031 12.7669 2.92772C12.3553 2.48431 11.8248 2.26283 11.1755 2.26331C10.5261 2.26378 9.9906 2.48603 9.56885 2.93006C9.14709 3.36326 8.93648 3.94782 8.93702 4.68374C8.93756 5.41966 9.14902 6.00932 9.57142 6.45273C9.99381 6.88532 10.5297 7.10137 11.179 7.1009ZM21.3309 9.17139C20.411 9.17206 19.583 8.98327 18.8468 8.60502C18.1214 8.21595 17.5528 7.68066 17.1411 6.99915C16.7293 6.31764 16.5231 5.54399 16.5225 4.6782C16.5219 3.81242 16.7269 3.03847 17.1377 2.35636C17.5484 1.67425 18.1162 1.14354 18.8411 0.764228C19.5767 0.374087 20.4045 0.178681 21.3244 0.17801C22.2443 0.177339 23.0669 0.371541 23.7923 0.760616C24.5177 1.13887 25.0862 1.66875 25.498 2.35026C25.9097 3.03177 26.1159 3.80542 26.1165 4.6712C26.1172 5.53699 25.9121 6.31094 25.5014 6.99305C25.0906 7.67516 24.5228 8.21128 23.798 8.60141C23.0732 8.98072 22.2508 9.17071 21.3309 9.17139ZM21.3294 7.09349C21.9787 7.09302 22.5089 6.87619 22.9198 6.44299C23.3416 5.99897 23.5522 5.40899 23.5516 4.67307C23.5511 3.93715 23.3396 3.3529 22.9172 2.92032C22.5057 2.4769 21.9752 2.25543 21.3259 2.2559C20.6765 2.25638 20.141 2.47862 19.7192 2.92265C19.2975 3.35585 19.0869 3.94041 19.0874 4.67633C19.088 5.41225 19.2994 6.00192 19.7218 6.44532C20.1442 6.87791 20.6801 7.09397 21.3294 7.09349ZM35.75 0.297352L32.0713 9.03368L29.4577 9.03559L25.7826 0.304624L28.3962 0.302718L30.8193 6.24243L33.3149 0.299129L35.75 0.297352ZM40.2208 9.1576C39.3009 9.15827 38.4728 8.96949 37.7366 8.59124C37.0113 8.20217 36.4427 7.66687 36.031 6.98537C35.6192 6.30386 35.413 5.53021 35.4124 4.66442C35.4118 3.79863 35.6168 3.02468 36.0276 2.34258C36.4383 1.66047 37.0061 1.12976 37.7309 0.750446C38.4666 0.360304 39.2943 0.164898 40.2142 0.164227C41.1341 0.163556 41.9568 0.357758 42.6822 0.746833C43.4075 1.12509 43.9761 1.65497 44.3878 2.33648C44.7996 3.01798 45.0058 3.79163 45.0064 4.65742C45.007 5.52321 44.802 6.29716 44.3912 6.97927C43.9805 7.66137 43.4127 8.19749 42.6879 8.58763C41.9631 8.96694 41.1407 9.15693 40.2208 9.1576ZM40.2193 7.07971C40.8686 7.07924 41.3988 6.8624 41.8097 6.42921C42.2314 5.98518 42.442 5.39521 42.4415 4.65929C42.441 3.92337 42.2295 3.33912 41.8071 2.90653C41.3955 2.46312 40.8651 2.24164 40.2157 2.24212C39.5664 2.24259 39.0309 2.46484 38.6091 2.90887C38.1874 3.34207 37.9767 3.92663 37.9773 4.66255C37.9778 5.39847 38.1893 5.98813 38.6117 6.43154C39.0341 6.86413 39.5699 7.08018 40.2193 7.07971ZM46.3024 9.08254C46.1287 9.08266 45.9785 9.01958 45.8521 8.8933C45.7335 8.767 45.6741 8.61302 45.674 8.43135C45.6739 8.24968 45.733 8.09956 45.8514 7.98099C45.9777 7.85452 46.1277 7.79122 46.3015 7.79109C46.4753 7.79096 46.6254 7.85404 46.7519 7.98033C46.8783 8.09872 46.9416 8.24875 46.9418 8.43042C46.9419 8.61209 46.8788 8.76617 46.7525 8.89264C46.6262 9.01911 46.4762 9.08241 46.3024 9.08254ZM48.3703 2.78966L49.2115 2.78905L49.216 9.02117L48.3748 9.02178L48.3703 2.78966ZM48.7958 1.42681C48.622 1.42694 48.4759 1.36781 48.3573 1.24941C48.2387 1.13102 48.1794 0.988882 48.1793 0.823007C48.1791 0.665032 48.2383 0.526761 48.3567 0.408192C48.4751 0.289625 48.6211 0.230277 48.7949 0.230151C48.9687 0.230024 49.1149 0.289158 49.2334 0.407553C49.352 0.518049 49.4113 0.652285 49.4114 0.81026C49.4116 0.984033 49.3524 1.1302 49.234 1.24877C49.1157 1.36734 48.9696 1.42669 48.7958 1.42681ZM54.372 2.73789C55.1539 2.73732 55.7742 2.96593 56.2326 3.42372C56.699 3.87361 56.9325 4.53299 56.9331 5.40185L56.9357 9.01554L56.0945 9.01615L56.0919 5.48541C56.0915 4.83771 55.9292 4.34415 55.6051 4.00474C55.281 3.66533 54.8188 3.49584 54.2185 3.49628C53.5471 3.49677 53.0141 3.69858 52.6194 4.10171C52.2327 4.49693 52.0396 5.04603 52.0401 5.74902L52.0425 9.01911L51.2012 9.01972L51.1967 2.7876L52.0024 2.78701L52.0032 3.93628C52.232 3.55697 52.5477 3.26449 52.9504 3.05883C53.361 2.84526 53.8348 2.73828 54.372 2.73789Z" fill="#C4C4C4"/>
</g>
</svg>
