<svg width="20" height="19" viewBox="0 0 20 19" fill="none" xmlns="http://www.w3.org/2000/svg">
<path d="M18.1966 0.0268555H1.78034C1.21822 0.0271438 0.76249 0.483124 0.762634 1.04542V17.4617C0.762923 18.0238 1.2189 18.4796 1.7812 18.4794H18.1966C18.7591 18.4796 19.2151 18.0237 19.2152 17.4613V1.04456C19.2149 0.482439 18.7589 0.0267113 18.1966 0.0268555Z" fill="#FFFC01"/>
<mask id="path-2-inside-1_197_737" fill="white">
<path d="M10.0933 17.0214C10.0507 17.0214 10.0089 17.0201 9.96679 17.018C9.93931 17.0203 9.91173 17.0214 9.88415 17.0213C8.90361 17.0213 8.27431 16.5766 7.66555 16.1461C7.24533 15.8492 6.8486 15.5687 6.38148 15.491C6.15356 15.4532 5.92633 15.4343 5.70742 15.4343C5.31195 15.4343 5.00056 15.4953 4.77279 15.5396C4.63468 15.5669 4.51528 15.59 4.42464 15.59C4.32975 15.59 4.22739 15.5696 4.18263 15.4171C4.14389 15.2849 4.11603 15.1574 4.08885 15.0334C4.0193 14.7152 3.97003 14.5194 3.83672 14.499C2.28151 14.2588 1.83605 13.9309 1.73694 13.6986C1.72314 13.6655 1.71471 13.632 1.71316 13.5992C1.71063 13.556 1.72422 13.5135 1.7513 13.4797C1.77837 13.446 1.817 13.4235 1.8597 13.4166C4.25031 13.023 5.3224 10.5793 5.36713 10.4755C5.36814 10.4729 5.36954 10.4699 5.3708 10.4673C5.51724 10.1706 5.54581 9.91313 5.45625 9.70194C5.29238 9.31562 4.75715 9.14573 4.4028 9.03339C4.31634 9.00579 4.23413 8.97987 4.16926 8.9541C3.46237 8.67465 3.40366 8.38816 3.43152 8.24188C3.47898 7.9927 3.81167 7.81913 4.08096 7.81913C4.15459 7.81913 4.2195 7.83235 4.27428 7.85798C4.59244 8.00682 4.87864 8.08226 5.12627 8.08226C5.46793 8.08226 5.61717 7.93882 5.6352 7.91979C5.62633 7.75804 5.61577 7.58908 5.60467 7.4145C5.53356 6.28446 5.44501 4.87972 5.80289 4.07812C6.87465 1.6751 9.14727 1.48827 9.81841 1.48827C9.83557 1.48827 10.1126 1.48535 10.1126 1.48535H10.1523C10.8247 1.48535 13.1026 1.67229 14.175 4.07686C14.5326 4.87875 14.4441 6.28461 14.3728 7.41382L14.3699 7.46323C14.3599 7.62018 14.3503 7.7731 14.3423 7.9195C14.3595 7.93698 14.4967 8.06903 14.8062 8.08096H14.8064C15.0421 8.07195 15.3124 7.9968 15.6093 7.85798C15.6962 7.81714 15.793 7.8086 15.8585 7.8086C15.9594 7.8086 16.0609 7.82814 16.1456 7.86335L16.1509 7.86558C16.3908 7.95089 16.5482 8.11873 16.5517 8.29468C16.5549 8.46039 16.4283 8.70928 15.8084 8.95425C15.7441 8.97973 15.6618 9.00564 15.5747 9.03354C15.2202 9.14587 14.6852 9.31577 14.5212 9.70223C14.4318 9.91324 14.4602 10.1705 14.6068 10.4671C14.6081 10.4701 14.6095 10.4727 14.6108 10.4757C14.6551 10.5794 15.726 13.0226 18.1182 13.4165C18.1608 13.4236 18.1993 13.4461 18.2263 13.4798C18.2533 13.5135 18.267 13.556 18.2646 13.5991C18.2624 13.6336 18.2541 13.6674 18.2401 13.699C18.1413 13.9296 17.6967 14.2571 16.1412 14.4974C16.0139 14.5168 15.9645 14.6827 15.8886 15.03C15.8611 15.1563 15.8333 15.2805 15.7949 15.4109C15.7618 15.5244 15.6913 15.5774 15.5722 15.5774H15.553C15.4705 15.5774 15.3535 15.5624 15.205 15.5333C14.9415 15.4819 14.6462 15.4345 14.2705 15.4345C14.051 15.4345 13.8241 15.4533 13.5959 15.4912C13.1291 15.569 12.7329 15.8488 12.3133 16.1454C11.7035 16.5766 11.0742 17.0213 10.0933 17.0213"/>
</mask>
<path d="M10.0933 17.0214C10.0507 17.0214 10.0089 17.0201 9.96679 17.018C9.93931 17.0203 9.91173 17.0214 9.88415 17.0213C8.90361 17.0213 8.27431 16.5766 7.66555 16.1461C7.24533 15.8492 6.8486 15.5687 6.38148 15.491C6.15356 15.4532 5.92633 15.4343 5.70742 15.4343C5.31195 15.4343 5.00056 15.4953 4.77279 15.5396C4.63468 15.5669 4.51528 15.59 4.42464 15.59C4.32975 15.59 4.22739 15.5696 4.18263 15.4171C4.14389 15.2849 4.11603 15.1574 4.08885 15.0334C4.0193 14.7152 3.97003 14.5194 3.83672 14.499C2.28151 14.2588 1.83605 13.9309 1.73694 13.6986C1.72314 13.6655 1.71471 13.632 1.71316 13.5992C1.71063 13.556 1.72422 13.5135 1.7513 13.4797C1.77837 13.446 1.817 13.4235 1.8597 13.4166C4.25031 13.023 5.3224 10.5793 5.36713 10.4755C5.36814 10.4729 5.36954 10.4699 5.3708 10.4673C5.51724 10.1706 5.54581 9.91313 5.45625 9.70194C5.29238 9.31562 4.75715 9.14573 4.4028 9.03339C4.31634 9.00579 4.23413 8.97987 4.16926 8.9541C3.46237 8.67465 3.40366 8.38816 3.43152 8.24188C3.47898 7.9927 3.81167 7.81913 4.08096 7.81913C4.15459 7.81913 4.2195 7.83235 4.27428 7.85798C4.59244 8.00682 4.87864 8.08226 5.12627 8.08226C5.46793 8.08226 5.61717 7.93882 5.6352 7.91979C5.62633 7.75804 5.61577 7.58908 5.60467 7.4145C5.53356 6.28446 5.44501 4.87972 5.80289 4.07812C6.87465 1.6751 9.14727 1.48827 9.81841 1.48827C9.83557 1.48827 10.1126 1.48535 10.1126 1.48535H10.1523C10.8247 1.48535 13.1026 1.67229 14.175 4.07686C14.5326 4.87875 14.4441 6.28461 14.3728 7.41382L14.3699 7.46323C14.3599 7.62018 14.3503 7.7731 14.3423 7.9195C14.3595 7.93698 14.4967 8.06903 14.8062 8.08096H14.8064C15.0421 8.07195 15.3124 7.9968 15.6093 7.85798C15.6962 7.81714 15.793 7.8086 15.8585 7.8086C15.9594 7.8086 16.0609 7.82814 16.1456 7.86335L16.1509 7.86558C16.3908 7.95089 16.5482 8.11873 16.5517 8.29468C16.5549 8.46039 16.4283 8.70928 15.8084 8.95425C15.7441 8.97973 15.6618 9.00564 15.5747 9.03354C15.2202 9.14587 14.6852 9.31577 14.5212 9.70223C14.4318 9.91324 14.4602 10.1705 14.6068 10.4671C14.6081 10.4701 14.6095 10.4727 14.6108 10.4757C14.6551 10.5794 15.726 13.0226 18.1182 13.4165C18.1608 13.4236 18.1993 13.4461 18.2263 13.4798C18.2533 13.5135 18.267 13.556 18.2646 13.5991C18.2624 13.6336 18.2541 13.6674 18.2401 13.699C18.1413 13.9296 17.6967 14.2571 16.1412 14.4974C16.0139 14.5168 15.9645 14.6827 15.8886 15.03C15.8611 15.1563 15.8333 15.2805 15.7949 15.4109C15.7618 15.5244 15.6913 15.5774 15.5722 15.5774H15.553C15.4705 15.5774 15.3535 15.5624 15.205 15.5333C14.9415 15.4819 14.6462 15.4345 14.2705 15.4345C14.051 15.4345 13.8241 15.4533 13.5959 15.4912C13.1291 15.569 12.7329 15.8488 12.3133 16.1454C11.7035 16.5766 11.0742 17.0213 10.0933 17.0213" fill="white"/>
<path d="M9.96679 17.018L9.98697 16.6185L9.95986 16.6171L9.93281 16.6194L9.96679 17.018ZM9.88415 17.0213L9.8854 16.6213H9.88415V17.0213ZM7.66555 16.1461L7.89651 15.8195L7.89637 15.8194L7.66555 16.1461ZM6.38148 15.491L6.44711 15.0965L6.447 15.0964L6.38148 15.491ZM4.77279 15.5396L4.69631 15.147L4.69517 15.1472L4.77279 15.5396ZM4.18263 15.4171L3.79878 15.5296L3.79883 15.5298L4.18263 15.4171ZM4.08885 15.0334L3.69808 15.1188L3.69813 15.119L4.08885 15.0334ZM3.83672 14.499L3.77567 14.8943L3.77622 14.8944L3.83672 14.499ZM1.73694 13.6986L1.36777 13.8526L1.36904 13.8556L1.73694 13.6986ZM1.71316 13.5992L2.11274 13.5803L2.11248 13.5759L1.71316 13.5992ZM1.8597 13.4166L1.92333 13.8115L1.92468 13.8113L1.8597 13.4166ZM5.36713 10.4755L5.73446 10.6339L5.73804 10.6256L5.74124 10.6171L5.36713 10.4755ZM5.3708 10.4673L5.01208 10.2902L5.00921 10.2962L5.3708 10.4673ZM5.45625 9.70194L5.82451 9.54577L5.82449 9.54573L5.45625 9.70194ZM4.4028 9.03339L4.28113 9.41444L4.28192 9.41469L4.4028 9.03339ZM4.16926 8.9541L4.31693 8.58236L4.31632 8.58212L4.16926 8.9541ZM3.43152 8.24188L3.03858 8.16703L3.03858 8.16705L3.43152 8.24188ZM4.27428 7.85798L4.44378 7.49567L4.44376 7.49566L4.27428 7.85798ZM5.6352 7.91979L5.92563 8.19482L6.04402 8.06981L6.0346 7.89789L5.6352 7.91979ZM5.60467 7.4145L5.20546 7.43962L5.20548 7.43989L5.60467 7.4145ZM5.80289 4.07812L6.16814 4.24119L6.1682 4.24105L5.80289 4.07812ZM10.1126 1.48535V1.08533L10.1084 1.08537L10.1126 1.48535ZM14.175 4.07686L14.5403 3.91395L14.5403 3.91393L14.175 4.07686ZM14.3728 7.41382L13.9736 7.38864L13.9736 7.38994L14.3728 7.41382ZM14.3699 7.46323L14.7691 7.48871L14.7692 7.48711L14.3699 7.46323ZM14.3423 7.9195L13.9429 7.89757L13.9332 8.074L14.0571 8.19998L14.3423 7.9195ZM14.8062 8.08096L14.7908 8.48066L14.7985 8.48096H14.8062V8.08096ZM14.8064 8.08096V8.48096H14.8141L14.8217 8.48067L14.8064 8.08096ZM15.6093 7.85798L15.7787 8.22032L15.7795 8.21997L15.6093 7.85798ZM16.1456 7.86335L16.2992 7.49405L16.2992 7.49404L16.1456 7.86335ZM16.1509 7.86558L15.9973 8.23488L16.007 8.23893L16.0169 8.24246L16.1509 7.86558ZM16.5517 8.29468L16.9516 8.28685L16.9516 8.28673L16.5517 8.29468ZM15.8084 8.95425L15.6614 8.58224L15.6611 8.58236L15.8084 8.95425ZM15.5747 9.03354L15.6955 9.41485L15.6966 9.41449L15.5747 9.03354ZM14.5212 9.70223L14.153 9.54598L14.1529 9.54622L14.5212 9.70223ZM14.6068 10.4671L14.9747 10.3101L14.9704 10.2999L14.9654 10.2899L14.6068 10.4671ZM14.6108 10.4757L14.9786 10.3185L14.977 10.3149L14.6108 10.4757ZM18.1182 13.4165L18.1839 13.0219L18.1832 13.0218L18.1182 13.4165ZM18.2646 13.5991L18.6638 13.6245L18.664 13.6208L18.2646 13.5991ZM18.2401 13.699L17.8744 13.5369L17.8724 13.5415L18.2401 13.699ZM16.1412 14.4974L16.2016 14.8928L16.2023 14.8927L16.1412 14.4974ZM15.8886 15.03L15.4978 14.9446L15.4978 14.9447L15.8886 15.03ZM15.7949 15.4109L15.4112 15.2979L15.4109 15.299L15.7949 15.4109ZM15.205 15.5333L15.282 15.1408L15.2815 15.1407L15.205 15.5333ZM13.5959 15.4912L13.5304 15.0966L13.5301 15.0966L13.5959 15.4912ZM12.3133 16.1454L12.0824 15.8188L12.0824 15.8188L12.3133 16.1454ZM10.0933 16.6214C10.0588 16.6214 10.0239 16.6203 9.98697 16.6185L9.94661 17.4174C9.99385 17.4198 10.0426 17.4214 10.0933 17.4214V16.6214ZM9.93281 16.6194C9.91704 16.6207 9.90123 16.6214 9.8854 16.6213L9.8829 17.4213C9.92224 17.4215 9.96157 17.4198 10.0008 17.4165L9.93281 16.6194ZM9.88415 16.6213C9.04278 16.6213 8.5067 16.251 7.89651 15.8195L7.4346 16.4727C8.04192 16.9022 8.76443 17.4213 9.88415 17.4213V16.6213ZM7.89637 15.8194C7.49303 15.5344 7.02084 15.1919 6.44711 15.0965L6.31584 15.8856C6.67636 15.9456 6.99762 16.164 7.43474 16.4728L7.89637 15.8194ZM6.447 15.0964C6.19819 15.0551 5.94904 15.0343 5.70742 15.0343V15.8343C5.90362 15.8343 6.10894 15.8513 6.31596 15.8856L6.447 15.0964ZM5.70742 15.0343C5.27044 15.0343 4.92649 15.1022 4.69631 15.147L4.84926 15.9322C5.07463 15.8883 5.35346 15.8343 5.70742 15.8343V15.0343ZM4.69517 15.1472C4.54298 15.1773 4.46732 15.19 4.42464 15.19V15.99C4.56325 15.99 4.72639 15.9565 4.85041 15.932L4.69517 15.1472ZM4.42464 15.19C4.39782 15.19 4.43267 15.185 4.48062 15.2119C4.50746 15.227 4.53035 15.2474 4.54693 15.2697C4.56253 15.2907 4.56673 15.3054 4.56644 15.3045L3.79883 15.5298C3.84509 15.6874 3.93906 15.8254 4.08906 15.9096C4.22309 15.9848 4.35657 15.99 4.42464 15.99V15.19ZM4.56649 15.3046C4.53226 15.1878 4.50717 15.0736 4.47958 14.9477L3.69813 15.119C3.72489 15.2411 3.75552 15.382 3.79878 15.5296L4.56649 15.3046ZM4.47962 14.9479C4.44699 14.7987 4.41032 14.6324 4.35644 14.5019C4.30613 14.38 4.18264 14.1472 3.89722 14.1036L3.77622 14.8944C3.70871 14.884 3.65824 14.8493 3.63015 14.8192C3.60872 14.7963 3.60733 14.7838 3.61695 14.8071C3.62569 14.8283 3.63718 14.8632 3.65172 14.9191C3.66603 14.9742 3.68068 15.0392 3.69808 15.1188L4.47962 14.9479ZM3.89777 14.1036C3.13674 13.9861 2.67543 13.851 2.40289 13.7301C2.1222 13.6057 2.09609 13.5211 2.10485 13.5416L1.36904 13.8556C1.47691 14.1084 1.72308 14.3039 2.0787 14.4615C2.44247 14.6228 2.98149 14.7716 3.77567 14.8943L3.89777 14.1036ZM2.1061 13.5446C2.10659 13.5458 2.11166 13.5581 2.11271 13.5803L1.3136 13.6181C1.31775 13.7059 1.33969 13.7853 1.36778 13.8526L2.1061 13.5446ZM2.11248 13.5759C2.11573 13.6316 2.09819 13.6866 2.06325 13.7301L1.43935 13.2294C1.35026 13.3404 1.30553 13.4805 1.31384 13.6226L2.11248 13.5759ZM2.06325 13.7301C2.02831 13.7736 1.97845 13.8027 1.92333 13.8115L1.79606 13.0217C1.65554 13.0444 1.52843 13.1184 1.43935 13.2294L2.06325 13.7301ZM1.92468 13.8113C3.24642 13.5937 4.1899 12.8114 4.79783 12.0965C5.40618 11.3812 5.70405 10.7044 5.73446 10.6339L4.9998 10.3172C4.98548 10.3504 4.72495 10.9474 4.18841 11.5782C3.65147 12.2096 2.86359 12.846 1.79471 13.0219L1.92468 13.8113ZM5.74124 10.6171C5.73762 10.6267 5.73449 10.6337 5.73338 10.6361C5.73229 10.6385 5.73134 10.6405 5.7324 10.6383L5.00921 10.2962C5.00901 10.2966 5.00672 10.3015 5.00436 10.3067C5.00199 10.3119 4.99765 10.3217 4.99301 10.334L5.74124 10.6171ZM5.72948 10.6443C5.90418 10.2904 5.97666 9.90455 5.82451 9.54577L5.088 9.8581C5.11497 9.92171 5.13029 10.0508 5.01213 10.2902L5.72948 10.6443ZM5.82449 9.54573C5.68974 9.22806 5.41889 9.03321 5.18765 8.91117C4.95239 8.78701 4.69594 8.70671 4.52368 8.65209L4.28192 9.41469C4.464 9.47241 4.65235 9.53323 4.81426 9.61868C4.98019 9.70625 5.0589 9.7895 5.08802 9.85814L5.82449 9.54573ZM4.52447 8.65235C4.43205 8.62284 4.36581 8.60178 4.31693 8.58236L4.02159 9.32585C4.10245 9.35797 4.20063 9.38873 4.28113 9.41444L4.52447 8.65235ZM4.31632 8.58212C3.99544 8.45526 3.87605 8.34688 3.83759 8.29866C3.81198 8.26654 3.83199 8.27716 3.82446 8.31671L3.03858 8.16705C3.00319 8.35288 3.03863 8.57989 3.21213 8.79745C3.37278 8.9989 3.63619 9.17349 4.0222 9.32609L4.31632 8.58212ZM3.82445 8.31672C3.81905 8.34511 3.81117 8.32115 3.88065 8.27897C3.94488 8.23997 4.02411 8.21913 4.08096 8.21913V7.41913C3.86852 7.41913 3.64676 7.48506 3.46546 7.59515C3.2894 7.70204 3.09146 7.88946 3.03858 8.16703L3.82445 8.31672ZM4.08096 8.21913C4.10729 8.21913 4.11242 8.22386 4.1048 8.2203L4.44376 7.49566C4.32658 7.44085 4.20189 7.41913 4.08096 7.41913V8.21913ZM4.10478 8.22029C4.4552 8.38422 4.80077 8.48226 5.12627 8.48226V7.68226C4.95651 7.68226 4.72969 7.62942 4.44378 7.49567L4.10478 8.22029ZM5.12627 8.48226C5.59394 8.48226 5.84394 8.28109 5.92563 8.19482L5.34476 7.64475C5.36602 7.6223 5.36447 7.63103 5.3335 7.64542C5.30428 7.65901 5.23911 7.68226 5.12627 7.68226V8.48226ZM6.0346 7.89789C6.02563 7.73424 6.01497 7.56376 6.00386 7.38912L5.20548 7.43989C5.21657 7.61441 5.22703 7.78183 5.23579 7.94168L6.0346 7.89789ZM6.00388 7.38938C5.96812 6.82105 5.92956 6.20483 5.9428 5.6324C5.95626 5.05059 6.02316 4.56593 6.16814 4.24119L5.43764 3.91505C5.22474 4.39192 5.15698 5.01042 5.14302 5.6139C5.12884 6.22675 5.17011 6.87791 5.20546 7.43962L6.00388 7.38938ZM6.1682 4.24105C7.13953 2.06323 9.1915 1.88827 9.81841 1.88827V1.08827C9.10305 1.08827 6.60978 1.28698 5.43758 3.91519L6.1682 4.24105ZM9.81841 1.88827C9.8297 1.88827 9.90676 1.8875 9.97605 1.88679C10.0118 1.88643 10.047 1.88606 10.0733 1.88579C10.0864 1.88565 10.0973 1.88553 10.1049 1.88546C10.1087 1.88542 10.1117 1.88538 10.1137 1.88536C10.1148 1.88535 10.1155 1.88534 10.1161 1.88534C10.1163 1.88534 10.1165 1.88533 10.1167 1.88533C10.1167 1.88533 10.1168 1.88533 10.1168 1.88533C10.1168 1.88533 10.1168 1.88533 10.1168 1.88533C10.1169 1.88533 10.1169 1.88533 10.1169 1.88533C10.1169 1.88533 10.1169 1.88533 10.1126 1.48535C10.1084 1.08537 10.1084 1.08537 10.1084 1.08537C10.1084 1.08537 10.1084 1.08537 10.1084 1.08537C10.1084 1.08537 10.1084 1.08537 10.1084 1.08537C10.1083 1.08537 10.1083 1.08538 10.1082 1.08538C10.1081 1.08538 10.1079 1.08538 10.1076 1.08538C10.1071 1.08539 10.1063 1.0854 10.1053 1.08541C10.1033 1.08543 10.1003 1.08546 10.0965 1.0855C10.0889 1.08558 10.078 1.08569 10.0649 1.08583C10.0387 1.0861 10.0035 1.08647 9.96788 1.08683C9.93219 1.0872 9.89604 1.08756 9.86777 1.08783C9.85362 1.08797 9.84154 1.08808 9.83252 1.08816C9.82242 1.08825 9.81838 1.08827 9.81841 1.08827V1.88827ZM10.1126 1.88535H10.1523V1.08535H10.1126V1.88535ZM10.1523 1.88535C10.7809 1.88535 12.8378 2.06063 13.8097 4.23979L14.5403 3.91393C13.3674 1.28395 10.8685 1.08535 10.1523 1.08535V1.88535ZM13.8097 4.23977C13.9546 4.56469 14.0214 5.04976 14.0348 5.63181C14.048 6.20445 14.0095 6.82077 13.9736 7.38864L14.7721 7.43899C14.8075 6.87765 14.8488 6.22644 14.8346 5.61338C14.8207 5.00972 14.753 4.39092 14.5403 3.91395L13.8097 4.23977ZM13.9736 7.38994L13.9706 7.43935L14.7692 7.48711L14.7721 7.4377L13.9736 7.38994ZM13.9707 7.43775C13.9607 7.59487 13.951 7.74928 13.9429 7.89757L14.7417 7.94142C14.7496 7.79692 14.7591 7.6455 14.7691 7.48871L13.9707 7.43775ZM14.0571 8.19998C14.1297 8.27378 14.3587 8.464 14.7908 8.48066L14.8216 7.68125C14.7232 7.67746 14.666 7.65548 14.6401 7.64287C14.6138 7.63002 14.6112 7.62249 14.6275 7.63902L14.0571 8.19998ZM14.8062 8.48096H14.8064V7.68096H14.8062V8.48096ZM14.8217 8.48067C15.1273 8.46898 15.4512 8.3735 15.7787 8.22032L15.4399 7.49563C15.1737 7.62011 14.9569 7.67491 14.7912 7.68125L14.8217 8.48067ZM15.7795 8.21997C15.7819 8.21885 15.7909 8.21535 15.808 8.21249C15.8245 8.20972 15.8423 8.2086 15.8585 8.2086V7.4086C15.7672 7.4086 15.6027 7.41911 15.4391 7.49599L15.7795 8.21997ZM15.8585 8.2086C15.9113 8.2086 15.96 8.2194 15.9919 8.23265L16.2992 7.49404C16.1618 7.43688 16.0076 7.4086 15.8585 7.4086V8.2086ZM15.9919 8.23265L15.9973 8.23488L16.3046 7.49628L16.2992 7.49405L15.9919 8.23265ZM16.0169 8.24246C16.0872 8.26745 16.1287 8.29897 16.1478 8.31933C16.1668 8.33967 16.1524 8.33527 16.1518 8.30262L16.9516 8.28673C16.9433 7.86976 16.5968 7.59961 16.285 7.4887L16.0169 8.24246ZM16.1518 8.3025C16.1511 8.26613 16.1702 8.27064 16.1248 8.31809C16.0709 8.37439 15.9423 8.47122 15.6614 8.58224L15.9554 9.32625C16.6112 9.06709 16.9601 8.71894 16.9516 8.28685L16.1518 8.3025ZM15.6611 8.58236C15.6125 8.60162 15.5462 8.62266 15.4527 8.65258L15.6966 9.41449C15.7774 9.38862 15.8757 9.35784 15.9557 9.32614L15.6611 8.58236ZM15.4538 8.65222C15.2815 8.70685 15.025 8.78715 14.7898 8.91135C14.5585 9.03345 14.2878 9.22834 14.153 9.54598L14.8894 9.85847C14.9186 9.78965 14.9974 9.70636 15.1633 9.61882C15.3251 9.53337 15.5134 9.47256 15.6955 9.41485L15.4538 8.65222ZM14.1529 9.54622C14.0011 9.90468 14.0732 10.2902 14.2482 10.6443L14.9654 10.2899C14.8473 10.0507 14.8626 9.9218 14.8895 9.85824L14.1529 9.54622ZM14.2389 10.6241C14.2412 10.6295 14.2433 10.634 14.2448 10.6373C14.2462 10.6404 14.2475 10.643 14.2479 10.6438C14.2485 10.6452 14.2481 10.6443 14.2477 10.6434C14.2471 10.6422 14.246 10.6398 14.2445 10.6365L14.977 10.3149C14.975 10.3101 14.9731 10.3062 14.9719 10.3036C14.9708 10.3013 14.9697 10.299 14.9697 10.299C14.9694 10.2984 14.97 10.2996 14.9708 10.3013C14.9716 10.3031 14.973 10.3062 14.9747 10.3101L14.2389 10.6241ZM14.243 10.6328C14.2736 10.7046 14.5712 11.3813 15.1793 12.0964C15.7872 12.8112 16.7308 13.5934 18.0532 13.8112L18.1832 13.0218C17.1135 12.8457 16.3255 12.2093 15.7888 11.5782C15.2523 10.9473 14.9923 10.3505 14.9786 10.3185L14.243 10.6328ZM18.0526 13.8111C17.9981 13.802 17.9488 13.7731 17.9142 13.73L18.5384 13.2296C18.4498 13.1191 18.3236 13.0452 18.1839 13.0219L18.0526 13.8111ZM17.9142 13.73C17.8797 13.6869 17.8622 13.6326 17.8652 13.5774L18.664 13.6208C18.6717 13.4794 18.627 13.3401 18.5384 13.2296L17.9142 13.73ZM17.8654 13.5737C17.8662 13.561 17.8693 13.5485 17.8744 13.5369L18.6058 13.8612C18.639 13.7863 18.6586 13.7062 18.6638 13.6245L17.8654 13.5737ZM17.8724 13.5415C17.8815 13.5202 17.8557 13.6045 17.575 13.7288C17.3026 13.8494 16.8413 13.9845 16.0801 14.1021L16.2023 14.8927C16.9966 14.77 17.5354 14.6212 17.8988 14.4603C18.2539 14.3031 18.4999 14.1084 18.6078 13.8566L17.8724 13.5415ZM16.0808 14.102C15.8129 14.1429 15.6864 14.348 15.6285 14.482C15.5726 14.6112 15.534 14.779 15.4978 14.9446L16.2794 15.1154C16.2981 15.0297 16.3138 14.9616 16.3286 14.9063C16.3438 14.8498 16.3551 14.8172 16.3628 14.7995C16.3711 14.7802 16.3672 14.7972 16.3415 14.8229C16.3085 14.8559 16.2588 14.8841 16.2016 14.8928L16.0808 14.102ZM15.4978 14.9447C15.4703 15.0708 15.4452 15.1826 15.4112 15.2979L16.1786 15.5239C16.2215 15.3784 16.2518 15.2417 16.2794 15.1153L15.4978 14.9447ZM15.4109 15.299C15.4109 15.2989 15.4242 15.2553 15.4762 15.2164C15.528 15.1776 15.5731 15.1774 15.5722 15.1774V15.9774C15.6904 15.9774 15.8302 15.9506 15.9554 15.857C16.0807 15.7632 16.1458 15.6365 16.1789 15.5229L15.4109 15.299ZM15.5722 15.1774H15.553V15.9774H15.5722V15.1774ZM15.553 15.1774C15.5097 15.1774 15.4229 15.1684 15.282 15.1408L15.1279 15.9258C15.2842 15.9564 15.4313 15.9774 15.553 15.9774V15.1774ZM15.2815 15.1407C15.0057 15.0869 14.6824 15.0345 14.2705 15.0345V15.8345C14.6101 15.8345 14.8772 15.8769 15.1284 15.9259L15.2815 15.1407ZM14.2705 15.0345C14.0283 15.0345 13.7795 15.0552 13.5304 15.0966L13.6614 15.8858C13.8687 15.8514 14.0737 15.8345 14.2705 15.8345V15.0345ZM13.5301 15.0966C12.9569 15.1922 12.4855 15.5338 12.0824 15.8188L12.5442 16.472C12.9803 16.1637 13.3014 15.9458 13.6617 15.8857L13.5301 15.0966ZM12.0824 15.8188C11.4711 16.251 10.935 16.6213 10.0933 16.6213V17.4213C11.2133 17.4213 11.9359 16.9022 12.5443 16.472L12.0824 15.8188Z" fill="black" mask="url(#path-2-inside-1_197_737)"/>
<path d="M10.1523 1.66037C10.7889 1.66037 12.9817 1.83142 14.015 4.14801C14.3554 4.91062 14.2681 6.29254 14.1982 7.40258C14.1868 7.57885 14.1764 7.74947 14.1676 7.91266L14.1637 7.98247L14.2109 8.03483C14.2294 8.05581 14.4063 8.24051 14.7996 8.25587L14.8062 8.25616L14.8126 8.25587C15.0726 8.24588 15.3656 8.16533 15.6841 8.01627C15.7306 7.99429 15.7931 7.98373 15.8591 7.98373C15.9343 7.98373 16.0143 7.99768 16.08 8.02553L16.09 8.0295C16.2567 8.08778 16.3747 8.19817 16.3766 8.29782C16.3777 8.35458 16.3353 8.55731 15.7441 8.79085C15.6861 8.8138 15.61 8.83802 15.5217 8.86574C15.1368 8.98792 14.5556 9.17222 14.3598 9.63285C14.2499 9.89288 14.2796 10.1995 14.4496 10.5441C14.5196 10.7067 15.6174 13.1813 18.0896 13.5887C18.089 13.6002 18.0859 13.6132 18.0793 13.6283C18.0376 13.7271 17.7711 14.0678 16.1141 14.3233C15.8546 14.3634 15.7913 14.6542 15.7175 14.992C15.6913 15.1127 15.6637 15.2345 15.6267 15.3609C15.6154 15.399 15.6135 15.4014 15.5724 15.4014H15.5528C15.4796 15.4014 15.3677 15.3861 15.2383 15.3609C15.0033 15.3148 14.6816 15.2585 14.2703 15.2585C14.041 15.2585 13.8044 15.2787 13.5672 15.3179C13.0601 15.4022 12.6476 15.6941 12.2108 16.0024C11.6246 16.4174 11.0181 16.8458 10.0933 16.8458C10.0535 16.8458 10.0137 16.8446 9.974 16.8424L9.96376 16.8427L9.9532 16.8433C9.93068 16.8454 9.90772 16.8463 9.88422 16.8463C8.95929 16.8463 8.3528 16.4179 7.76672 16.0033C7.32987 15.6944 6.91736 15.4028 6.41052 15.3182C6.17334 15.2791 5.93681 15.2588 5.70749 15.2588C5.29613 15.2588 4.97429 15.3214 4.7392 15.3675C4.60996 15.3929 4.4983 15.4146 4.42482 15.4146C4.36499 15.4146 4.36387 15.4112 4.35119 15.3678C4.31407 15.2415 4.28657 15.1163 4.26055 14.9955C4.18663 14.6575 4.12269 14.3654 3.86382 14.3251C2.20651 14.0693 1.9406 13.7281 1.89836 13.6295C1.89266 13.6168 1.88927 13.6031 1.88835 13.5891C4.3602 13.1817 5.45845 10.7076 5.52826 10.5443C5.6979 10.1997 5.72817 9.89346 5.61782 9.63329C5.42227 9.17233 4.84115 8.98809 4.45596 8.86588C4.36766 8.83802 4.29165 8.81395 4.23377 8.79114C3.734 8.59345 3.58054 8.39513 3.60393 8.27446C3.6301 8.13564 3.87113 7.99429 4.08103 7.99429C4.12821 7.99429 4.16958 8.00164 4.2 8.01627C4.54141 8.17593 4.85323 8.25713 5.12623 8.25713C5.55572 8.25713 5.74735 8.05725 5.76746 8.03429L5.8142 7.98232L5.81024 7.91276C5.80166 7.74975 5.79085 7.57939 5.77971 7.4033C5.70976 6.29279 5.62276 4.91202 5.96287 4.14912C6.99214 1.841 9.17412 1.66307 9.81834 1.66307C9.83423 1.66307 10.1144 1.66037 10.1144 1.66037H10.1523ZM10.1523 1.31013H10.1103C10.1103 1.31013 9.83946 1.3128 9.81791 1.3128C9.12075 1.3128 6.75745 1.50734 5.64272 4.0068C5.26769 4.84769 5.35736 6.27607 5.42958 7.4237C5.43816 7.55885 5.44717 7.69937 5.45481 7.83521C5.39707 7.86703 5.29176 7.90674 5.12605 7.90674C4.90476 7.90674 4.64319 7.83719 4.34852 7.69894C4.27039 7.66261 4.18014 7.64405 4.08074 7.64405C3.73584 7.64405 3.32318 7.87099 3.25928 8.20898C3.21282 8.45254 3.32195 8.80789 4.10467 9.11705C4.1752 9.14519 4.26011 9.17194 4.34993 9.20008C4.67331 9.30287 5.16209 9.45802 5.29501 9.77056C5.36356 9.9326 5.33609 10.1409 5.21349 10.3896C5.21076 10.3952 5.20824 10.4009 5.20592 10.4067C5.16281 10.5067 4.12821 12.8654 1.83108 13.2435C1.74579 13.2576 1.66872 13.3027 1.61465 13.3701C1.56057 13.4376 1.5333 13.5226 1.53807 13.609C1.54106 13.6623 1.55371 13.715 1.57526 13.7664C1.74786 14.1693 2.47501 14.4649 3.7992 14.6703C3.84367 14.73 3.88973 14.9415 3.91788 15.0703C3.94548 15.1976 3.97392 15.3285 4.01457 15.4669C4.05429 15.6029 4.15801 15.7651 4.42442 15.7651C4.53225 15.7651 4.65951 15.7401 4.80619 15.7114C5.02694 15.6682 5.32921 15.6093 5.70734 15.6093C5.9171 15.6093 6.13449 15.6275 6.35311 15.6637C6.78026 15.7348 7.14362 15.9917 7.5637 16.2886C8.16582 16.7145 8.84778 17.1962 9.88408 17.1962C9.91251 17.1962 9.94109 17.1957 9.96949 17.1933C10.003 17.1949 10.0468 17.1962 10.0933 17.1962C11.1298 17.1962 11.8118 16.7145 12.4134 16.289C12.8346 15.9914 13.1975 15.7347 13.6245 15.6637C13.8433 15.6275 14.0607 15.6093 14.2703 15.6093C14.6313 15.6093 14.9165 15.655 15.171 15.7048C15.3308 15.7362 15.459 15.7521 15.5528 15.7521H15.5724C15.7693 15.7521 15.9081 15.6481 15.963 15.4595C16.0032 15.324 16.0316 15.1964 16.0597 15.0671C16.0879 14.9385 16.1337 14.7282 16.1777 14.6685C17.5025 14.4632 18.2296 14.1683 18.402 13.7669C18.4236 13.7167 18.4364 13.6631 18.4397 13.6086C18.4446 13.5223 18.4173 13.4372 18.3633 13.3698C18.3092 13.3023 18.232 13.2573 18.1467 13.2434C15.8486 12.8646 14.8146 10.5064 14.7719 10.4065C14.7695 10.4007 14.7668 10.3951 14.764 10.3896C14.6415 10.1407 14.6142 9.93256 14.6829 9.77056C14.8155 9.45802 15.3043 9.30301 15.6277 9.20052C15.7181 9.17168 15.803 9.14436 15.8729 9.11705C16.4458 8.89068 16.7331 8.61288 16.7274 8.29108C16.7223 8.03822 16.5256 7.81283 16.2126 7.70121L16.2118 7.70092C16.1066 7.65713 15.9818 7.63334 15.8596 7.63334C15.7758 7.63334 15.6518 7.64459 15.5359 7.69894C15.2635 7.82663 15.0185 7.89619 14.8075 7.90545C14.6673 7.89914 14.5758 7.86379 14.5235 7.83495C14.5302 7.71865 14.5376 7.59871 14.5454 7.4734L14.5483 7.42471C14.6209 6.27647 14.7108 4.84697 14.3356 4.00554C13.2198 1.50468 10.8515 1.31006 10.1523 1.31006" fill="#030303"/>
</svg>
