<svg width="14" height="17" viewBox="0 0 14 17" fill="none" xmlns="http://www.w3.org/2000/svg">
<path d="M7 14.625C6.0111 14.625 5.0444 14.3318 4.22215 13.7824C3.39991 13.2329 2.75904 12.4521 2.3806 11.5384C2.00217 10.6248 1.90315 9.61946 2.09608 8.64955C2.289 7.67965 2.76521 6.78873 3.46447 6.08947C4.16373 5.39021 5.05465 4.914 6.02455 4.72108C6.99446 4.52815 7.99979 4.62717 8.91342 5.0056C9.82705 5.38404 10.6079 6.02491 11.1574 6.84715C11.7068 7.6694 12 8.6361 12 9.625C11.9985 10.9506 11.4713 12.2215 10.5339 13.1589C9.59653 14.0963 8.32563 14.6235 7 14.625ZM7 5.875C6.25832 5.875 5.5333 6.09494 4.91661 6.50699C4.29993 6.91905 3.81928 7.50472 3.53545 8.18994C3.25163 8.87516 3.17736 9.62916 3.32206 10.3566C3.46675 11.084 3.8239 11.7522 4.34835 12.2767C4.8728 12.8011 5.54098 13.1583 6.26841 13.3029C6.99584 13.4476 7.74984 13.3734 8.43507 13.0896C9.12029 12.8057 9.70596 12.3251 10.118 11.7084C10.5301 11.0917 10.75 10.3667 10.75 9.625C10.749 8.63075 10.3536 7.67749 9.65056 6.97445C8.94751 6.2714 7.99426 5.87599 7 5.875Z" fill="#83808B"/>
<path d="M8.875 10.25H7C6.83424 10.25 6.67527 10.1842 6.55806 10.0669C6.44085 9.94973 6.375 9.79076 6.375 9.625V7.125C6.375 6.95924 6.44085 6.80027 6.55806 6.68306C6.67527 6.56585 6.83424 6.5 7 6.5C7.16576 6.5 7.32473 6.56585 7.44194 6.68306C7.55915 6.80027 7.625 6.95924 7.625 7.125V9H8.875C9.04076 9 9.19973 9.06585 9.31694 9.18306C9.43415 9.30027 9.5 9.45924 9.5 9.625C9.5 9.79076 9.43415 9.94973 9.31694 10.0669C9.19973 10.1842 9.04076 10.25 8.875 10.25ZM7 4C6.83424 4 6.67527 3.93415 6.55806 3.81694C6.44085 3.69973 6.375 3.54076 6.375 3.375V2.125C6.375 1.95924 6.44085 1.80027 6.55806 1.68306C6.67527 1.56585 6.83424 1.5 7 1.5C7.16576 1.5 7.32473 1.56585 7.44194 1.68306C7.55915 1.80027 7.625 1.95924 7.625 2.125V3.375C7.625 3.54076 7.55915 3.69973 7.44194 3.81694C7.32473 3.93415 7.16576 4 7 4Z" fill="#83808B"/>
<path d="M8.25 2.125H5.75C5.58424 2.125 5.42527 2.05915 5.30806 1.94194C5.19085 1.82473 5.125 1.66576 5.125 1.5C5.125 1.33424 5.19085 1.17527 5.30806 1.05806C5.42527 0.940848 5.58424 0.875 5.75 0.875H8.25C8.41576 0.875 8.57473 0.940848 8.69194 1.05806C8.80915 1.17527 8.875 1.33424 8.875 1.5C8.875 1.66576 8.80915 1.82473 8.69194 1.94194C8.57473 2.05915 8.41576 2.125 8.25 2.125ZM12 4C11.8343 3.99996 11.6753 3.93409 11.5581 3.81687L10.9331 3.19187C10.8193 3.074 10.7563 2.91612 10.7577 2.75225C10.7591 2.58838 10.8249 2.43162 10.9407 2.31574C11.0566 2.19986 11.2134 2.13413 11.3772 2.1327C11.5411 2.13128 11.699 2.19428 11.8169 2.30813L12.4419 2.93313C12.5261 3.02173 12.5827 3.13284 12.605 3.253C12.6273 3.37316 12.6143 3.49721 12.5676 3.61012C12.5208 3.72303 12.4423 3.81996 12.3415 3.88916C12.2408 3.95836 12.1222 3.99686 12 4Z" fill="#83808B"/>
<path d="M11.3369 4.29674L11.8169 3.81674C11.8766 3.75909 11.9242 3.69012 11.9569 3.61387C11.9897 3.53762 12.0069 3.45561 12.0077 3.37262C12.0084 3.28963 11.9926 3.20733 11.9611 3.13052C11.9297 3.05371 11.8833 2.98393 11.8246 2.92525C11.7659 2.86656 11.6962 2.82015 11.6193 2.78873C11.5425 2.7573 11.4602 2.74149 11.3772 2.74221C11.2943 2.74293 11.2122 2.76017 11.136 2.79293C11.0597 2.82568 10.9908 2.8733 10.9331 2.93299L10.3081 3.55799C10.2987 3.56737 10.2963 3.57924 10.2875 3.58862C9.27915 3.03825 8.14877 2.74984 7 2.74984C5.85123 2.74984 4.72085 3.03825 3.7125 3.58862C3.70375 3.57924 3.70125 3.56737 3.69188 3.55799L3.06688 2.93299C2.949 2.81914 2.79112 2.75615 2.62725 2.75757C2.46338 2.759 2.30662 2.82473 2.19074 2.94061C2.07486 3.05649 2.00913 3.21324 2.0077 3.37712C2.00628 3.54099 2.06928 3.69887 2.18313 3.81674L2.66313 4.29674C1.56131 5.1925 0.763894 6.40745 0.380428 7.77469C-0.00303747 9.14192 0.046263 10.5944 0.521556 11.9324C0.99685 13.2705 1.87482 14.4286 3.03483 15.2476C4.19485 16.0666 5.58001 16.5063 7 16.5063C8.41999 16.5063 9.80515 16.0666 10.9652 15.2476C12.1252 14.4286 13.0032 13.2705 13.4784 11.9324C13.9537 10.5944 14.003 9.14192 13.6196 7.77469C13.2361 6.40745 12.4387 5.1925 11.3369 4.29674ZM7 15.2499C5.88748 15.2499 4.79994 14.92 3.87492 14.3019C2.94989 13.6838 2.22892 12.8053 1.80318 11.7775C1.37744 10.7496 1.26604 9.61863 1.48308 8.52748C1.70013 7.43634 2.23585 6.43406 3.02252 5.64739C3.8092 4.86072 4.81147 4.32499 5.90262 4.10795C6.99376 3.89091 8.12476 4.0023 9.15259 4.42805C10.1804 4.85379 11.0589 5.57476 11.677 6.49978C12.2951 7.42481 12.625 8.51235 12.625 9.62487C12.6233 11.1162 12.0302 12.546 10.9756 13.6005C9.92111 14.6551 8.49134 15.2482 7 15.2499Z" fill="#83808B"/>
<path d="M2.00005 3.99987C1.87787 3.99673 1.75923 3.95823 1.6585 3.88903C1.55776 3.81983 1.47926 3.7229 1.43249 3.60999C1.38573 3.49708 1.37271 3.37303 1.39501 3.25287C1.41732 3.13271 1.474 3.0216 1.55817 2.93299L2.18317 2.30799C2.24082 2.2483 2.30979 2.20068 2.38604 2.16793C2.4623 2.13517 2.54431 2.11793 2.62729 2.11721C2.71028 2.11649 2.79258 2.1323 2.86939 2.16373C2.9462 2.19515 3.01598 2.24156 3.07467 2.30025C3.13335 2.35893 3.17976 2.42871 3.21118 2.50552C3.24261 2.58233 3.25842 2.66463 3.2577 2.74762C3.25698 2.83061 3.23974 2.91262 3.20698 2.98887C3.17423 3.06512 3.12661 3.13409 3.06692 3.19174L2.44192 3.81674C2.32474 3.93396 2.16579 3.99983 2.00005 3.99987Z" fill="#83808B"/>
</svg>
