<svg width="19" height="19" viewBox="0 0 19 19" fill="none" xmlns="http://www.w3.org/2000/svg">
<path d="M9.5 7.94727C8.62763 7.94727 7.91797 8.65693 7.91797 9.5293C7.91797 10.4017 8.62763 11.1113 9.5 11.1113C10.3724 11.1113 11.082 10.4017 11.082 9.5293C11.082 8.65693 10.3724 7.94727 9.5 7.94727Z" fill="#83808B"/>
<path d="M9.5 0.529297C4.55668 0.529297 0.5 4.58598 0.5 9.5293C0.5 14.4726 4.55668 18.5293 9.5 18.5293C14.4433 18.5293 18.5 14.4726 18.5 9.5293C18.5 4.58598 14.4433 0.529297 9.5 0.529297ZM15.3008 10.0566C15.3008 11.22 14.3548 12.166 13.1914 12.166C12.4787 12.166 11.8501 11.8088 11.4682 11.2662C10.9846 11.8134 10.2859 12.166 9.5 12.166C8.04618 12.166 6.86328 10.9831 6.86328 9.5293C6.86328 8.07548 8.04618 6.89258 9.5 6.89258C10.0958 6.89258 10.64 7.09877 11.082 7.43339V7.41992H12.1367V9.5293C12.1367 9.70986 12.1181 9.88617 12.0834 10.0566H12.1367C12.1367 10.6381 12.61 11.1113 13.1914 11.1113C13.7728 11.1113 14.2461 10.6381 14.2461 10.0566V9.5293C14.2461 6.91216 12.1171 4.7832 9.5 4.7832C6.88286 4.7832 4.75391 6.91216 4.75391 9.5293C4.75391 12.1464 6.88286 14.2754 9.5 14.2754C10.5547 14.2754 11.5522 13.9376 12.385 13.2979L13.0276 14.1343C12.0085 14.9165 10.789 15.3301 9.5 15.3301C6.30145 15.3301 3.69922 12.7278 3.69922 9.5293C3.69922 6.33075 6.30145 3.72852 9.5 3.72852C12.6986 3.72852 15.3008 6.33075 15.3008 9.5293V10.0566Z" fill="#83808B"/>
</svg>
