<svg width="18" height="19" viewBox="0 0 18 19" fill="none" xmlns="http://www.w3.org/2000/svg">
<g clip-path="url(#clip0_808_4611)">
<path d="M9 13.1562C10.5533 13.1562 11.8125 11.8971 11.8125 10.3438C11.8125 8.79045 10.5533 7.53125 9 7.53125C7.4467 7.53125 6.1875 8.79045 6.1875 10.3438C6.1875 11.8971 7.4467 13.1562 9 13.1562Z" stroke="white" stroke-linecap="round" stroke-linejoin="round"/>
<path d="M13.7812 8.65626C14.4364 8.65516 15.0827 8.80717 15.6687 9.10015C16.2546 9.39314 16.764 9.81899 17.1562 10.3438" stroke="white" stroke-linecap="round" stroke-linejoin="round"/>
<path d="M0.84375 10.3438C1.23595 9.81899 1.74535 9.39314 2.33132 9.10015C2.91729 8.80717 3.56362 8.65516 4.21875 8.65626" stroke="white" stroke-linecap="round" stroke-linejoin="round"/>
<path d="M4.94922 15.6875C5.31964 14.9289 5.89568 14.2896 6.61172 13.8424C7.32776 13.3952 8.155 13.1581 8.99922 13.1581C9.84343 13.1581 10.6707 13.3952 11.3867 13.8424C12.1028 14.2896 12.6788 14.9289 13.0492 15.6875" stroke="white" stroke-linecap="round" stroke-linejoin="round"/>
<path d="M4.21713 8.65625C3.79008 8.65668 3.37173 8.53557 3.01095 8.30708C2.65017 8.07858 2.36188 7.75213 2.17974 7.36586C1.99761 6.9796 1.92916 6.54948 1.9824 6.12577C2.03563 5.70205 2.20835 5.30223 2.48038 4.97303C2.7524 4.64383 3.11249 4.39884 3.51858 4.26669C3.92467 4.13454 4.35998 4.12069 4.77365 4.22675C5.18732 4.33281 5.56226 4.5544 5.85467 4.86564C6.14707 5.17687 6.34487 5.5649 6.42494 5.98437" stroke="white" stroke-linecap="round" stroke-linejoin="round"/>
<path d="M11.5742 5.98437C11.6543 5.5649 11.8521 5.17687 12.1445 4.86564C12.4369 4.5544 12.8118 4.33281 13.2255 4.22675C13.6392 4.12069 14.0745 4.13454 14.4806 4.26669C14.8867 4.39884 15.2468 4.64383 15.5188 4.97303C15.7908 5.30223 15.9635 5.70205 16.0168 6.12577C16.07 6.54948 16.0015 6.9796 15.8194 7.36586C15.6373 7.75213 15.349 8.07858 14.9882 8.30708C14.6274 8.53557 14.2091 8.65668 13.782 8.65625" stroke="white" stroke-linecap="round" stroke-linejoin="round"/>
</g>
<defs>
<clipPath id="clip0_808_4611">
<rect width="18" height="18" fill="white" transform="translate(0 0.5)"/>
</clipPath>
</defs>
</svg>
