<svg width="19" height="19" viewBox="0 0 19 19" fill="none" xmlns="http://www.w3.org/2000/svg">
<circle cx="9.5" cy="9.5293" r="9" fill="#83808B"/>
<path d="M13.5 5.0293H5.5C5.21667 5.0293 5 5.24596 5 5.5293V6.86263C5 7.14596 5.21667 7.36263 5.5 7.36263C5.78333 7.36263 6 7.14596 6 6.86263V6.0293H9V14.0293H8C7.71667 14.0293 7.5 14.246 7.5 14.5293C7.5 14.8126 7.71667 15.0293 8 15.0293H11C11.2833 15.0293 11.5 14.8126 11.5 14.5293C11.5 14.246 11.2833 14.0293 11 14.0293H10V6.0293H13V6.86263C13 7.14596 13.2167 7.36263 13.5 7.36263C13.7833 7.36263 14 7.14596 14 6.86263V5.5293C14 5.24596 13.7833 5.0293 13.5 5.0293Z" fill="white"/>
</svg>
