<svg width="20" height="21" viewBox="0 0 20 21" fill="none" xmlns="http://www.w3.org/2000/svg">
<path d="M18.4211 0.0361328L1.57895 0.0361328C0.706919 0.0361328 0 0.743052 0 1.61508L2.71115e-10 18.4572C2.83949e-10 19.3292 0.706919 20.0361 1.57895 20.0361L18.4211 20.0361C19.2931 20.0361 20 19.3292 20 18.4572L20 1.61508C20 0.743052 19.2931 0.0361328 18.4211 0.0361328Z" fill="#03A9F4"/>
<path d="M16.4776 6.01898C15.9904 6.23177 15.475 6.37314 14.9474 6.43872C15.5036 6.10889 15.9193 5.58637 16.1158 4.97029C15.5952 5.27929 15.0256 5.4969 14.4316 5.61371C14.0676 5.22444 13.5949 4.9537 13.0749 4.83673C12.555 4.71975 12.0118 4.76194 11.5162 4.95781C11.0206 5.15368 10.5953 5.49417 10.2958 5.93499C9.99631 6.37581 9.83638 6.89656 9.83683 7.4295C9.83496 7.63293 9.85571 7.83593 9.89868 8.03477C8.84206 7.98287 7.80828 7.70865 6.86486 7.23002C5.92144 6.7514 5.0896 6.07913 4.42367 5.25714C4.08138 5.84188 3.97534 6.53528 4.12721 7.1956C4.27909 7.85593 4.67742 8.43332 5.24078 8.80977C4.82028 8.79843 4.40869 8.68606 4.04078 8.48214L4.04078 8.51108C4.04196 9.12401 4.25412 9.71785 4.64158 10.1928C5.02905 10.6677 5.5682 10.9948 6.16841 11.119C5.94127 11.1787 5.7072 11.2079 5.47236 11.2058C5.30326 11.2089 5.13431 11.1939 4.96841 11.1611C5.14037 11.6882 5.47143 12.1491 5.91605 12.4804C6.36067 12.8117 6.89701 12.9971 7.45131 13.0111C6.512 13.7453 5.35404 14.1441 4.16183 14.144C3.94941 14.1458 3.7371 14.1335 3.52631 14.1071C4.74193 14.8909 6.15889 15.305 7.60525 15.2992C12.4934 15.2992 15.1658 11.2506 15.1658 7.74135C15.1658 7.62424 15.1658 7.51108 15.1566 7.39793C15.677 7.02232 16.1247 6.55504 16.4776 6.01898Z" fill="white"/>
</svg>
