<svg width="21" height="15" viewBox="0 0 21 15" fill="none" xmlns="http://www.w3.org/2000/svg">
<path d="M19.531 2.28062L7.53104 14.2806C7.46139 14.3503 7.37867 14.4057 7.28762 14.4434C7.19657 14.4812 7.09898 14.5006 7.00042 14.5006C6.90185 14.5006 6.80426 14.4812 6.71321 14.4434C6.62216 14.4057 6.53945 14.3503 6.46979 14.2806L1.21979 9.03061C1.07906 8.88988 1 8.69901 1 8.49999C1 8.30097 1.07906 8.11009 1.21979 7.96936C1.36052 7.82863 1.55139 7.74957 1.75042 7.74957C1.94944 7.74957 2.14031 7.82863 2.28104 7.96936L7.00042 12.6897L18.4698 1.21936C18.6105 1.07863 18.8014 0.999573 19.0004 0.999573C19.1994 0.999573 19.3903 1.07863 19.531 1.21936C19.6718 1.36009 19.7508 1.55097 19.7508 1.74999C19.7508 1.94901 19.6718 2.13988 19.531 2.28062Z" fill="white" stroke="white"/>
</svg>
