<svg width="21" height="21" viewBox="0 0 21 21" fill="none" xmlns="http://www.w3.org/2000/svg">
<path d="M16.4373 19.7032C12.1691 20.1585 7.8646 20.1585 3.59641 19.7032C2.76756 19.6156 1.99376 19.2466 1.40401 18.6577C0.814258 18.0688 0.444189 17.2955 0.355499 16.4668C-0.0998635 12.1986 -0.0998635 7.89408 0.355499 3.62589C0.443026 2.79704 0.812009 2.02324 1.40094 1.43349C1.98986 0.843738 2.76314 0.473669 3.59186 0.384979C7.86005 -0.0703835 12.1646 -0.0703835 16.4328 0.384979C17.2616 0.472506 18.0354 0.841489 18.6252 1.43042C19.2149 2.01934 19.585 2.79262 19.6737 3.62134C20.129 7.88953 20.129 12.1941 19.6737 16.4622C19.5862 17.2911 19.2172 18.0649 18.6282 18.6546C18.0393 19.2444 17.266 19.6145 16.4373 19.7032Z" fill="#E60000"/>
<path d="M15.9725 7.03728C15.7225 6.26796 14.8953 5.80205 14.1339 5.69524C11.3954 5.40432 8.63378 5.40432 5.89527 5.69524C5.13391 5.80205 4.30436 6.26342 4.05664 7.03728C3.66687 9.02326 3.66687 11.0661 4.05664 13.0521C4.30664 13.8202 5.13391 14.2873 5.89527 14.3941C8.63378 14.685 11.3954 14.685 14.1339 14.3941C14.8953 14.2873 15.7248 13.8259 15.9725 13.0521C16.3623 11.0661 16.3623 9.02326 15.9725 7.03728ZM8.51914 12.4396L8.51914 7.64864L12.4191 10.0441C11.1044 10.8521 9.82823 11.635 8.51914 12.4396Z" fill="white"/>
</svg>
