<svg width="18" height="20" viewBox="0 0 18 20" fill="none" xmlns="http://www.w3.org/2000/svg">
<path d="M16.6556 9.46942C16.7254 9.53908 16.7807 9.62179 16.8184 9.71284C16.8562 9.80389 16.8756 9.90149 16.8756 10C16.8756 10.0986 16.8562 10.1962 16.8184 10.2873C16.7807 10.3783 16.7254 10.461 16.6556 10.5307L8.96344 18.2182C7.97869 19.2028 6.64315 19.7559 5.2506 19.7558C3.85806 19.7557 2.52258 19.2024 1.53797 18.2177C0.55335 17.233 0.000247811 15.8974 0.000335704 14.5049C0.000423597 13.1123 0.553694 11.7769 1.53843 10.7922L10.8441 1.34973C11.5471 0.645958 12.5009 0.250284 13.4957 0.249756C14.4904 0.249229 15.4447 0.643891 16.1484 1.34692C16.8522 2.04995 17.2479 3.00376 17.2484 3.99853C17.2489 4.99329 16.8543 5.94752 16.1512 6.6513L6.84375 16.0938C6.42106 16.5165 5.84777 16.754 5.25 16.754C4.65223 16.754 4.07894 16.5165 3.65625 16.0938C3.23356 15.6711 2.99609 15.0978 2.99609 14.5C2.99609 13.9023 3.23356 13.329 3.65625 12.9063L11.4656 4.97317C11.534 4.90019 11.6163 4.84164 11.7077 4.80095C11.7991 4.76026 11.8977 4.73827 11.9977 4.73625C12.0977 4.73424 12.1971 4.75225 12.2901 4.78923C12.383 4.82621 12.4676 4.8814 12.5389 4.95157C12.6102 5.02173 12.6667 5.10545 12.7052 5.19779C12.7436 5.29013 12.7632 5.38923 12.7628 5.48926C12.7624 5.58929 12.7419 5.68822 12.7027 5.78023C12.6635 5.87225 12.6063 5.95548 12.5344 6.02505L4.72406 13.9666C4.65413 14.036 4.59855 14.1185 4.56049 14.2093C4.52244 14.3002 4.50265 14.3976 4.50226 14.4961C4.50186 14.5946 4.52088 14.6922 4.55821 14.7834C4.59554 14.8746 4.65047 14.9575 4.71984 15.0274C4.78922 15.0973 4.87169 15.1529 4.96254 15.191C5.05339 15.229 5.15086 15.2488 5.24936 15.2492C5.34786 15.2496 5.44548 15.2306 5.53663 15.1932C5.62778 15.1559 5.71069 15.101 5.78062 15.0316L15.0872 5.5938C15.5099 5.17198 15.7477 4.59952 15.7483 4.00237C15.7489 3.40521 15.5123 2.83227 15.0905 2.40958C14.6686 1.98689 14.0962 1.74908 13.499 1.74846C12.9019 1.74785 12.3289 1.98448 11.9062 2.4063L2.6025 11.845C2.25396 12.193 1.97738 12.6063 1.78854 13.0611C1.5997 13.516 1.5023 14.0036 1.50191 14.4961C1.50152 14.9886 1.59814 15.4764 1.78626 15.9316C1.97437 16.3868 2.2503 16.8004 2.59828 17.149C2.94626 17.4975 3.35949 17.7741 3.81436 17.9629C4.26923 18.1518 4.75684 18.2491 5.24936 18.2495C5.74187 18.2499 6.22964 18.1533 6.68481 17.9652C7.13998 17.7771 7.55365 17.5012 7.90218 17.1532L15.5953 9.46567C15.7364 9.32562 15.9274 9.24734 16.1262 9.24805C16.3251 9.24875 16.5155 9.32838 16.6556 9.46942Z" fill="#282828"/>
</svg>
