<svg width="21" height="20" viewBox="0 0 21 20" fill="none" xmlns="http://www.w3.org/2000/svg">
<path d="M11.625 9.99991C11.625 10.2224 11.559 10.4399 11.4354 10.6249C11.3118 10.8099 11.1361 10.9541 10.9305 11.0393C10.725 11.1244 10.4988 11.1467 10.2805 11.1033C10.0623 11.0599 9.86184 10.9527 9.7045 10.7954C9.54717 10.6381 9.44002 10.4376 9.39662 10.2194C9.35321 10.0012 9.37549 9.77495 9.46064 9.56939C9.54578 9.36382 9.68998 9.18812 9.87498 9.0645C10.06 8.94089 10.2775 8.87491 10.5 8.87491C10.7984 8.87491 11.0845 8.99343 11.2955 9.20441C11.5065 9.41539 11.625 9.70154 11.625 9.99991ZM6.375 8.87491C6.1525 8.87491 5.93499 8.94089 5.74998 9.0645C5.56498 9.18812 5.42078 9.36382 5.33564 9.56939C5.25049 9.77495 5.22821 10.0012 5.27162 10.2194C5.31502 10.4376 5.42217 10.6381 5.5795 10.7954C5.73684 10.9527 5.93729 11.0599 6.15552 11.1033C6.37375 11.1467 6.59995 11.1244 6.80552 11.0393C7.01109 10.9541 7.18679 10.8099 7.3104 10.6249C7.43402 10.4399 7.5 10.2224 7.5 9.99991C7.5 9.70154 7.38147 9.41539 7.1705 9.20441C6.95952 8.99343 6.67337 8.87491 6.375 8.87491ZM14.625 8.87491C14.4025 8.87491 14.185 8.94089 14 9.0645C13.815 9.18812 13.6708 9.36382 13.5856 9.56939C13.5005 9.77495 13.4782 10.0012 13.5216 10.2194C13.565 10.4376 13.6722 10.6381 13.8295 10.7954C13.9868 10.9527 14.1873 11.0599 14.4055 11.1033C14.6238 11.1467 14.85 11.1244 15.0555 11.0393C15.2611 10.9541 15.4368 10.8099 15.5604 10.6249C15.684 10.4399 15.75 10.2224 15.75 9.99991C15.75 9.70154 15.6315 9.41539 15.4205 9.20441C15.2095 8.99343 14.9234 8.87491 14.625 8.87491ZM20.25 9.99991C20.2504 11.6832 19.8149 13.338 18.986 14.803C18.1572 16.2681 16.9631 17.4937 15.52 18.3604C14.077 19.2271 12.4341 19.7054 10.7514 19.7488C9.06863 19.7922 7.4033 19.3992 5.9175 18.608L2.72531 19.6721C2.46102 19.7602 2.1774 19.773 1.90624 19.709C1.63509 19.645 1.38711 19.5068 1.19011 19.3098C0.993108 19.1128 0.854864 18.8648 0.790873 18.5937C0.726882 18.3225 0.739673 18.0389 0.827812 17.7746L1.89187 14.5824C1.19639 13.2748 0.807935 11.826 0.755998 10.3458C0.70406 8.86568 0.990005 7.39316 1.59213 6.04003C2.19425 4.6869 3.09672 3.48873 4.23105 2.53646C5.36537 1.58419 6.70173 0.902854 8.13869 0.544165C9.57565 0.185476 11.0754 0.158863 12.5242 0.466346C13.973 0.773829 15.3327 1.40733 16.5001 2.31875C17.6675 3.23018 18.6119 4.39558 19.2616 5.7265C19.9114 7.05741 20.2494 8.51886 20.25 9.99991ZM18.75 9.99991C18.7496 8.7344 18.4582 7.48593 17.8981 6.3511C17.338 5.21627 16.5244 4.2255 15.5201 3.45544C14.5159 2.68537 13.3479 2.15666 12.1067 1.91021C10.8654 1.66375 9.58405 1.70616 8.36178 2.03415C7.13951 2.36215 6.00909 2.96693 5.05796 3.80171C4.10682 4.6365 3.36049 5.6789 2.87668 6.84828C2.39288 8.01766 2.18458 9.28266 2.2679 10.5454C2.35122 11.8082 2.72393 13.0349 3.35719 14.1305C3.41034 14.2225 3.44334 14.3247 3.454 14.4304C3.46467 14.5361 3.45276 14.6429 3.41906 14.7437L2.25 18.2499L5.75625 17.0808C5.83262 17.0548 5.91275 17.0415 5.99344 17.0415C6.12516 17.0417 6.2545 17.0766 6.36844 17.1427C7.62263 17.8684 9.04581 18.2509 10.4948 18.2518C11.9438 18.2527 13.3674 17.872 14.6225 17.1479C15.8776 16.4239 16.9199 15.382 17.6445 14.1272C18.369 12.8724 18.7503 11.4489 18.75 9.99991Z" fill="#0A0A0A"/>
</svg>
