<svg width="22" height="23" viewBox="0 0 22 23" fill="none" xmlns="http://www.w3.org/2000/svg">
<path d="M12.2691 11.4265C12.2691 11.6775 12.1947 11.9229 12.0552 12.1317C11.9158 12.3404 11.7175 12.5031 11.4856 12.5992C11.2537 12.6953 10.9985 12.7204 10.7523 12.6714C10.5061 12.6225 10.2799 12.5016 10.1024 12.324C9.92492 12.1465 9.80404 11.9203 9.75507 11.6741C9.70609 11.4279 9.73123 11.1727 9.82729 10.9407C9.92336 10.7088 10.086 10.5105 10.2948 10.371C10.5035 10.2316 10.7489 10.1571 10.9999 10.1571C11.3365 10.1571 11.6594 10.2909 11.8974 10.5289C12.1354 10.767 12.2691 11.0898 12.2691 11.4265ZM6.34606 10.1571C6.09503 10.1571 5.84964 10.2316 5.64092 10.371C5.43219 10.5105 5.26951 10.7088 5.17345 10.9407C5.07738 11.1727 5.05225 11.4279 5.10122 11.6741C5.15019 11.9203 5.27107 12.1465 5.44858 12.324C5.62609 12.5016 5.85224 12.6225 6.09845 12.6714C6.34465 12.7204 6.59985 12.6953 6.83178 12.5992C7.0637 12.5031 7.26192 12.3404 7.40139 12.1317C7.54085 11.9229 7.61529 11.6775 7.61529 11.4265C7.61529 11.0898 7.48157 10.767 7.24354 10.5289C7.00552 10.2909 6.68268 10.1571 6.34606 10.1571ZM15.6538 10.1571C15.4027 10.1571 15.1573 10.2316 14.9486 10.371C14.7399 10.5105 14.5772 10.7088 14.4811 10.9407C14.3851 11.1727 14.3599 11.4279 14.4089 11.6741C14.4579 11.9203 14.5788 12.1465 14.7563 12.324C14.9338 12.5016 15.1599 12.6225 15.4061 12.6714C15.6523 12.7204 15.9075 12.6953 16.1395 12.5992C16.3714 12.5031 16.5696 12.3404 16.7091 12.1317C16.8485 11.9229 16.923 11.6775 16.923 11.4265C16.923 11.0898 16.7893 10.767 16.5512 10.5289C16.3132 10.2909 15.9904 10.1571 15.6538 10.1571ZM21.9999 11.4265C22.0003 13.3258 21.509 15.1928 20.5739 16.8459C19.6387 18.499 18.2916 19.8818 16.6635 20.8597C15.0355 21.8376 13.182 22.3773 11.2835 22.4263C9.38503 22.4752 7.5062 22.0318 5.82991 21.1391L2.22847 22.3397C1.93029 22.4392 1.61031 22.4536 1.30439 22.3814C0.99847 22.3092 0.718703 22.1532 0.496443 21.9309C0.274184 21.7087 0.118216 21.4289 0.0460212 21.1229C-0.0261737 20.817 -0.0117427 20.497 0.0876966 20.1988L1.28818 16.597C0.503527 15.1216 0.0652707 13.4868 0.00667486 11.8168C-0.051921 10.1467 0.270684 8.48525 0.950001 6.9585C1.62932 5.43174 2.64749 4.07983 3.92724 3.00537C5.20699 1.93091 6.71468 1.16215 8.33587 0.757434C9.95705 0.352721 11.6491 0.322693 13.2836 0.66963C14.9182 1.01657 16.4522 1.73135 17.7692 2.75973C19.0863 3.7881 20.1518 5.10304 20.8848 6.60473C21.6179 8.10642 21.9992 9.75539 21.9999 11.4265ZM20.3076 11.4265C20.3072 9.99858 19.9783 8.58992 19.3465 7.30948C18.7146 6.02904 17.7967 4.91114 16.6637 4.04226C15.5307 3.17339 14.213 2.57684 12.8126 2.29876C11.4121 2.02068 9.96653 2.06853 8.58756 2.43861C7.20859 2.80869 5.93324 3.49107 4.86017 4.43297C3.78709 5.37487 2.94507 6.55102 2.39924 7.87045C1.85341 9.18988 1.61841 10.6172 1.71241 12.042C1.80641 13.4668 2.22691 14.8509 2.94135 16.0871C3.00131 16.1909 3.03855 16.3062 3.05058 16.4255C3.06261 16.5448 3.04918 16.6652 3.01116 16.7789L1.69222 20.7351L5.64798 19.416C5.73415 19.3866 5.82455 19.3716 5.91558 19.3716C6.06419 19.3718 6.21011 19.4112 6.33866 19.4858C7.75364 20.3046 9.35928 20.7362 10.994 20.7372C12.6288 20.7382 14.235 20.3087 15.651 19.4917C17.067 18.6747 18.2429 17.4992 19.0603 16.0834C19.8778 14.6675 20.308 13.0614 20.3076 11.4265Z" fill="#83808B"/>
</svg>
