<svg width="24" height="24" viewBox="0 0 24 24" fill="none" xmlns="http://www.w3.org/2000/svg">
<path d="M2.32063 17.7422C0.924793 15.3872 0.436547 12.6037 0.947551 9.9142C1.45855 7.22474 2.93367 4.81429 5.09596 3.13535C7.25825 1.45642 9.95902 0.624471 12.6912 0.795699C15.4234 0.966927 17.9992 2.12955 19.935 4.06531C21.8707 6.00107 23.0334 8.57684 23.2046 11.3091C23.3758 14.0413 22.5439 16.742 20.8649 18.9043C19.186 21.0666 16.7755 22.5417 14.0861 23.0527C11.3966 23.5637 8.61312 23.0755 6.25813 21.6797L2.3675 22.7812C2.2081 22.8278 2.03909 22.8307 1.8782 22.7896C1.7173 22.7484 1.57043 22.6647 1.453 22.5473C1.33556 22.4299 1.25188 22.283 1.21072 22.1221C1.16956 21.9612 1.17245 21.7922 1.21907 21.6328L2.32063 17.7422Z" stroke="#83808B" stroke-width="1.5" stroke-linecap="round" stroke-linejoin="round"/>
<path d="M12 13C12.5523 13 13 12.5523 13 12C13 11.4477 12.5523 11 12 11C11.4477 11 11 11.4477 11 12C11 12.5523 11.4477 13 12 13Z" fill="#6C6C6C" stroke="#83808B"/>
<path d="M7 13C7.55228 13 8 12.5523 8 12C8 11.4477 7.55228 11 7 11C6.44772 11 6 11.4477 6 12C6 12.5523 6.44772 13 7 13Z" fill="#6C6C6C" stroke="#83808B"/>
<path d="M17 13C17.5523 13 18 12.5523 18 12C18 11.4477 17.5523 11 17 11C16.4477 11 16 11.4477 16 12C16 12.5523 16.4477 13 17 13Z" fill="#6C6C6C" stroke="#83808B"/>
</svg>
