<svg width="12" height="7" viewBox="0 0 12 7" fill="none" xmlns="http://www.w3.org/2000/svg">
<path d="M0.646215 5.64597L5.64622 0.645972C5.69265 0.599483 5.7478 0.562604 5.8085 0.537442C5.86919 0.51228 5.93426 0.499329 5.99997 0.499329C6.06567 0.499329 6.13074 0.51228 6.19144 0.537442C6.25214 0.562604 6.30728 0.599483 6.35372 0.645972L11.3537 5.64597C11.4475 5.73979 11.5002 5.86704 11.5002 5.99972C11.5002 6.1324 11.4475 6.25965 11.3537 6.35347C11.2599 6.44729 11.1326 6.5 11 6.5C10.8673 6.5 10.74 6.44729 10.6462 6.35347L5.99997 1.7066L1.35372 6.35347C1.30726 6.39993 1.25211 6.43678 1.19141 6.46192C1.13072 6.48706 1.06566 6.5 0.999966 6.5C0.934268 6.5 0.869214 6.48706 0.808517 6.46192C0.747821 6.43678 0.692671 6.39993 0.646215 6.35347C0.59976 6.30702 0.562911 6.25187 0.537769 6.19117C0.512628 6.13047 0.499687 6.06542 0.499687 5.99972C0.499687 5.93402 0.512628 5.86897 0.537769 5.80827C0.562911 5.74758 0.59976 5.69243 0.646215 5.64597Z" fill="#ED2F51"/>
</svg>
