<svg xmlns="http://www.w3.org/2000/svg" width="28" height="26" viewBox="0 0 28 26" fill="none">
<mask id="path-1-inside-1_455_989" fill="white">
<path d="M3.49634 19.125V20.875C3.49634 21.5715 3.77284 22.2391 4.26546 22.7309C4.50905 22.9748 4.79835 23.1683 5.1168 23.3003C5.43526 23.4322 5.77662 23.5001 6.12134 23.5H21.8713C22.5678 23.5 23.2355 23.2235 23.7272 22.7309C23.9711 22.4873 24.1646 22.198 24.2966 21.8795C24.4286 21.5611 24.4965 21.2197 24.4963 20.875V19.125C24.4963 18.8929 24.5885 18.6704 24.7526 18.5063C24.9167 18.3422 25.1393 18.25 25.3713 18.25C25.6034 18.25 25.826 18.3422 25.9901 18.5063C26.1542 18.6704 26.2463 18.8929 26.2463 19.125V20.875C26.2462 22.0353 25.7854 23.1481 24.9653 23.969C24.1445 24.7891 23.0317 25.2498 21.8713 25.25H6.12134C4.96101 25.2498 3.84819 24.7891 3.02734 23.969C2.20724 23.1481 1.74651 22.0353 1.74634 20.875V19.125C1.74634 18.8929 1.83853 18.6704 2.00262 18.5063C2.16671 18.3422 2.38927 18.25 2.62134 18.25C2.8534 18.25 3.07596 18.3422 3.24006 18.5063C3.40415 18.6704 3.49634 18.8929 3.49634 19.125ZM20.7225 8.71075C20.5475 8.7684 20.3952 8.87979 20.2873 9.02904C20.1794 9.1783 20.1213 9.35781 20.1213 9.542V16.528C20.1213 16.7122 20.1794 16.8917 20.2873 17.041C20.3952 17.1902 20.5475 17.3016 20.7225 17.3593C20.8598 17.4039 21.1223 17.4415 21.44 17.445C21.909 17.4494 22.5582 17.403 22.7813 17.403C25.1745 17.403 27.1213 15.4474 27.1213 13.035C27.1213 10.6226 25.1745 8.667 22.7813 8.667C22.5582 8.667 21.909 8.62063 21.44 8.625C21.1223 8.6285 20.8598 8.66612 20.7225 8.71075ZM8.50921 15.0816C7.84159 16.4703 6.49059 17.41 4.93659 17.41C2.69309 17.41 0.871338 15.45 0.871338 13.035C0.871338 10.62 2.69309 8.66 4.93659 8.66C6.69534 8.66 8.19421 9.864 8.74634 11.5527C8.99921 12.4374 7.50209 12.5258 6.87996 11.5527C6.68452 11.2098 6.40176 10.9247 6.06042 10.7264C5.71908 10.5282 5.33133 10.4238 4.93659 10.424C3.59784 10.424 2.51109 11.5939 2.51109 13.035C2.51109 14.4761 3.59784 15.646 4.93659 15.646C5.48696 15.646 5.99359 15.4491 6.37596 15.0816C7.08646 14.2267 8.67284 14.4017 8.50921 15.0816ZM14.0663 8.667C11.6513 8.667 9.69134 10.6244 9.69134 13.035C9.69134 15.4456 11.6513 17.403 14.0663 17.403C16.4813 17.403 18.4413 15.4456 18.4413 13.035C18.4413 10.6244 16.4813 8.667 14.0663 8.667ZM21.8713 10.4012C22.2362 10.4091 22.6448 10.417 22.7813 10.417C24.2128 10.417 25.3713 11.5921 25.3713 13.035C25.3713 14.4779 24.2128 15.653 22.7813 15.653C22.6448 15.653 22.2362 15.6609 21.8713 15.6687V10.4012ZM14.0663 10.417C15.5145 10.417 16.6913 11.5895 16.6913 13.035C16.6913 14.4805 15.5145 15.653 14.0663 15.653C12.6182 15.653 11.4413 14.4805 11.4413 13.035C11.4413 11.5895 12.6182 10.417 14.0663 10.417ZM3.49634 6.875V5.125C3.49634 4.4285 3.77284 3.76088 4.26546 3.26913C4.50905 3.0252 4.79835 2.83171 5.1168 2.69973C5.43526 2.56776 5.77662 2.49988 6.12134 2.5H21.8713C22.5678 2.5 23.2355 2.7765 23.7272 3.26913C24.2198 3.76088 24.4963 4.4285 24.4963 5.125V6.875C24.4963 7.10706 24.5885 7.32962 24.7526 7.49372C24.9167 7.65781 25.1393 7.75 25.3713 7.75C25.6034 7.75 25.826 7.65781 25.9901 7.49372C26.1542 7.32962 26.2463 7.10706 26.2463 6.875V5.125C26.2462 3.96467 25.7854 2.85186 24.9653 2.031C24.1445 1.2109 23.0317 0.750168 21.8713 0.75H6.12134C4.96101 0.750168 3.84819 1.2109 3.02734 2.031C2.20724 2.85186 1.74651 3.96467 1.74634 5.125V6.875C1.74634 7.10706 1.83853 7.32962 2.00262 7.49372C2.16671 7.65781 2.38927 7.75 2.62134 7.75C2.8534 7.75 3.07596 7.65781 3.24006 7.49372C3.40415 7.32962 3.49634 7.10706 3.49634 6.875Z"/>
</mask>
<path d="M3.49634 19.125V20.875C3.49634 21.5715 3.77284 22.2391 4.26546 22.7309C4.50905 22.9748 4.79835 23.1683 5.1168 23.3003C5.43526 23.4322 5.77662 23.5001 6.12134 23.5H21.8713C22.5678 23.5 23.2355 23.2235 23.7272 22.7309C23.9711 22.4873 24.1646 22.198 24.2966 21.8795C24.4286 21.5611 24.4965 21.2197 24.4963 20.875V19.125C24.4963 18.8929 24.5885 18.6704 24.7526 18.5063C24.9167 18.3422 25.1393 18.25 25.3713 18.25C25.6034 18.25 25.826 18.3422 25.9901 18.5063C26.1542 18.6704 26.2463 18.8929 26.2463 19.125V20.875C26.2462 22.0353 25.7854 23.1481 24.9653 23.969C24.1445 24.7891 23.0317 25.2498 21.8713 25.25H6.12134C4.96101 25.2498 3.84819 24.7891 3.02734 23.969C2.20724 23.1481 1.74651 22.0353 1.74634 20.875V19.125C1.74634 18.8929 1.83853 18.6704 2.00262 18.5063C2.16671 18.3422 2.38927 18.25 2.62134 18.25C2.8534 18.25 3.07596 18.3422 3.24006 18.5063C3.40415 18.6704 3.49634 18.8929 3.49634 19.125ZM20.7225 8.71075C20.5475 8.7684 20.3952 8.87979 20.2873 9.02904C20.1794 9.1783 20.1213 9.35781 20.1213 9.542V16.528C20.1213 16.7122 20.1794 16.8917 20.2873 17.041C20.3952 17.1902 20.5475 17.3016 20.7225 17.3593C20.8598 17.4039 21.1223 17.4415 21.44 17.445C21.909 17.4494 22.5582 17.403 22.7813 17.403C25.1745 17.403 27.1213 15.4474 27.1213 13.035C27.1213 10.6226 25.1745 8.667 22.7813 8.667C22.5582 8.667 21.909 8.62063 21.44 8.625C21.1223 8.6285 20.8598 8.66612 20.7225 8.71075ZM8.50921 15.0816C7.84159 16.4703 6.49059 17.41 4.93659 17.41C2.69309 17.41 0.871338 15.45 0.871338 13.035C0.871338 10.62 2.69309 8.66 4.93659 8.66C6.69534 8.66 8.19421 9.864 8.74634 11.5527C8.99921 12.4374 7.50209 12.5258 6.87996 11.5527C6.68452 11.2098 6.40176 10.9247 6.06042 10.7264C5.71908 10.5282 5.33133 10.4238 4.93659 10.424C3.59784 10.424 2.51109 11.5939 2.51109 13.035C2.51109 14.4761 3.59784 15.646 4.93659 15.646C5.48696 15.646 5.99359 15.4491 6.37596 15.0816C7.08646 14.2267 8.67284 14.4017 8.50921 15.0816ZM14.0663 8.667C11.6513 8.667 9.69134 10.6244 9.69134 13.035C9.69134 15.4456 11.6513 17.403 14.0663 17.403C16.4813 17.403 18.4413 15.4456 18.4413 13.035C18.4413 10.6244 16.4813 8.667 14.0663 8.667ZM21.8713 10.4012C22.2362 10.4091 22.6448 10.417 22.7813 10.417C24.2128 10.417 25.3713 11.5921 25.3713 13.035C25.3713 14.4779 24.2128 15.653 22.7813 15.653C22.6448 15.653 22.2362 15.6609 21.8713 15.6687V10.4012ZM14.0663 10.417C15.5145 10.417 16.6913 11.5895 16.6913 13.035C16.6913 14.4805 15.5145 15.653 14.0663 15.653C12.6182 15.653 11.4413 14.4805 11.4413 13.035C11.4413 11.5895 12.6182 10.417 14.0663 10.417ZM3.49634 6.875V5.125C3.49634 4.4285 3.77284 3.76088 4.26546 3.26913C4.50905 3.0252 4.79835 2.83171 5.1168 2.69973C5.43526 2.56776 5.77662 2.49988 6.12134 2.5H21.8713C22.5678 2.5 23.2355 2.7765 23.7272 3.26913C24.2198 3.76088 24.4963 4.4285 24.4963 5.125V6.875C24.4963 7.10706 24.5885 7.32962 24.7526 7.49372C24.9167 7.65781 25.1393 7.75 25.3713 7.75C25.6034 7.75 25.826 7.65781 25.9901 7.49372C26.1542 7.32962 26.2463 7.10706 26.2463 6.875V5.125C26.2462 3.96467 25.7854 2.85186 24.9653 2.031C24.1445 1.2109 23.0317 0.750168 21.8713 0.75H6.12134C4.96101 0.750168 3.84819 1.2109 3.02734 2.031C2.20724 2.85186 1.74651 3.96467 1.74634 5.125V6.875C1.74634 7.10706 1.83853 7.32962 2.00262 7.49372C2.16671 7.65781 2.38927 7.75 2.62134 7.75C2.8534 7.75 3.07596 7.65781 3.24006 7.49372C3.40415 7.32962 3.49634 7.10706 3.49634 6.875Z" fill="#ED2F51" stroke="white" stroke-width="0.2" mask="url(#path-1-inside-1_455_989)"/>
</svg>