<svg width="24" height="18" viewBox="0 0 24 18" fill="none" xmlns="http://www.w3.org/2000/svg">
<path d="M18.1261 11.2688C16.4579 11.2688 15.1008 12.6259 15.1008 14.2941C15.1008 15.9622 16.4579 17.3193 18.1261 17.3193C19.7945 17.3193 21.1513 15.9622 21.1513 14.2941C21.1513 12.6259 19.7942 11.2688 18.1261 11.2688ZM18.1261 15.8067C17.2919 15.8067 16.6134 15.1283 16.6134 14.2941C16.6134 13.4599 17.2919 12.7815 18.1261 12.7815C18.9602 12.7815 19.6387 13.4599 19.6387 14.2941C19.6387 15.1283 18.9602 15.8067 18.1261 15.8067ZM7.78993 11.2688C6.12179 11.2688 4.76471 12.6259 4.76471 14.2941C4.76471 15.9622 6.12179 17.3193 7.78993 17.3193C9.45807 17.3193 10.8151 15.9622 10.8151 14.2941C10.8151 12.6259 9.45807 11.2688 7.78993 11.2688ZM7.78993 15.8067C6.95574 15.8067 6.27732 15.1283 6.27732 14.2941C6.27732 13.4599 6.95574 12.7815 7.78993 12.7815C8.62388 12.7815 9.30254 13.4599 9.30254 14.2941C9.30254 15.1283 8.62412 15.8067 7.78993 15.8067ZM20.1633 2.60972C20.1003 2.48451 20.0037 2.37926 19.8843 2.30572C19.765 2.23218 19.6276 2.19324 19.4874 2.19324H15.5042V3.70585H19.021L21.0804 7.80197L22.4322 7.12228L20.1633 2.60972Z" fill="#198989"/>
<path d="M10.1345 13.563H15.8572V15.0756H10.1345V13.563ZM5.52098 13.563H2.89917C2.48142 13.563 2.14289 13.9016 2.14289 14.3193C2.14289 14.7371 2.48147 15.0756 2.89917 15.0756H5.52103C5.93878 15.0756 6.27731 14.737 6.27731 14.3193C6.27731 13.9016 5.93873 13.563 5.52098 13.563ZM23.8412 8.93948L22.3536 7.02351C22.2829 6.93242 22.1924 6.8587 22.0889 6.80801C21.9853 6.75732 21.8716 6.73099 21.7563 6.73105H16.2605V1.43695C16.2605 1.0192 15.9219 0.680664 15.5042 0.680664H2.89917C2.48142 0.680664 2.14289 1.01924 2.14289 1.43695C2.14289 1.85465 2.48147 2.19323 2.89917 2.19323H14.7479V7.48734C14.7479 7.90509 15.0865 8.24362 15.5042 8.24362H21.386L22.4874 9.66243V13.5629H20.3949C19.9772 13.5629 19.6387 13.9015 19.6387 14.3192C19.6387 14.737 19.9772 15.0755 20.3949 15.0755H23.2437C23.6614 15.0755 24 14.7369 24 14.3192V9.40335C24 9.23545 23.944 9.07209 23.8412 8.93948ZM5.47059 9.7311H1.99158C1.57383 9.7311 1.2353 10.0697 1.2353 10.4874C1.2353 10.9051 1.57387 11.2437 1.99158 11.2437H5.47055C5.8883 11.2437 6.22683 10.9051 6.22683 10.4874C6.22688 10.0697 5.8883 9.7311 5.47059 9.7311ZM7.21008 6.75627H0.756281C0.338578 6.75627 0 7.09485 0 7.5126C0 7.93035 0.338578 8.26888 0.756281 8.26888H7.21008C7.62783 8.26888 7.96636 7.9303 7.96636 7.5126C7.96636 7.0949 7.62783 6.75627 7.21008 6.75627Z" fill="#198989"/>
<path d="M8.44537 3.78149H1.99157C1.57382 3.78149 1.23529 4.12007 1.23529 4.53778C1.23529 4.95553 1.57387 5.29406 1.99157 5.29406H8.44537C8.86312 5.29406 9.20165 4.95548 9.20165 4.53778C9.2017 4.12007 8.86312 3.78149 8.44537 3.78149Z" fill="#198989"/>
</svg>
