<svg width="170" height="170" viewBox="0 0 170 170" fill="none" xmlns="http://www.w3.org/2000/svg">
<g clip-path="url(#clip0_1799_2560)">
<path d="M21.1129 1.77319L21.1237 1.76597L21.1339 1.75783C21.4279 1.52262 21.6926 1.48244 21.9092 1.53125C22.1358 1.58233 22.3528 1.74105 22.5161 1.97852C22.8504 2.46479 22.8843 3.15129 22.4443 3.59133L22.4233 3.61234L22.4068 3.63706C21.8757 4.43371 21.0743 4.97262 20.2101 5.54876L20.0765 5.63782V5.79837C20.0765 6.19618 20.0096 6.48915 19.8728 6.70807C19.741 6.9189 19.5234 7.09454 19.1522 7.22015C18.9546 7.26977 18.7575 7.3249 18.5596 7.38022C18.1576 7.49262 17.7526 7.60584 17.3349 7.67547C16.7302 7.77625 16.1722 7.76896 15.6902 7.53685C14.7319 6.79662 14.7391 5.34296 15.7118 4.61344L15.7288 4.60065L15.7439 4.58557C16.4098 3.9197 17.285 3.51077 18.2454 3.11946C18.3909 3.06019 18.5386 3.00125 18.6877 2.94178C19.5049 2.61567 20.3625 2.27349 21.1129 1.77319ZM9.73967 18.5678L9.74982 18.5593L9.75918 18.5499C9.8931 18.416 10.1338 18.4126 10.3469 18.5992C10.4457 18.6856 10.5129 18.7971 10.5345 18.9136C10.5541 19.019 10.5402 19.1458 10.4522 19.2883C8.75807 20.9824 7.31367 22.4284 6.15682 24.4497C5.65965 25.1981 5.31884 26.0522 4.99399 26.8663C4.93451 27.0153 4.87557 27.163 4.8163 27.3085C4.425 28.269 4.01607 29.1442 3.3502 29.8101L3.32919 29.8311L3.31272 29.8558C3.12623 30.1355 2.79578 30.2031 2.46652 30.0659C2.13716 29.9287 1.86743 29.602 1.86743 29.1673C1.86743 28.249 2.26362 27.2359 2.85931 26.2197C3.45195 25.2088 4.2226 24.2268 4.93236 23.3751C6.39029 21.6344 7.99897 20.0257 9.73967 18.5678ZM2.34953 48.9042L2.32853 48.8832L2.30381 48.8667C0.734876 47.8207 0.3 45.6944 0.3 43.2741C0.3 42.0783 0.40556 40.8441 0.51247 39.6859C0.52183 39.5845 0.531211 39.4836 0.540536 39.3833C0.636997 38.3457 0.72748 37.3724 0.72748 36.5769C0.72748 36.4563 0.773563 36.3814 0.837534 36.3302C0.909131 36.273 1.01776 36.2357 1.13995 36.2357C1.26213 36.2357 1.37076 36.273 1.44236 36.3302C1.50633 36.3814 1.55241 36.4563 1.55241 36.5769C1.55241 39.1601 1.83901 41.7472 2.41461 44.0524C2.51125 44.5341 2.64165 45.0232 2.76913 45.5015C2.8318 45.7366 2.89377 45.9691 2.95068 46.1967C3.12721 46.9028 3.26233 47.5865 3.26233 48.2613C3.26233 48.334 3.23289 48.4417 3.16126 48.5634C3.09129 48.6824 2.99277 48.7944 2.8836 48.8763C2.773 48.9593 2.66827 48.9991 2.58386 49.0038C2.51016 49.0079 2.43266 48.9873 2.34953 48.9042ZM18.7038 55.1137L18.7333 55.11L18.7615 55.1006C18.8819 55.0605 19.0308 55.0747 19.1893 55.1523C19.3479 55.2299 19.4934 55.3611 19.5891 55.5114C19.6856 55.6632 19.7162 55.8084 19.6945 55.9218C19.6751 56.023 19.6049 56.1489 19.3874 56.2576L19.3874 56.2576L19.3812 56.2608C14.6788 58.7503 9.96081 57.3883 5.73464 54.2891L5.71414 54.2741L5.6914 54.2627C5.63535 54.2347 5.6002 54.2073 5.57863 54.1855C5.6084 54.1896 5.65039 54.2009 5.70491 54.2278C9.63151 56.3204 13.3366 55.826 17.3236 55.294C17.7797 55.2331 18.2395 55.1718 18.7038 55.1137ZM39.291 40.2776L39.3057 40.2721L39.3198 40.2651C39.5378 40.1561 39.6901 40.1714 39.7935 40.2196C39.9059 40.2721 40.0122 40.3881 40.0812 40.5675C40.2221 40.934 40.162 41.446 39.8285 41.7795C39.0001 42.6079 37.9573 43.3051 36.8558 43.9801C36.5674 44.1569 36.2741 44.3327 35.98 44.5089C35.1622 44.9988 34.3386 45.4923 33.5965 46.0223C33.068 46.3999 32.5338 46.7606 32.0015 47.1201C30.5653 48.0902 29.1428 49.0509 27.8819 50.3063C27.7393 50.3944 27.6124 50.4084 27.5071 50.3888C27.3906 50.3671 27.2791 50.3 27.1926 50.2012C27.0061 49.988 27.0094 49.7473 27.1433 49.6134C29.1266 47.6302 31.1098 45.9301 33.3781 44.2287C33.8819 43.8687 34.3665 43.4917 34.8423 43.1182C34.9012 43.0719 34.96 43.0257 35.0187 42.9796C35.436 42.6516 35.8471 42.3285 36.265 42.019C37.2175 41.3134 38.189 40.6909 39.291 40.2776ZM83.6269 9.23276L83.6352 9.23322H83.6435C83.911 9.23322 84.0923 9.33626 84.2126 9.48362C84.339 9.63837 84.4122 9.86119 84.4122 10.1088C84.4122 10.6058 84.1277 11.0851 83.6038 11.1999C78.7706 11.4851 73.9231 12.0548 69.0702 13.4768C68.8158 13.461 68.6592 13.2909 68.6184 13.1073C68.5969 13.0107 68.6092 12.9166 68.6512 12.8396C68.6916 12.7656 68.7702 12.6873 68.9191 12.6377L68.9192 12.6379L68.9296 12.634C69.06 12.5851 69.1907 12.536 69.3219 12.4867C73.7942 10.8078 78.7164 8.95995 83.6269 9.23276ZM102.507 18.5298L102.516 18.5403L102.525 18.5499C103.377 19.401 104.286 20.3817 104.982 21.4253C105.679 22.4718 106.142 23.5526 106.142 24.6075V24.6444L106.151 24.6802C106.265 25.1329 106.095 25.5129 105.828 25.7269C105.56 25.9409 105.206 25.9852 104.903 25.7853C103.945 25.1002 103.114 24.1339 102.336 23.1081C102.044 22.7233 101.756 22.3255 101.472 21.9328C101.012 21.2956 100.561 20.6721 100.118 20.1406L100.105 20.1244C98.6904 18.4272 97.2655 16.7174 95.8373 15.288C95.3777 14.7027 95.5046 14.0969 95.8607 13.7408C96.2189 13.3826 96.8298 13.2563 97.4182 13.7255C99.1294 15.1515 101.103 16.8445 102.507 18.5298ZM107.852 33.727V33.7354L107.853 33.7437C108.137 38.8527 107.565 45.6274 105.038 50.4009L105.03 50.415L105.024 50.4297C104.802 50.9856 104.323 51.1448 103.879 51.0339C103.423 50.9198 103.038 50.5266 103.038 49.9713C103.038 48.5946 103.382 47.2773 103.807 45.9671C103.923 45.6077 104.047 45.2467 104.171 44.885C104.493 43.9434 104.817 42.9965 105.025 42.0567L105.025 42.0567L105.027 42.0505C105.108 41.6433 105.19 41.2414 105.271 40.8432C105.754 38.4625 106.211 36.2143 106.456 33.7569L106.458 33.742V33.727C106.458 33.541 106.535 33.4135 106.651 33.3244C106.777 33.229 106.958 33.1721 107.155 33.1721C107.352 33.1721 107.534 33.229 107.659 33.3244C107.776 33.4135 107.852 33.541 107.852 33.727ZM93.6482 70.6163L93.6406 70.6284L93.6342 70.6411C93.4806 70.9484 93.3316 71.272 93.1791 71.6031C92.8903 72.2301 92.589 72.8844 92.2195 73.5078C91.6645 74.4445 90.9964 75.232 90.0913 75.6242C89.7246 75.7435 89.3112 75.736 89.0038 75.5963C88.7185 75.4666 88.5086 75.2194 88.503 74.7832C88.6408 73.721 89.1762 72.7061 89.8434 71.6878C90.0986 71.2983 90.3683 70.9152 90.639 70.5304C90.7239 70.4098 90.8089 70.289 90.8936 70.1679C91.243 69.6681 91.5851 69.1644 91.8756 68.6575L96.1379 62.6907C96.1386 62.6898 96.1393 62.6889 96.1399 62.688C96.4762 62.2421 96.9526 62.2026 97.2874 62.3829C97.6087 62.5559 97.8372 62.954 97.6231 63.5154C96.9109 64.6575 96.2699 65.8682 95.6349 67.0677L95.6323 67.0726C94.9902 68.2855 94.3539 69.487 93.6482 70.6163ZM81.8479 83.5389L81.8545 83.533L81.8607 83.5268C81.9452 83.4423 82.0257 83.4211 82.094 83.4231C82.1701 83.4253 82.2496 83.4579 82.3115 83.5095C82.3604 83.5503 82.3804 83.5868 82.3877 83.6059C82.3833 83.6088 82.3773 83.6124 82.3694 83.6163L82.3105 83.6458L82.2693 83.6972C79.9783 86.5609 77.9615 89.7254 76.806 93.1891C76.5062 93.9896 76.2729 94.8673 76.0417 95.7375C75.9398 96.1209 75.8383 96.5028 75.7317 96.876C75.3776 98.1151 74.9618 99.2835 74.2819 100.237C73.9106 100.73 73.4525 100.875 73.0906 100.797C72.7316 100.72 72.3781 100.405 72.2538 99.7878C71.9853 98.3068 72.3865 96.6636 73.0891 95.0475C73.7902 93.435 74.7748 91.8863 75.6285 90.6057C77.3231 88.0638 79.3007 85.8031 81.8479 83.5389ZM65.6037 111.468L65.6103 111.462L65.6165 111.455C65.7885 111.284 65.9323 111.238 66.0303 111.236C66.1298 111.234 66.2223 111.274 66.2966 111.349C66.4606 111.513 66.4705 111.748 66.3322 111.886L66.3204 111.898L66.3101 111.911C64.0198 114.774 62.0047 117.936 60.8493 121.111C60.3844 122.274 60.1045 123.535 59.8309 124.767C59.7632 125.071 59.6959 125.375 59.6262 125.674C59.2709 127.202 58.8528 128.652 58.0301 129.887L58.0078 129.92L57.9951 129.958C57.9143 130.2 57.5914 130.39 57.1612 130.359C56.756 130.33 56.3997 130.109 56.2937 129.706C56.0244 128.071 56.3633 126.279 56.9952 124.488C57.6278 122.696 58.544 120.932 59.3981 119.367C61.0928 116.26 63.0667 113.723 65.6037 111.468ZM64.9706 155.106L64.9778 155.11L64.9851 155.114C65.3951 155.319 65.5157 155.723 65.3995 156.158C65.2826 156.597 64.9381 156.991 64.5051 157.113C62.738 157.174 61.36 156.662 60.2857 155.789C59.199 154.906 58.4054 153.639 57.8476 152.174C56.7301 149.241 56.5861 145.588 56.8682 142.908L56.8698 142.893V142.877C56.8698 142.756 56.9159 142.681 56.9799 142.63C57.0515 142.573 57.1601 142.535 57.2823 142.535C57.4044 142.535 57.513 142.573 57.5846 142.63C57.6486 142.681 57.6947 142.756 57.6947 142.877C57.6947 145.469 58.2681 148.953 59.7352 151.3L59.7461 151.318L59.7592 151.334C61.0667 152.903 62.6127 153.775 64.3314 154.744C64.5419 154.863 64.755 154.983 64.9706 155.106ZM95.3008 165.12L95.3143 165.121H95.328C95.8923 165.121 96.3624 165.518 96.5413 166.025C96.7124 166.509 96.6052 167.057 96.0463 167.402C92.4313 168.925 88.5968 168.721 84.9093 167.562C81.2234 166.404 77.7017 164.296 74.7314 162.036C74.7251 162.025 74.7143 161.999 74.7124 161.95C74.7099 161.885 74.7256 161.811 74.7567 161.749C74.7882 161.686 74.8235 161.658 74.8441 161.649C74.8535 161.645 74.8803 161.634 74.9407 161.66C78.125 163.968 81.8783 165.118 85.9025 165.405L85.9132 165.405H85.9239C87.1894 165.405 88.4568 165.313 89.7115 165.222C90.024 165.199 90.3357 165.177 90.6463 165.155C92.2112 165.049 93.7587 164.979 95.3008 165.12ZM113.716 149.977L113.716 149.977L113.726 149.971C114.832 149.28 115.804 148.523 116.727 147.805L116.851 147.709C117.808 146.964 118.713 146.269 119.682 145.713C120.271 145.486 120.92 145.666 121.299 146.046C121.488 146.234 121.601 146.462 121.617 146.704C121.634 146.944 121.558 147.228 121.312 147.534L121.299 147.551L121.288 147.569C119.907 149.917 117.621 151.519 115.028 152.5C112.436 153.48 109.557 153.832 107.029 153.692L107.021 153.691H107.012C106.731 153.691 106.546 153.595 106.43 153.471C106.311 153.342 106.243 153.16 106.243 152.958C106.243 152.558 106.506 152.123 107.061 152.008C109.359 151.719 111.678 151.142 113.716 149.977ZM121.234 140.751L121.234 140.751L121.238 140.744C123.78 136.226 127.737 132.265 131.448 128.554C131.687 128.316 131.918 128.231 132.118 128.228C132.322 128.225 132.53 128.306 132.717 128.465C133.09 128.781 133.334 129.367 133.229 129.959C132.113 132.309 130.306 134.191 128.361 135.995C127.943 136.382 127.518 136.767 127.092 137.151C125.541 138.555 123.981 139.966 122.736 141.551L122.732 141.556C122.403 141.995 121.854 142.053 121.467 141.86C121.278 141.765 121.146 141.619 121.094 141.449C121.044 141.283 121.055 141.05 121.234 140.751ZM146.78 126.946L146.77 126.94L146.76 126.935C145.025 126.067 143.268 125.478 141.211 125.478C140.929 125.478 140.743 125.381 140.627 125.259C140.507 125.133 140.443 124.96 140.443 124.78C140.443 124.601 140.507 124.428 140.627 124.302C140.743 124.18 140.929 124.083 141.211 124.083C143.467 124.083 145.698 124.365 147.64 125.195C148.496 125.623 149.472 126.112 150.34 126.703C151.214 127.297 151.949 127.974 152.342 128.762C152.553 129.183 152.406 129.685 152.052 130.009C151.707 130.325 151.226 130.42 150.796 130.097L150.783 130.088L150.77 130.08C150.086 129.67 149.466 129.12 148.821 128.546L148.81 128.537C148.176 127.974 147.517 127.388 146.78 126.946ZM44.8481 31.1994C44.713 31.0643 44.6388 30.8053 44.8377 30.4926C48.5436 26.5028 53.3351 21.7254 58.3809 19.7603C58.6448 19.6757 58.9293 19.7988 59.0851 20.0845C59.2343 20.3581 59.2596 20.7952 58.907 21.276C58.0776 22.1019 57.1067 22.7964 56.0848 23.466C55.7477 23.6868 55.403 23.9062 55.0565 24.1267C54.357 24.5719 53.6496 25.0221 52.9795 25.5005C50.4098 27.2139 47.842 29.2107 45.5585 31.2076C45.2442 31.4093 44.9837 31.335 44.8481 31.1994Z" fill="url(#paint0_linear_1799_2560)" stroke="url(#paint1_linear_1799_2560)" stroke-width="0.6"/>
<path d="M155.345 121.583L155.345 121.583L155.345 121.581C154.761 120.297 155.383 119.053 156.395 118.439C156.897 118.135 157.458 118.014 157.961 118.111C158.446 118.205 158.93 118.512 159.291 119.17C160.584 121.757 161.753 124.422 162.929 127.105C163.301 127.952 163.673 128.801 164.051 129.65C165.617 133.174 167.263 136.683 169.27 139.983C169.609 140.678 169.552 141.496 169.23 142.111C168.907 142.728 168.378 143.051 167.796 142.954L167.775 142.95L167.753 142.948C164.144 142.67 160.804 142.928 157.263 143.201C157.131 143.211 156.998 143.222 156.865 143.232C156.264 143.233 155.686 143.268 155.149 143.301C154.916 143.315 154.691 143.329 154.474 143.339C153.738 143.374 153.074 143.372 152.423 143.242L152.374 143.232H152.325C152.022 143.232 151.865 143.23 151.746 143.206C151.662 143.189 151.609 143.164 151.539 143.093L151.392 142.947H151.193C151.186 142.945 151.159 142.934 151.116 142.893C151.052 142.834 150.984 142.738 150.937 142.62C150.834 142.363 150.881 142.178 150.969 142.091L151.107 141.952L151.115 141.944L151.254 141.806L151.538 141.521L151.563 141.496L151.585 141.467C151.902 141.044 152.465 140.793 153.188 140.62C153.542 140.536 153.907 140.477 154.269 140.418L154.315 140.411C154.64 140.359 154.971 140.306 155.259 140.236C158.098 139.952 160.655 139.668 163.208 139.384L163.209 139.384L164.003 139.296L163.577 138.62C160.958 134.474 159.018 130 157.082 125.539C156.509 124.216 155.936 122.894 155.345 121.583Z" fill="url(#paint2_linear_1799_2560)" stroke="url(#paint3_linear_1799_2560)"/>
</g>
<defs>
<linearGradient id="paint0_linear_1799_2560" x1="76.3701" y1="1.21289" x2="76.3701" y2="168.788" gradientUnits="userSpaceOnUse">
<stop stop-color="#EC9696"/>
<stop offset="1" stop-color="#ED2F51"/>
</linearGradient>
<linearGradient id="paint1_linear_1799_2560" x1="76.3701" y1="1.21289" x2="76.3701" y2="168.788" gradientUnits="userSpaceOnUse">
<stop stop-color="#EC9696"/>
<stop offset="1" stop-color="#ED2F51"/>
</linearGradient>
<linearGradient id="paint2_linear_1799_2560" x1="160.189" y1="117.578" x2="160.189" y2="143.858" gradientUnits="userSpaceOnUse">
<stop stop-color="#EC9696"/>
<stop offset="1" stop-color="#ED2F51"/>
</linearGradient>
<linearGradient id="paint3_linear_1799_2560" x1="160.189" y1="117.578" x2="160.189" y2="143.858" gradientUnits="userSpaceOnUse">
<stop stop-color="#EC9696"/>
<stop offset="1" stop-color="#ED2F51"/>
</linearGradient>
<clipPath id="clip0_1799_2560">
<rect width="170" height="170" fill="white"/>
</clipPath>
</defs>
</svg>
