<svg width="353" height="63" viewBox="0 0 353 63" fill="none" xmlns="http://www.w3.org/2000/svg">
<path d="M0.146965 62L0.146965 1.5758H16.8815L16.8815 18.6473L14.523 13.7056C16.32 9.43769 19.2027 6.21806 23.1711 4.04668C27.1394 1.80043 31.9689 0.677308 37.6594 0.677308V16.8503C36.9106 16.7754 36.2368 16.738 35.6378 16.738C35.0388 16.6631 34.4023 16.6257 33.7284 16.6257C28.9364 16.6257 25.0429 18.0109 22.0479 20.7813C19.1278 23.4768 17.6677 27.7072 17.6677 33.4726V62H0.146965ZM70.7749 62.8985C64.3357 62.8985 58.6077 61.5507 53.5911 58.8552C48.6493 56.1597 44.7184 52.4909 41.7983 47.8486C38.953 43.1315 37.5304 37.7779 37.5304 31.7879C37.5304 25.723 38.953 20.3695 41.7983 15.7272C44.7184 11.0101 48.6493 7.34119 53.5911 4.72056C58.6077 2.02506 64.3357 0.677308 70.7749 0.677308C77.1393 0.677308 82.8298 2.02506 87.8465 4.72056C92.8631 7.34119 96.794 10.9726 99.6393 15.6149C102.485 20.2571 103.907 25.6481 103.907 31.7879C103.907 37.7779 102.485 43.1315 99.6393 47.8486C96.794 52.4909 92.8631 56.1597 87.8465 58.8552C82.8298 61.5507 77.1393 62.8985 70.7749 62.8985ZM70.7749 48.5225C73.6951 48.5225 76.3157 47.8486 78.6368 46.5009C80.9579 45.1531 82.7924 43.2438 84.1401 40.7729C85.4879 38.2272 86.1618 35.2322 86.1618 31.7879C86.1618 28.2688 85.4879 25.2738 84.1401 22.8029C82.7924 20.332 80.9579 18.4227 78.6368 17.075C76.3157 15.7272 73.6951 15.0533 70.7749 15.0533C67.8548 15.0533 65.2342 15.7272 62.9131 17.075C60.5919 18.4227 58.72 20.332 57.2974 22.8029C55.9497 25.2738 55.2758 28.2688 55.2758 31.7879C55.2758 35.2322 55.9497 38.2272 57.2974 40.7729C58.72 43.2438 60.5919 45.1531 62.9131 46.5009C65.2342 47.8486 67.8548 48.5225 70.7749 48.5225ZM138.755 62.8985C132.316 62.8985 126.588 61.5507 121.571 58.8552C116.629 56.1597 112.698 52.4909 109.778 47.8486C106.933 43.1315 105.51 37.7779 105.51 31.7879C105.51 25.723 106.933 20.3695 109.778 15.7272C112.698 11.0101 116.629 7.34119 121.571 4.72056C126.588 2.02506 132.316 0.677308 138.755 0.677308C145.119 0.677308 150.81 2.02506 155.826 4.72056C160.843 7.34119 164.774 10.9726 167.619 15.6149C170.464 20.2571 171.887 25.6481 171.887 31.7879C171.887 37.7779 170.464 43.1315 167.619 47.8486C164.774 52.4909 160.843 56.1597 155.826 58.8552C150.81 61.5507 145.119 62.8985 138.755 62.8985ZM138.755 48.5225C141.675 48.5225 144.296 47.8486 146.617 46.5009C148.938 45.1531 150.772 43.2438 152.12 40.7729C153.468 38.2272 154.142 35.2322 154.142 31.7879C154.142 28.2688 153.468 25.2738 152.12 22.8029C150.772 20.332 148.938 18.4227 146.617 17.075C144.296 15.7272 141.675 15.0533 138.755 15.0533C135.835 15.0533 133.214 15.7272 130.893 17.075C128.572 18.4227 126.7 20.332 125.277 22.8029C123.93 25.2738 123.256 28.2688 123.256 31.7879C123.256 35.2322 123.93 38.2272 125.277 40.7729C126.7 43.2438 128.572 45.1531 130.893 46.5009C133.214 47.8486 135.835 48.5225 138.755 48.5225ZM192.735 62L167.352 1.5758L185.435 1.5758L206.549 53.5766H197.564L219.465 1.5758L236.312 1.5758L210.817 62H192.735ZM264.953 62.8985C258.514 62.8985 252.786 61.5507 247.769 58.8552C242.827 56.1597 238.896 52.4909 235.976 47.8486C233.131 43.1315 231.708 37.7779 231.708 31.7879C231.708 25.723 233.131 20.3695 235.976 15.7272C238.896 11.0101 242.827 7.34119 247.769 4.72056C252.786 2.02506 258.514 0.677308 264.953 0.677308C271.317 0.677308 277.008 2.02506 282.024 4.72056C287.041 7.34119 290.972 10.9726 293.817 15.6149C296.663 20.2571 298.085 25.6481 298.085 31.7879C298.085 37.7779 296.663 43.1315 293.817 47.8486C290.972 52.4909 287.041 56.1597 282.024 58.8552C277.008 61.5507 271.317 62.8985 264.953 62.8985ZM264.953 48.5225C267.873 48.5225 270.494 47.8486 272.815 46.5009C275.136 45.1531 276.97 43.2438 278.318 40.7729C279.666 38.2272 280.34 35.2322 280.34 31.7879C280.34 28.2688 279.666 25.2738 278.318 22.8029C276.97 20.332 275.136 18.4227 272.815 17.075C270.494 15.7272 267.873 15.0533 264.953 15.0533C262.033 15.0533 259.412 15.7272 257.091 17.075C254.77 18.4227 252.898 20.332 251.475 22.8029C250.128 25.2738 249.454 28.2688 249.454 31.7879C249.454 35.2322 250.128 38.2272 251.475 40.7729C252.898 43.2438 254.77 45.1531 257.091 46.5009C259.412 47.8486 262.033 48.5225 264.953 48.5225ZM302.478 62.336C301.433 62.336 300.537 61.9813 299.79 61.272C299.044 60.5253 298.67 59.592 298.67 58.472C298.67 57.352 299.044 56.4373 299.79 55.728C300.537 55.0187 301.433 54.664 302.478 54.664C303.486 54.664 304.345 55.0187 305.054 55.728C305.801 56.4373 306.174 57.352 306.174 58.472C306.174 59.592 305.801 60.5253 305.054 61.272C304.345 61.9813 303.486 62.336 302.478 62.336ZM311.078 62V32.32H316.454V62H311.078ZM313.766 26.608C312.72 26.608 311.843 26.272 311.134 25.6C310.462 24.928 310.126 24.1067 310.126 23.136C310.126 22.128 310.462 21.288 311.134 20.616C311.843 19.944 312.72 19.608 313.766 19.608C314.811 19.608 315.67 19.944 316.342 20.616C317.051 21.2507 317.406 22.0533 317.406 23.024C317.406 24.032 317.07 24.8907 316.398 25.6C315.726 26.272 314.848 26.608 313.766 26.608ZM339.766 32.04C342.193 32.04 344.321 32.5067 346.15 33.44C348.017 34.3733 349.473 35.792 350.518 37.696C351.564 39.6 352.086 42.008 352.086 44.92V62L346.71 62V45.536C346.71 42.6613 346.001 40.496 344.582 39.04C343.201 37.584 341.241 36.856 338.702 36.856C336.798 36.856 335.137 37.2293 333.718 37.976C332.3 38.7227 331.198 39.824 330.414 41.28C329.668 42.736 329.294 44.5467 329.294 46.712V62H323.918V32.32H329.07V40.328L328.23 38.2C329.201 36.2587 330.694 34.7467 332.71 33.664C334.726 32.5813 337.078 32.04 339.766 32.04Z" fill="#ED2F51"/>
</svg>
