<svg xmlns="http://www.w3.org/2000/svg" width="28" height="28" viewBox="0 0 28 28" fill="none">
<path d="M14.0111 21.5834C13.953 21.5833 13.8956 21.5705 13.8429 21.5461L6.71784 18.1191C6.65276 18.0868 6.59792 18.0371 6.55942 17.9755C6.52091 17.9139 6.50026 17.8428 6.49976 17.7701V10.0999C6.49956 10.0344 6.51603 9.96987 6.54762 9.91247C6.57921 9.85506 6.62488 9.80664 6.68034 9.77174C6.73579 9.73685 6.79921 9.71663 6.86463 9.713C6.93006 9.70936 6.99533 9.72242 7.05431 9.75096L14.1794 13.178C14.2444 13.2102 14.2993 13.26 14.3378 13.3216C14.3763 13.3832 14.3969 13.4542 14.3974 13.5269V21.1971C14.3974 21.2625 14.3809 21.3268 14.3493 21.384C14.3177 21.4412 14.2721 21.4895 14.2167 21.5243C14.1554 21.5634 14.0839 21.584 14.0111 21.5834ZM7.27239 17.5334L13.6248 20.5927V13.773L7.27239 10.7136V17.5334Z" fill="#ED2F51" stroke="#ED2F51" stroke-width="0.6"/>
<path d="M14.0111 13.9102C13.9572 13.9141 13.9031 13.9066 13.8522 13.8884L6.72715 10.4614C6.661 10.4306 6.60502 10.3815 6.5658 10.32C6.52657 10.2585 6.50574 10.187 6.50574 10.114C6.50574 10.0411 6.52657 9.96961 6.5658 9.90807C6.60502 9.84654 6.661 9.79748 6.72715 9.76667L13.8522 6.32409C13.9043 6.29942 13.9612 6.28662 14.0189 6.28662C14.0765 6.28662 14.1334 6.29942 14.1855 6.32409L21.3106 9.75109C21.3761 9.78279 21.4314 9.83237 21.4699 9.89411C21.5085 9.95584 21.5289 10.0272 21.5287 10.1C21.5287 10.1724 21.5082 10.2432 21.4696 10.3044C21.431 10.3656 21.3759 10.4147 21.3106 10.4458L14.1637 13.8884C14.1148 13.9059 14.0629 13.9133 14.0111 13.9102ZM7.78018 10.0969L14.0111 13.0971L20.242 10.1031L14.0111 7.09984L7.78018 10.0969Z" fill="#ED2F51" stroke="#ED2F51" stroke-width="0.6"/>
<path d="M14.0112 21.5841C13.9383 21.5846 13.8669 21.564 13.8055 21.5249C13.7502 21.4901 13.7046 21.4418 13.673 21.3846C13.6414 21.3274 13.6248 21.2631 13.6248 21.1977V13.5306C13.6246 13.4578 13.645 13.3864 13.6836 13.3247C13.7221 13.263 13.7774 13.2134 13.8429 13.1817L20.968 9.75468C21.0269 9.72615 21.0922 9.71308 21.1576 9.71672C21.2231 9.72036 21.2865 9.74057 21.3419 9.77547C21.3974 9.81036 21.4431 9.85879 21.4747 9.91619C21.5062 9.97359 21.5227 10.0381 21.5225 10.1036V17.7676C21.5227 17.8404 21.5024 17.9118 21.4638 17.9735C21.4252 18.0353 21.37 18.0849 21.3044 18.1166L14.1638 21.5467C14.116 21.5695 14.0641 21.5822 14.0112 21.5841ZM14.3975 13.7736V20.584L20.7499 17.5246V10.7142L14.3975 13.7736ZM10.4471 12.1972C10.3603 12.1963 10.2764 12.1663 10.2088 12.1119C10.1412 12.0575 10.0939 11.982 10.0745 11.8974C10.0551 11.8129 10.0647 11.7242 10.1017 11.6458C10.1388 11.5674 10.2012 11.5037 10.2788 11.4651L17.407 8.03807C17.4992 7.99414 17.605 7.98849 17.7013 8.02235C17.7976 8.05621 17.8766 8.12682 17.9211 8.21876C17.9432 8.26433 17.9561 8.31384 17.959 8.36443C17.962 8.41503 17.9548 8.46569 17.938 8.5135C17.9212 8.56131 17.8951 8.60531 17.8611 8.64295C17.8272 8.6806 17.7862 8.71114 17.7404 8.73281L10.6153 12.1598C10.5625 12.184 10.5052 12.1968 10.4471 12.1972ZM11.4035 15.5619C11.3454 15.5621 11.2879 15.5494 11.2353 15.5245L9.13236 14.512C9.08655 14.4903 9.0455 14.4598 9.01157 14.4221C8.97765 14.3845 8.95153 14.3405 8.93472 14.2927C8.91792 14.2449 8.91076 14.1942 8.91367 14.1436C8.91658 14.093 8.92949 14.0435 8.95166 13.9979C8.99608 13.906 9.07508 13.8354 9.17141 13.8015C9.26773 13.7677 9.37354 13.7733 9.46571 13.8172L11.5686 14.8235C11.6461 14.862 11.7084 14.9254 11.7455 15.0036C11.7826 15.0817 11.7925 15.17 11.7734 15.2544C11.7544 15.3388 11.7076 15.4143 11.6405 15.4689C11.5735 15.5236 11.49 15.5541 11.4035 15.5557V15.5619Z" fill="#ED2F51" stroke="#ED2F51" stroke-width="0.6"/>
<path d="M2.30635 19.1004C2.23096 19.1016 2.15686 19.0807 2.09319 19.0403C2.02953 18.9999 1.97908 18.9418 1.94808 18.873C0.77872 15.9812 0.688098 12.7653 1.69275 9.81215C2.6974 6.85904 4.73035 4.36558 7.42062 2.78677C10.1109 1.20797 13.2792 0.649073 16.3473 1.21207C19.4154 1.77507 22.1788 3.42242 24.1332 5.85354C24.1695 5.89223 24.1974 5.93798 24.2152 5.98792C24.233 6.03786 24.2403 6.09094 24.2367 6.14383C24.2331 6.19673 24.2186 6.24832 24.1942 6.2954C24.1698 6.34247 24.136 6.38401 24.0949 6.41745C24.0537 6.45088 24.0061 6.47549 23.9551 6.48973C23.904 6.50398 23.8505 6.50756 23.798 6.50025C23.7455 6.49294 23.6951 6.47491 23.6498 6.44726C23.6046 6.41961 23.5655 6.38295 23.5351 6.33955C21.6965 4.05974 19.1008 2.51553 16.2199 1.98778C13.3391 1.46003 10.3645 1.9838 7.83715 3.46382C5.30983 4.94385 3.39766 7.28181 2.44841 10.0525C1.49916 12.8232 1.57588 15.8426 2.66463 18.5615C2.68803 18.62 2.69673 18.6835 2.68997 18.7462C2.68321 18.8089 2.6612 18.869 2.62586 18.9212C2.59052 18.9735 2.54292 19.0163 2.48723 19.0459C2.43153 19.0755 2.36943 19.091 2.30635 19.0911V19.1004ZM14.0267 27.0012C12.0815 27.0059 10.1601 26.5735 8.40432 25.7361C6.64859 24.8986 5.10337 23.6775 3.88277 22.1629C3.81833 22.0803 3.78934 21.9755 3.80219 21.8715C3.81505 21.7675 3.86869 21.6728 3.95131 21.6084C4.03394 21.5439 4.13879 21.515 4.24278 21.5278C4.34678 21.5407 4.44142 21.5943 4.50586 21.6769C6.35565 23.9541 8.96246 25.4902 11.8507 26.0052C14.7389 26.5202 17.716 25.9796 20.2388 24.4821C22.7616 22.9846 24.6619 20.63 25.593 17.8479C26.5241 15.0658 26.424 12.0417 25.3109 9.32727C25.2899 9.28017 25.2786 9.22936 25.2777 9.17783C25.2767 9.1263 25.286 9.07509 25.3051 9.02722C25.3242 8.97935 25.3527 8.93579 25.3889 8.8991C25.4251 8.86241 25.4683 8.83333 25.5159 8.81359C25.5635 8.79384 25.6146 8.78381 25.6661 8.7841C25.7176 8.7844 25.7686 8.795 25.816 8.81529C25.8634 8.83558 25.9062 8.86514 25.942 8.90224C25.9777 8.93934 26.0057 8.98322 26.0243 9.0313C27.0857 11.6292 27.2838 14.4994 26.5893 17.2185C25.8948 19.9375 24.3446 22.3612 22.1674 24.1319C19.8624 25.9922 16.9887 27.0051 14.0267 27.0012Z" fill="#ED2F51" stroke="#ED2F51" stroke-width="0.6"/>
<path d="M23.8653 6.51055H23.8217L20.2233 6.12112C20.1267 6.10411 20.0401 6.05097 19.9813 5.97248C19.9224 5.89399 19.8956 5.79604 19.9063 5.69851C19.917 5.60098 19.9644 5.51117 20.0389 5.44732C20.1134 5.38348 20.2094 5.35037 20.3074 5.35472L23.5101 5.70054L23.8684 2.48539C23.8707 2.4326 23.8839 2.38085 23.907 2.33334C23.9302 2.28583 23.9628 2.24358 24.0029 2.20919C24.0431 2.17481 24.0898 2.14902 24.1403 2.13342C24.1908 2.11782 24.2439 2.11275 24.2965 2.11852C24.349 2.12428 24.3998 2.14076 24.4457 2.16694C24.4916 2.19312 24.5316 2.22843 24.5634 2.2707C24.5951 2.31297 24.6178 2.3613 24.6301 2.4127C24.6423 2.46409 24.644 2.51746 24.6348 2.56951L24.2485 6.16785C24.2369 6.26964 24.1853 6.36265 24.1052 6.42644C24.0374 6.4814 23.9526 6.51114 23.8653 6.51055ZM3.77372 25.8731H3.73011C3.62858 25.8621 3.53554 25.8114 3.47132 25.732C3.4071 25.6526 3.37693 25.551 3.38741 25.4494L3.77684 21.851C3.78168 21.8007 3.79659 21.7519 3.82068 21.7075C3.84476 21.6631 3.87753 21.624 3.91703 21.5925C3.9968 21.5282 4.09865 21.498 4.20054 21.5083L7.79889 21.8947C7.89506 21.9118 7.98117 21.9648 8.03986 22.0429C8.09855 22.121 8.12547 22.2184 8.1152 22.3156C8.10493 22.4127 8.05824 22.5024 7.98452 22.5665C7.9108 22.6306 7.81553 22.6644 7.71789 22.6611L4.50586 22.3152L4.15381 25.5304C4.14383 25.6243 4.09951 25.7112 4.02936 25.7745C3.95921 25.8377 3.86818 25.8729 3.77372 25.8731Z" fill="#ED2F51" stroke="#ED2F51" stroke-width="0.6"/>
</svg>