<svg width="19" height="19" viewBox="0 0 19 19" fill="none" xmlns="http://www.w3.org/2000/svg">
<path d="M14.1665 1.50005C14.3854 1.28118 14.6452 1.10756 14.9312 0.98911C15.2171 0.870658 15.5236 0.809692 15.8332 0.809692C16.1427 0.809692 16.4492 0.870658 16.7352 0.98911C17.0211 1.10756 17.281 1.28118 17.4998 1.50005C17.7187 1.71892 17.8923 1.97875 18.0108 2.26472C18.1292 2.55069 18.1902 2.85719 18.1902 3.16672C18.1902 3.47624 18.1292 3.78274 18.0108 4.06871C17.8923 4.35468 17.7187 4.61451 17.4998 4.83338L6.24984 16.0834L1.6665 17.3334L2.9165 12.75L14.1665 1.50005Z" stroke="#ED2F51" stroke-width="1.5" stroke-linecap="round" stroke-linejoin="round"/>
</svg>
