<svg width="74" height="74" viewBox="0 0 74 74" fill="none" xmlns="http://www.w3.org/2000/svg">
<path d="M41.2308 36.9885C41.2308 37.8254 40.9827 38.6434 40.5178 39.3392C40.0529 40.035 39.3921 40.5774 38.6191 40.8976C37.846 41.2179 36.9953 41.3017 36.1746 41.1384C35.3539 40.9751 34.6001 40.5721 34.0084 39.9804C33.4167 39.3887 33.0138 38.6347 32.8505 37.814C32.6873 36.9932 32.7711 36.1425 33.0913 35.3693C33.4115 34.5962 33.9538 33.9354 34.6495 33.4704C35.3453 33.0055 36.1632 32.7573 37 32.7573C38.1221 32.7573 39.1982 33.2031 39.9916 33.9966C40.785 34.7901 41.2308 35.8663 41.2308 36.9885ZM21.4872 32.7573C20.6504 32.7573 19.8324 33.0055 19.1367 33.4704C18.441 33.9354 17.8987 34.5962 17.5785 35.3693C17.2583 36.1425 17.1745 36.9932 17.3377 37.814C17.501 38.6347 17.9039 39.3887 18.4956 39.9804C19.0873 40.5721 19.8411 40.9751 20.6618 41.1384C21.4825 41.3017 22.3332 41.2179 23.1062 40.8976C23.8793 40.5774 24.5401 40.035 25.0049 39.3392C25.4698 38.6434 25.718 37.8254 25.718 36.9885C25.718 35.8663 25.2722 34.7901 24.4788 33.9966C23.6854 33.2031 22.6093 32.7573 21.4872 32.7573ZM52.5128 32.7573C51.6761 32.7573 50.8581 33.0055 50.1623 33.4704C49.4666 33.9354 48.9243 34.5962 48.6041 35.3693C48.2839 36.1425 48.2001 36.9932 48.3634 37.814C48.5266 38.6347 48.9295 39.3887 49.5212 39.9804C50.1129 40.5721 50.8668 40.9751 51.6875 41.1384C52.5081 41.3017 53.3588 41.2179 54.1319 40.8976C54.9049 40.5774 55.5657 40.035 56.0306 39.3392C56.4955 38.6434 56.7436 37.8254 56.7436 36.9885C56.7436 35.8663 56.2979 34.7901 55.5044 33.9966C54.711 33.2031 53.6349 32.7573 52.5128 32.7573ZM73.6667 36.9885C73.6681 43.3195 72.0305 49.5431 68.9133 55.0533C65.7962 60.5636 61.3056 65.1729 55.8788 68.4326C50.4519 71.6923 44.2737 73.4913 37.9454 73.6545C31.6171 73.8177 25.3543 72.3396 19.7667 69.3641L7.76187 73.366C6.76794 73.6975 5.70134 73.7457 4.68161 73.505C3.66188 73.2643 2.72932 72.7444 1.98846 72.0034C1.24759 71.2625 0.727702 70.3298 0.487053 69.31C0.246403 68.2902 0.294506 67.2235 0.625971 66.2295L4.62757 54.2235C2.01207 49.3056 0.551218 43.8564 0.355898 38.2895C0.160579 32.7226 1.23593 27.1844 3.50032 22.0953C5.76471 17.0061 9.15863 12.4997 13.4245 8.91817C17.6903 5.33664 22.7159 2.7741 28.1199 1.42505C33.5238 0.0760039 39.164 -0.0240881 44.6124 1.13237C50.0608 2.28883 55.1742 4.67144 59.5644 8.09936C63.9546 11.5273 67.5063 15.9104 69.9498 20.916C72.3933 25.9217 73.6644 31.4182 73.6667 36.9885ZM68.0257 36.9885C68.0243 32.2289 66.9281 27.5334 64.8219 23.2652C62.7156 18.9971 59.6558 15.2707 55.8792 12.3745C52.1025 9.47823 47.7102 7.48972 43.0422 6.5628C38.3741 5.63587 33.5554 5.79537 28.9588 7.02897C24.3623 8.26256 20.1111 10.5372 16.5342 13.6768C12.9573 16.8165 10.1506 20.737 8.33112 25.1351C6.51169 29.5332 5.72834 34.2909 6.04169 39.0402C6.35503 43.7896 7.75667 48.4031 10.1382 52.524C10.338 52.8699 10.4621 53.2544 10.5023 53.652C10.5424 54.0495 10.4976 54.451 10.3708 54.83L5.97437 68.0171L19.1603 63.6202C19.4475 63.5223 19.7488 63.4723 20.0523 63.4721C20.5476 63.473 21.034 63.6044 21.4625 63.853C26.1791 66.5821 31.5313 68.0208 36.9804 68.0243C42.4296 68.0277 47.7835 66.5958 52.5036 63.8726C57.2236 61.1493 61.1433 57.2309 63.8681 52.5115C66.593 47.7921 68.0269 42.4382 68.0257 36.9885Z" fill="#EDEDED"/>
</svg>
