<svg xmlns="http://www.w3.org/2000/svg" width="36" height="24" viewBox="0 0 36 24" fill="none">
<mask id="path-1-inside-1_424_2063" fill="white">
<path d="M35.6602 13.3484L32.7784 7.00852C32.5395 6.48467 32.1552 6.04047 31.6711 5.72872C31.1871 5.41698 30.6236 5.25082 30.0479 5.25H24.7463V3C24.7457 2.40346 24.5084 1.83154 24.0866 1.40973C23.6648 0.987913 23.0929 0.750651 22.4963 0.75H3.74631C3.14977 0.750651 2.57785 0.987913 2.15604 1.40973C1.73422 1.83154 1.49696 2.40346 1.49631 3V12C1.49535 12.0991 1.51404 12.1974 1.5513 12.2892C1.58856 12.3811 1.64365 12.4646 1.71339 12.535C1.78313 12.6055 1.86613 12.6613 1.9576 12.6995C2.04907 12.7376 2.14719 12.7573 2.2463 12.7573C2.3454 12.7573 2.44353 12.7376 2.535 12.6995C2.62647 12.6613 2.70947 12.6055 2.77921 12.535C2.84894 12.4646 2.90404 12.3811 2.9413 12.2892C2.97856 12.1974 2.99725 12.0991 2.99629 12V3C2.99651 2.80115 3.0756 2.61051 3.21621 2.4699C3.35682 2.32929 3.54746 2.2502 3.74631 2.24998H22.4963C22.6952 2.2502 22.8858 2.32929 23.0264 2.4699C23.167 2.61051 23.2461 2.80115 23.2464 3V15C23.2461 15.1988 23.167 15.3895 23.0264 15.53C22.8858 15.6706 22.6952 15.7497 22.4963 15.75H13.4963C13.2987 15.7519 13.1098 15.8318 12.9707 15.9722C12.8316 16.1126 12.7536 16.3023 12.7536 16.5C12.7536 16.6976 12.8316 16.8873 12.9707 17.0277C13.1098 17.1682 13.2987 17.248 13.4963 17.25H22.4963C23.0929 17.2493 23.6648 17.012 24.0866 16.5902C24.5084 16.1684 24.7457 15.5965 24.7463 15V6.74998H30.0479C30.3358 6.75037 30.6176 6.83345 30.8597 6.98932C31.1017 7.14518 31.294 7.36729 31.4135 7.62923L31.6957 8.24995H28.4964C28.0987 8.25034 27.7174 8.40851 27.4362 8.68973C27.1549 8.97096 26.9967 9.35228 26.9963 9.75V12.75C26.9967 13.1477 27.1549 13.529 27.4361 13.8102C27.7173 14.0915 28.0986 14.2496 28.4963 14.25H34.3885C34.4566 14.46 34.493 14.679 34.4966 14.8997V18C34.4964 18.1989 34.4172 18.3896 34.2766 18.5302C34.1359 18.6708 33.9452 18.7498 33.7463 18.75H31.4205C31.2476 17.9031 30.7875 17.142 30.118 16.5954C29.4485 16.0487 28.6107 15.7502 27.7464 15.7502C26.882 15.7502 26.0442 16.0487 25.3747 16.5954C24.7052 17.142 24.2451 17.9031 24.0722 18.75H11.9206C11.7477 17.9031 11.2875 17.142 10.618 16.5954C9.9485 16.0487 9.11071 15.7502 8.24638 15.7502C7.38205 15.7502 6.54426 16.0487 5.87475 16.5954C5.20523 17.142 4.7451 17.9031 4.5722 18.75H3.74631C3.54747 18.7497 3.35685 18.6706 3.21625 18.53C3.07565 18.3894 2.99655 18.1988 2.99629 18V17.25C3.19394 17.2481 3.38284 17.1682 3.52193 17.0278C3.66102 16.8874 3.73905 16.6977 3.73905 16.5C3.73905 16.3024 3.66102 16.1127 3.52193 15.9723C3.38284 15.8318 3.19394 15.752 2.99629 15.75H0.746286C0.548635 15.752 0.359729 15.8318 0.22064 15.9723C0.0815514 16.1127 0.00352478 16.3024 0.00352478 16.5C0.00352478 16.6977 0.0815514 16.8874 0.22064 17.0278C0.359729 17.1682 0.548635 17.2481 0.746286 17.25H1.49631V18C1.49696 18.5966 1.73422 19.1685 2.15604 19.5903C2.57785 20.0121 3.14977 20.2494 3.74631 20.25H4.57213C4.74503 21.0969 5.20516 21.858 5.87468 22.4047C6.54419 22.9513 7.38198 23.2499 8.24631 23.2499C9.11063 23.2499 9.94843 22.9513 10.6179 22.4047C11.2875 21.858 11.7476 21.0969 11.9205 20.25H24.0721C24.245 21.0969 24.7051 21.858 25.3747 22.4047C26.0442 22.9513 26.882 23.2499 27.7463 23.2499C28.6106 23.2499 29.4484 22.9513 30.1179 22.4047C30.7874 21.858 31.2476 21.0969 31.4205 20.25H33.7463C34.3429 20.2494 34.9148 20.0121 35.3366 19.5903C35.7584 19.1685 35.9957 18.5966 35.9963 18V14.8997C35.9972 14.3644 35.8825 13.8353 35.6602 13.3484ZM8.24631 21.75C7.8013 21.75 7.36629 21.6181 6.99628 21.3708C6.62627 21.1236 6.33788 20.7722 6.16758 20.3611C5.99728 19.9499 5.95273 19.4975 6.03954 19.0611C6.12636 18.6246 6.34065 18.2237 6.65532 17.909C6.96999 17.5944 7.3709 17.3801 7.80736 17.2933C8.24381 17.2064 8.69621 17.251 9.10735 17.4213C9.51848 17.5916 9.86988 17.88 10.1171 18.25C10.3644 18.62 10.4963 19.055 10.4963 19.5C10.4957 20.0966 10.2584 20.6685 9.83658 21.0903C9.41476 21.5121 8.84285 21.7494 8.24631 21.75ZM27.7463 21.75C27.3013 21.75 26.8663 21.6181 26.4963 21.3708C26.1262 21.1236 25.8379 20.7722 25.6676 20.3611C25.4973 19.9499 25.4527 19.4975 25.5395 19.0611C25.6263 18.6246 25.8406 18.2237 26.1553 17.909C26.47 17.5944 26.8709 17.3801 27.3073 17.2933C27.7438 17.2064 28.1962 17.251 28.6073 17.4213C29.0185 17.5916 29.3699 17.88 29.6171 18.25C29.8643 18.62 29.9963 19.055 29.9963 19.5C29.9956 20.0965 29.7584 20.6685 29.3366 21.0903C28.9148 21.5121 28.3429 21.7494 27.7464 21.75H27.7463ZM28.4963 9.75H32.3771L33.7408 12.75H28.4963V9.75Z"/>
</mask>
<path d="M35.6602 13.3484L32.7784 7.00852C32.5395 6.48467 32.1552 6.04047 31.6711 5.72872C31.1871 5.41698 30.6236 5.25082 30.0479 5.25H24.7463V3C24.7457 2.40346 24.5084 1.83154 24.0866 1.40973C23.6648 0.987913 23.0929 0.750651 22.4963 0.75H3.74631C3.14977 0.750651 2.57785 0.987913 2.15604 1.40973C1.73422 1.83154 1.49696 2.40346 1.49631 3V12C1.49535 12.0991 1.51404 12.1974 1.5513 12.2892C1.58856 12.3811 1.64365 12.4646 1.71339 12.535C1.78313 12.6055 1.86613 12.6613 1.9576 12.6995C2.04907 12.7376 2.14719 12.7573 2.2463 12.7573C2.3454 12.7573 2.44353 12.7376 2.535 12.6995C2.62647 12.6613 2.70947 12.6055 2.77921 12.535C2.84894 12.4646 2.90404 12.3811 2.9413 12.2892C2.97856 12.1974 2.99725 12.0991 2.99629 12V3C2.99651 2.80115 3.0756 2.61051 3.21621 2.4699C3.35682 2.32929 3.54746 2.2502 3.74631 2.24998H22.4963C22.6952 2.2502 22.8858 2.32929 23.0264 2.4699C23.167 2.61051 23.2461 2.80115 23.2464 3V15C23.2461 15.1988 23.167 15.3895 23.0264 15.53C22.8858 15.6706 22.6952 15.7497 22.4963 15.75H13.4963C13.2987 15.7519 13.1098 15.8318 12.9707 15.9722C12.8316 16.1126 12.7536 16.3023 12.7536 16.5C12.7536 16.6976 12.8316 16.8873 12.9707 17.0277C13.1098 17.1682 13.2987 17.248 13.4963 17.25H22.4963C23.0929 17.2493 23.6648 17.012 24.0866 16.5902C24.5084 16.1684 24.7457 15.5965 24.7463 15V6.74998H30.0479C30.3358 6.75037 30.6176 6.83345 30.8597 6.98932C31.1017 7.14518 31.294 7.36729 31.4135 7.62923L31.6957 8.24995H28.4964C28.0987 8.25034 27.7174 8.40851 27.4362 8.68973C27.1549 8.97096 26.9967 9.35228 26.9963 9.75V12.75C26.9967 13.1477 27.1549 13.529 27.4361 13.8102C27.7173 14.0915 28.0986 14.2496 28.4963 14.25H34.3885C34.4566 14.46 34.493 14.679 34.4966 14.8997V18C34.4964 18.1989 34.4172 18.3896 34.2766 18.5302C34.1359 18.6708 33.9452 18.7498 33.7463 18.75H31.4205C31.2476 17.9031 30.7875 17.142 30.118 16.5954C29.4485 16.0487 28.6107 15.7502 27.7464 15.7502C26.882 15.7502 26.0442 16.0487 25.3747 16.5954C24.7052 17.142 24.2451 17.9031 24.0722 18.75H11.9206C11.7477 17.9031 11.2875 17.142 10.618 16.5954C9.9485 16.0487 9.11071 15.7502 8.24638 15.7502C7.38205 15.7502 6.54426 16.0487 5.87475 16.5954C5.20523 17.142 4.7451 17.9031 4.5722 18.75H3.74631C3.54747 18.7497 3.35685 18.6706 3.21625 18.53C3.07565 18.3894 2.99655 18.1988 2.99629 18V17.25C3.19394 17.2481 3.38284 17.1682 3.52193 17.0278C3.66102 16.8874 3.73905 16.6977 3.73905 16.5C3.73905 16.3024 3.66102 16.1127 3.52193 15.9723C3.38284 15.8318 3.19394 15.752 2.99629 15.75H0.746286C0.548635 15.752 0.359729 15.8318 0.22064 15.9723C0.0815514 16.1127 0.00352478 16.3024 0.00352478 16.5C0.00352478 16.6977 0.0815514 16.8874 0.22064 17.0278C0.359729 17.1682 0.548635 17.2481 0.746286 17.25H1.49631V18C1.49696 18.5966 1.73422 19.1685 2.15604 19.5903C2.57785 20.0121 3.14977 20.2494 3.74631 20.25H4.57213C4.74503 21.0969 5.20516 21.858 5.87468 22.4047C6.54419 22.9513 7.38198 23.2499 8.24631 23.2499C9.11063 23.2499 9.94843 22.9513 10.6179 22.4047C11.2875 21.858 11.7476 21.0969 11.9205 20.25H24.0721C24.245 21.0969 24.7051 21.858 25.3747 22.4047C26.0442 22.9513 26.882 23.2499 27.7463 23.2499C28.6106 23.2499 29.4484 22.9513 30.1179 22.4047C30.7874 21.858 31.2476 21.0969 31.4205 20.25H33.7463C34.3429 20.2494 34.9148 20.0121 35.3366 19.5903C35.7584 19.1685 35.9957 18.5966 35.9963 18V14.8997C35.9972 14.3644 35.8825 13.8353 35.6602 13.3484ZM8.24631 21.75C7.8013 21.75 7.36629 21.6181 6.99628 21.3708C6.62627 21.1236 6.33788 20.7722 6.16758 20.3611C5.99728 19.9499 5.95273 19.4975 6.03954 19.0611C6.12636 18.6246 6.34065 18.2237 6.65532 17.909C6.96999 17.5944 7.3709 17.3801 7.80736 17.2933C8.24381 17.2064 8.69621 17.251 9.10735 17.4213C9.51848 17.5916 9.86988 17.88 10.1171 18.25C10.3644 18.62 10.4963 19.055 10.4963 19.5C10.4957 20.0966 10.2584 20.6685 9.83658 21.0903C9.41476 21.5121 8.84285 21.7494 8.24631 21.75ZM27.7463 21.75C27.3013 21.75 26.8663 21.6181 26.4963 21.3708C26.1262 21.1236 25.8379 20.7722 25.6676 20.3611C25.4973 19.9499 25.4527 19.4975 25.5395 19.0611C25.6263 18.6246 25.8406 18.2237 26.1553 17.909C26.47 17.5944 26.8709 17.3801 27.3073 17.2933C27.7438 17.2064 28.1962 17.251 28.6073 17.4213C29.0185 17.5916 29.3699 17.88 29.6171 18.25C29.8643 18.62 29.9963 19.055 29.9963 19.5C29.9956 20.0965 29.7584 20.6685 29.3366 21.0903C28.9148 21.5121 28.3429 21.7494 27.7464 21.75H27.7463ZM28.4963 9.75H32.3771L33.7408 12.75H28.4963V9.75Z" fill="#ED2F51" stroke="white" stroke-width="0.2" mask="url(#path-1-inside-1_424_2063)"/>
<mask id="path-2-inside-2_424_2063" fill="white">
<path d="M12.9496 7.87502C12.949 7.37792 12.7512 6.90136 12.3997 6.54986C12.0482 6.19836 11.5717 6.00061 11.0746 6H9.57459C9.37567 6 9.1849 6.07902 9.04424 6.21968C8.90359 6.36033 8.82457 6.5511 8.82457 6.75002V11.25C8.82361 11.3491 8.8423 11.4474 8.87956 11.5393C8.91682 11.6311 8.97191 11.7146 9.04165 11.7851C9.11138 11.8555 9.19439 11.9114 9.28586 11.9495C9.37733 11.9877 9.47545 12.0073 9.57455 12.0073C9.67366 12.0073 9.77178 11.9877 9.86325 11.9495C9.95472 11.9114 10.0377 11.8555 10.1075 11.7851C10.1772 11.7146 10.2323 11.6311 10.2696 11.5393C10.3068 11.4474 10.3255 11.3491 10.3245 11.25V10.3532L11.5417 11.7439C11.6062 11.8192 11.685 11.8809 11.7735 11.9255C11.862 11.9701 11.9585 11.9967 12.0573 12.0038C12.1562 12.0109 12.2555 11.9983 12.3495 11.9668C12.4435 11.9353 12.5303 11.8854 12.6049 11.8202C12.6795 11.7549 12.7404 11.6754 12.7841 11.5865C12.8278 11.4975 12.8534 11.4008 12.8595 11.3018C12.8655 11.2029 12.8519 11.1037 12.8194 11.0101C12.787 10.9164 12.7362 10.8301 12.6702 10.7562L11.6971 9.64388C12.063 9.51455 12.3799 9.27505 12.6042 8.95831C12.8285 8.64157 12.9491 8.26313 12.9496 7.87502ZM11.0746 8.25H10.3246V7.50005H11.0746C11.1741 7.50005 11.2695 7.53956 11.3398 7.60989C11.4101 7.68021 11.4496 7.7756 11.4496 7.87506C11.4496 7.97452 11.4101 8.0699 11.3398 8.14023C11.2695 8.21056 11.1741 8.25007 11.0746 8.25007L11.0746 8.25ZM7.49636 7.50005C7.69401 7.49813 7.88292 7.41827 8.02201 7.27783C8.1611 7.13739 8.23912 6.94772 8.23912 6.75006C8.23912 6.5524 8.1611 6.36273 8.02201 6.22229C7.88292 6.08184 7.69401 6.00198 7.49636 6.00007H5.24636C5.04746 6.00007 4.8567 6.07908 4.71604 6.21972C4.57539 6.36036 4.49636 6.55112 4.49634 6.75002V11.25C4.49538 11.3491 4.51407 11.4474 4.55133 11.5393C4.58859 11.6311 4.64368 11.7146 4.71342 11.7851C4.78316 11.8555 4.86616 11.9114 4.95763 11.9495C5.0491 11.9877 5.14722 12.0073 5.24633 12.0073C5.34543 12.0073 5.44356 11.9877 5.53503 11.9495C5.6265 11.9114 5.7095 11.8555 5.77924 11.7851C5.84897 11.7146 5.90406 11.6311 5.94132 11.5393C5.97858 11.4474 5.99728 11.3491 5.99632 11.25V9.75005H7.12132C7.22042 9.75101 7.31873 9.73232 7.41056 9.69506C7.50239 9.6578 7.58593 9.6027 7.65635 9.53297C7.72677 9.46323 7.78266 9.38023 7.82081 9.28876C7.85896 9.19729 7.8786 9.09916 7.8786 9.00006C7.8786 8.90095 7.85896 8.80283 7.82081 8.71136C7.78266 8.61989 7.72677 8.53689 7.65635 8.46715C7.58593 8.39741 7.50239 8.34232 7.41056 8.30506C7.31873 8.2678 7.22042 8.24911 7.12132 8.25007H5.99632V7.50005H7.49636ZM20.9964 7.50005C21.194 7.49813 21.3829 7.41827 21.522 7.27783C21.6611 7.13739 21.7391 6.94772 21.7391 6.75006C21.7391 6.5524 21.6611 6.36273 21.522 6.22229C21.3829 6.08184 21.194 6.00198 20.9964 6.00007H18.7464C18.5475 6.00007 18.3567 6.07908 18.216 6.21972C18.0754 6.36036 17.9964 6.55112 17.9963 6.75002V11.25C17.9963 11.4489 18.0754 11.6397 18.216 11.7804C18.3567 11.921 18.5474 12 18.7464 12H20.9964C21.194 11.9981 21.3829 11.9183 21.522 11.7778C21.6611 11.6374 21.7391 11.4477 21.7391 11.2501C21.7391 11.0524 21.6611 10.8627 21.522 10.7223C21.3829 10.5818 21.194 10.502 20.9964 10.5001H19.4963V9.75005H20.6044C20.7035 9.75101 20.8019 9.73232 20.8937 9.69506C20.9855 9.6578 21.0691 9.6027 21.1395 9.53297C21.2099 9.46323 21.2658 9.38023 21.3039 9.28876C21.3421 9.19729 21.3617 9.09916 21.3617 9.00006C21.3617 8.90095 21.3421 8.80283 21.3039 8.71136C21.2658 8.61989 21.2099 8.53689 21.1395 8.46715C21.0691 8.39741 20.9855 8.34232 20.8937 8.30506C20.8019 8.2678 20.7035 8.24911 20.6044 8.25007H19.4963V7.50005H20.9964ZM16.6838 7.50005C16.7829 7.50101 16.8812 7.48232 16.9731 7.44506C17.0649 7.4078 17.1484 7.3527 17.2188 7.28297C17.2893 7.21323 17.3452 7.13023 17.3833 7.03876C17.4215 6.94729 17.4411 6.84916 17.4411 6.75006C17.4411 6.65095 17.4215 6.55283 17.3833 6.46136C17.3452 6.36989 17.2893 6.28689 17.2188 6.21715C17.1484 6.14741 17.0649 6.09232 16.9731 6.05506C16.8812 6.0178 16.7829 5.99911 16.6838 6.00007H14.4338C14.2349 6.00007 14.0441 6.07909 13.9035 6.21975C13.7628 6.3604 13.6838 6.55118 13.6838 6.75009V11.2501C13.6838 11.449 13.7628 11.6398 13.9035 11.7804C14.0441 11.921 14.2349 12 14.4338 12H16.6838C16.7829 12.001 16.8812 11.9823 16.9731 11.9451C17.0649 11.9078 17.1484 11.8527 17.2188 11.783C17.2893 11.7132 17.3452 11.6302 17.3833 11.5388C17.4215 11.4473 17.4411 11.3492 17.4411 11.2501C17.4411 11.151 17.4215 11.0528 17.3833 10.9614C17.3452 10.8699 17.2893 10.7869 17.2188 10.7172C17.1484 10.6474 17.0649 10.5923 16.9731 10.5551C16.8812 10.5178 16.7829 10.4991 16.6838 10.5001H15.1838V9.75005H16.2924C16.3915 9.75101 16.4898 9.73232 16.5816 9.69506C16.6735 9.6578 16.757 9.6027 16.8274 9.53297C16.8978 9.46323 16.9537 9.38023 16.9919 9.28876C17.03 9.19729 17.0497 9.09916 17.0497 9.00006C17.0497 8.90095 17.03 8.80283 16.9919 8.71136C16.9537 8.61989 16.8978 8.53689 16.8274 8.46715C16.757 8.39741 16.6735 8.34232 16.5816 8.30506C16.4898 8.2678 16.3915 8.24911 16.2924 8.25007H15.1838V7.50005H16.6838ZM0.746363 15.0001H4.49634C4.69399 14.9982 4.8829 14.9183 5.02199 14.7779C5.16107 14.6374 5.2391 14.4477 5.2391 14.2501C5.2391 14.0524 5.16107 13.8628 5.02199 13.7223C4.8829 13.5819 4.69399 13.502 4.49634 13.5001H0.746363C0.548711 13.502 0.359805 13.5819 0.220717 13.7223C0.0816277 13.8628 0.00360107 14.0524 0.00360107 14.2501C0.00360107 14.4477 0.0816277 14.6374 0.220717 14.7779C0.359805 14.9183 0.548711 14.9982 0.746363 15.0001Z"/>
</mask>
<path d="M12.9496 7.87502C12.949 7.37792 12.7512 6.90136 12.3997 6.54986C12.0482 6.19836 11.5717 6.00061 11.0746 6H9.57459C9.37567 6 9.1849 6.07902 9.04424 6.21968C8.90359 6.36033 8.82457 6.5511 8.82457 6.75002V11.25C8.82361 11.3491 8.8423 11.4474 8.87956 11.5393C8.91682 11.6311 8.97191 11.7146 9.04165 11.7851C9.11138 11.8555 9.19439 11.9114 9.28586 11.9495C9.37733 11.9877 9.47545 12.0073 9.57455 12.0073C9.67366 12.0073 9.77178 11.9877 9.86325 11.9495C9.95472 11.9114 10.0377 11.8555 10.1075 11.7851C10.1772 11.7146 10.2323 11.6311 10.2696 11.5393C10.3068 11.4474 10.3255 11.3491 10.3245 11.25V10.3532L11.5417 11.7439C11.6062 11.8192 11.685 11.8809 11.7735 11.9255C11.862 11.9701 11.9585 11.9967 12.0573 12.0038C12.1562 12.0109 12.2555 11.9983 12.3495 11.9668C12.4435 11.9353 12.5303 11.8854 12.6049 11.8202C12.6795 11.7549 12.7404 11.6754 12.7841 11.5865C12.8278 11.4975 12.8534 11.4008 12.8595 11.3018C12.8655 11.2029 12.8519 11.1037 12.8194 11.0101C12.787 10.9164 12.7362 10.8301 12.6702 10.7562L11.6971 9.64388C12.063 9.51455 12.3799 9.27505 12.6042 8.95831C12.8285 8.64157 12.9491 8.26313 12.9496 7.87502ZM11.0746 8.25H10.3246V7.50005H11.0746C11.1741 7.50005 11.2695 7.53956 11.3398 7.60989C11.4101 7.68021 11.4496 7.7756 11.4496 7.87506C11.4496 7.97452 11.4101 8.0699 11.3398 8.14023C11.2695 8.21056 11.1741 8.25007 11.0746 8.25007L11.0746 8.25ZM7.49636 7.50005C7.69401 7.49813 7.88292 7.41827 8.02201 7.27783C8.1611 7.13739 8.23912 6.94772 8.23912 6.75006C8.23912 6.5524 8.1611 6.36273 8.02201 6.22229C7.88292 6.08184 7.69401 6.00198 7.49636 6.00007H5.24636C5.04746 6.00007 4.8567 6.07908 4.71604 6.21972C4.57539 6.36036 4.49636 6.55112 4.49634 6.75002V11.25C4.49538 11.3491 4.51407 11.4474 4.55133 11.5393C4.58859 11.6311 4.64368 11.7146 4.71342 11.7851C4.78316 11.8555 4.86616 11.9114 4.95763 11.9495C5.0491 11.9877 5.14722 12.0073 5.24633 12.0073C5.34543 12.0073 5.44356 11.9877 5.53503 11.9495C5.6265 11.9114 5.7095 11.8555 5.77924 11.7851C5.84897 11.7146 5.90406 11.6311 5.94132 11.5393C5.97858 11.4474 5.99728 11.3491 5.99632 11.25V9.75005H7.12132C7.22042 9.75101 7.31873 9.73232 7.41056 9.69506C7.50239 9.6578 7.58593 9.6027 7.65635 9.53297C7.72677 9.46323 7.78266 9.38023 7.82081 9.28876C7.85896 9.19729 7.8786 9.09916 7.8786 9.00006C7.8786 8.90095 7.85896 8.80283 7.82081 8.71136C7.78266 8.61989 7.72677 8.53689 7.65635 8.46715C7.58593 8.39741 7.50239 8.34232 7.41056 8.30506C7.31873 8.2678 7.22042 8.24911 7.12132 8.25007H5.99632V7.50005H7.49636ZM20.9964 7.50005C21.194 7.49813 21.3829 7.41827 21.522 7.27783C21.6611 7.13739 21.7391 6.94772 21.7391 6.75006C21.7391 6.5524 21.6611 6.36273 21.522 6.22229C21.3829 6.08184 21.194 6.00198 20.9964 6.00007H18.7464C18.5475 6.00007 18.3567 6.07908 18.216 6.21972C18.0754 6.36036 17.9964 6.55112 17.9963 6.75002V11.25C17.9963 11.4489 18.0754 11.6397 18.216 11.7804C18.3567 11.921 18.5474 12 18.7464 12H20.9964C21.194 11.9981 21.3829 11.9183 21.522 11.7778C21.6611 11.6374 21.7391 11.4477 21.7391 11.2501C21.7391 11.0524 21.6611 10.8627 21.522 10.7223C21.3829 10.5818 21.194 10.502 20.9964 10.5001H19.4963V9.75005H20.6044C20.7035 9.75101 20.8019 9.73232 20.8937 9.69506C20.9855 9.6578 21.0691 9.6027 21.1395 9.53297C21.2099 9.46323 21.2658 9.38023 21.3039 9.28876C21.3421 9.19729 21.3617 9.09916 21.3617 9.00006C21.3617 8.90095 21.3421 8.80283 21.3039 8.71136C21.2658 8.61989 21.2099 8.53689 21.1395 8.46715C21.0691 8.39741 20.9855 8.34232 20.8937 8.30506C20.8019 8.2678 20.7035 8.24911 20.6044 8.25007H19.4963V7.50005H20.9964ZM16.6838 7.50005C16.7829 7.50101 16.8812 7.48232 16.9731 7.44506C17.0649 7.4078 17.1484 7.3527 17.2188 7.28297C17.2893 7.21323 17.3452 7.13023 17.3833 7.03876C17.4215 6.94729 17.4411 6.84916 17.4411 6.75006C17.4411 6.65095 17.4215 6.55283 17.3833 6.46136C17.3452 6.36989 17.2893 6.28689 17.2188 6.21715C17.1484 6.14741 17.0649 6.09232 16.9731 6.05506C16.8812 6.0178 16.7829 5.99911 16.6838 6.00007H14.4338C14.2349 6.00007 14.0441 6.07909 13.9035 6.21975C13.7628 6.3604 13.6838 6.55118 13.6838 6.75009V11.2501C13.6838 11.449 13.7628 11.6398 13.9035 11.7804C14.0441 11.921 14.2349 12 14.4338 12H16.6838C16.7829 12.001 16.8812 11.9823 16.9731 11.9451C17.0649 11.9078 17.1484 11.8527 17.2188 11.783C17.2893 11.7132 17.3452 11.6302 17.3833 11.5388C17.4215 11.4473 17.4411 11.3492 17.4411 11.2501C17.4411 11.151 17.4215 11.0528 17.3833 10.9614C17.3452 10.8699 17.2893 10.7869 17.2188 10.7172C17.1484 10.6474 17.0649 10.5923 16.9731 10.5551C16.8812 10.5178 16.7829 10.4991 16.6838 10.5001H15.1838V9.75005H16.2924C16.3915 9.75101 16.4898 9.73232 16.5816 9.69506C16.6735 9.6578 16.757 9.6027 16.8274 9.53297C16.8978 9.46323 16.9537 9.38023 16.9919 9.28876C17.03 9.19729 17.0497 9.09916 17.0497 9.00006C17.0497 8.90095 17.03 8.80283 16.9919 8.71136C16.9537 8.61989 16.8978 8.53689 16.8274 8.46715C16.757 8.39741 16.6735 8.34232 16.5816 8.30506C16.4898 8.2678 16.3915 8.24911 16.2924 8.25007H15.1838V7.50005H16.6838ZM0.746363 15.0001H4.49634C4.69399 14.9982 4.8829 14.9183 5.02199 14.7779C5.16107 14.6374 5.2391 14.4477 5.2391 14.2501C5.2391 14.0524 5.16107 13.8628 5.02199 13.7223C4.8829 13.5819 4.69399 13.502 4.49634 13.5001H0.746363C0.548711 13.502 0.359805 13.5819 0.220717 13.7223C0.0816277 13.8628 0.00360107 14.0524 0.00360107 14.2501C0.00360107 14.4477 0.0816277 14.6374 0.220717 14.7779C0.359805 14.9183 0.548711 14.9982 0.746363 15.0001Z" fill="#ED2F51" stroke="white" stroke-width="0.2" mask="url(#path-2-inside-2_424_2063)"/>
</svg>