<svg xmlns="http://www.w3.org/2000/svg" width="25" height="18" viewBox="0 0 25 18" fill="none">
<rect width="25" height="18" fill="#282828"/>
<g clip-path="url(#clip0_169_2)">
<rect width="390" height="1016" transform="translate(-21 -859)" fill="white"/>
<mask id="path-1-inside-1_169_2" fill="white">
<path d="M24.3161 6.66016L22.8942 3.10547C22.7736 2.80471 22.5654 2.54711 22.2967 2.36603C22.028 2.18494 21.7111 2.08873 21.387 2.08984H17.875V1.27734C17.875 1.06186 17.7894 0.855193 17.637 0.70282C17.4847 0.550446 17.278 0.464844 17.0625 0.464844H1.625C1.19402 0.464844 0.780698 0.636049 0.475952 0.940795C0.171205 1.24554 0 1.65887 0 2.08984V13.4648C0 13.8958 0.171205 14.3091 0.475952 14.6139C0.780698 14.9186 1.19402 15.0898 1.625 15.0898H3.35156C3.53056 15.7889 3.93713 16.4086 4.50719 16.8511C5.07725 17.2935 5.77836 17.5337 6.5 17.5337C7.22164 17.5337 7.92275 17.2935 8.49281 16.8511C9.06287 16.4086 9.46944 15.7889 9.64844 15.0898H14.7266C14.9056 15.7889 15.3121 16.4086 15.8822 16.8511C16.4522 17.2935 17.1534 17.5337 17.875 17.5337C18.5966 17.5337 19.2978 17.2935 19.8678 16.8511C20.4379 16.4086 20.8444 15.7889 21.0234 15.0898H22.75C23.181 15.0898 23.5943 14.9186 23.899 14.6139C24.2038 14.3091 24.375 13.8958 24.375 13.4648V6.96484C24.3753 6.86043 24.3553 6.75695 24.3161 6.66016ZM17.875 3.71484H21.387L22.362 6.15234H17.875V3.71484ZM1.625 2.08984H16.25V8.58984H1.625V2.08984ZM6.5 15.9023C6.17861 15.9023 5.86443 15.807 5.5972 15.6285C5.32997 15.4499 5.12169 15.1961 4.9987 14.8992C4.8757 14.6023 4.84352 14.2755 4.90622 13.9603C4.96892 13.6451 5.12369 13.3556 5.35095 13.1283C5.57821 12.901 5.86776 12.7463 6.18298 12.6836C6.4982 12.6209 6.82493 12.653 7.12186 12.776C7.41879 12.899 7.67258 13.1073 7.85114 13.3745C8.0297 13.6418 8.125 13.9559 8.125 14.2773C8.125 14.7083 7.95379 15.1216 7.64905 15.4264C7.3443 15.7311 6.93098 15.9023 6.5 15.9023ZM14.7266 13.4648H9.64844C9.46944 12.7658 9.06287 12.1461 8.49281 11.7036C7.92275 11.2611 7.22164 11.021 6.5 11.021C5.77836 11.021 5.07725 11.2611 4.50719 11.7036C3.93713 12.1461 3.53056 12.7658 3.35156 13.4648H1.625V10.2148H16.25V11.4651C15.8764 11.681 15.5494 11.969 15.2878 12.3123C15.0263 12.6555 14.8356 13.0473 14.7266 13.4648ZM17.875 15.9023C17.5536 15.9023 17.2394 15.807 16.9722 15.6285C16.705 15.4499 16.4967 15.1961 16.3737 14.8992C16.2507 14.6023 16.2185 14.2755 16.2812 13.9603C16.3439 13.6451 16.4987 13.3556 16.726 13.1283C16.9532 12.901 17.2428 12.7463 17.558 12.6836C17.8732 12.6209 18.1999 12.653 18.4969 12.776C18.7938 12.899 19.0476 13.1073 19.2261 13.3745C19.4047 13.6418 19.5 13.9559 19.5 14.2773C19.5 14.7083 19.3288 15.1216 19.024 15.4264C18.7193 15.7311 18.306 15.9023 17.875 15.9023ZM22.75 13.4648H21.0234C20.8423 12.7675 20.435 12.1499 19.8652 11.7088C19.2955 11.2677 18.5955 11.028 17.875 11.0273V7.77734H22.75V13.4648Z"/>
</mask>
<path d="M24.3161 6.66016L22.8942 3.10547C22.7736 2.80471 22.5654 2.54711 22.2967 2.36603C22.028 2.18494 21.7111 2.08873 21.387 2.08984H17.875V1.27734C17.875 1.06186 17.7894 0.855193 17.637 0.70282C17.4847 0.550446 17.278 0.464844 17.0625 0.464844H1.625C1.19402 0.464844 0.780698 0.636049 0.475952 0.940795C0.171205 1.24554 0 1.65887 0 2.08984V13.4648C0 13.8958 0.171205 14.3091 0.475952 14.6139C0.780698 14.9186 1.19402 15.0898 1.625 15.0898H3.35156C3.53056 15.7889 3.93713 16.4086 4.50719 16.8511C5.07725 17.2935 5.77836 17.5337 6.5 17.5337C7.22164 17.5337 7.92275 17.2935 8.49281 16.8511C9.06287 16.4086 9.46944 15.7889 9.64844 15.0898H14.7266C14.9056 15.7889 15.3121 16.4086 15.8822 16.8511C16.4522 17.2935 17.1534 17.5337 17.875 17.5337C18.5966 17.5337 19.2978 17.2935 19.8678 16.8511C20.4379 16.4086 20.8444 15.7889 21.0234 15.0898H22.75C23.181 15.0898 23.5943 14.9186 23.899 14.6139C24.2038 14.3091 24.375 13.8958 24.375 13.4648V6.96484C24.3753 6.86043 24.3553 6.75695 24.3161 6.66016ZM17.875 3.71484H21.387L22.362 6.15234H17.875V3.71484ZM1.625 2.08984H16.25V8.58984H1.625V2.08984ZM6.5 15.9023C6.17861 15.9023 5.86443 15.807 5.5972 15.6285C5.32997 15.4499 5.12169 15.1961 4.9987 14.8992C4.8757 14.6023 4.84352 14.2755 4.90622 13.9603C4.96892 13.6451 5.12369 13.3556 5.35095 13.1283C5.57821 12.901 5.86776 12.7463 6.18298 12.6836C6.4982 12.6209 6.82493 12.653 7.12186 12.776C7.41879 12.899 7.67258 13.1073 7.85114 13.3745C8.0297 13.6418 8.125 13.9559 8.125 14.2773C8.125 14.7083 7.95379 15.1216 7.64905 15.4264C7.3443 15.7311 6.93098 15.9023 6.5 15.9023ZM14.7266 13.4648H9.64844C9.46944 12.7658 9.06287 12.1461 8.49281 11.7036C7.92275 11.2611 7.22164 11.021 6.5 11.021C5.77836 11.021 5.07725 11.2611 4.50719 11.7036C3.93713 12.1461 3.53056 12.7658 3.35156 13.4648H1.625V10.2148H16.25V11.4651C15.8764 11.681 15.5494 11.969 15.2878 12.3123C15.0263 12.6555 14.8356 13.0473 14.7266 13.4648ZM17.875 15.9023C17.5536 15.9023 17.2394 15.807 16.9722 15.6285C16.705 15.4499 16.4967 15.1961 16.3737 14.8992C16.2507 14.6023 16.2185 14.2755 16.2812 13.9603C16.3439 13.6451 16.4987 13.3556 16.726 13.1283C16.9532 12.901 17.2428 12.7463 17.558 12.6836C17.8732 12.6209 18.1999 12.653 18.4969 12.776C18.7938 12.899 19.0476 13.1073 19.2261 13.3745C19.4047 13.6418 19.5 13.9559 19.5 14.2773C19.5 14.7083 19.3288 15.1216 19.024 15.4264C18.7193 15.7311 18.306 15.9023 17.875 15.9023ZM22.75 13.4648H21.0234C20.8423 12.7675 20.435 12.1499 19.8652 11.7088C19.2955 11.2677 18.5955 11.028 17.875 11.0273V7.77734H22.75V13.4648Z" fill="#198989" stroke="white" stroke-width="0.32" mask="url(#path-1-inside-1_169_2)"/>
</g>
<defs>
<clipPath id="clip0_169_2">
<rect width="390" height="1016" fill="white" transform="translate(-21 -859)"/>
</clipPath>
</defs>
</svg>