<svg width="16" height="16" viewBox="0 0 16 16" fill="none" xmlns="http://www.w3.org/2000/svg">
<g clip-path="url(#clip0_2047_4605)">
<path d="M15.6938 5.71404C15.6257 5.50414 15.4974 5.3189 15.3248 5.18141C15.1522 5.04392 14.9429 4.96025 14.7231 4.94081L10.5483 4.58091L8.9119 0.689442C8.8267 0.48525 8.68299 0.310831 8.49887 0.188147C8.31474 0.0654633 8.09843 0 7.87718 0C7.65592 0 7.43962 0.0654633 7.25549 0.188147C7.07137 0.310831 6.92765 0.48525 6.84245 0.689442L5.21094 4.58091L1.03127 4.94222C0.81041 4.96063 0.599915 5.04388 0.426213 5.18152C0.252511 5.31915 0.123343 5.50504 0.0549293 5.71584C-0.0134845 5.92664 -0.0180951 6.15295 0.0416764 6.36636C0.101448 6.57977 0.222937 6.77077 0.39089 6.91536L3.56184 9.68635L2.61147 13.8013C2.56122 14.0167 2.57556 14.2421 2.6527 14.4493C2.72984 14.6565 2.86635 14.8364 3.04518 14.9665C3.22401 15.0966 3.43721 15.171 3.65813 15.1806C3.87905 15.1902 4.09788 15.1344 4.28727 15.0202L7.87226 12.8411L11.465 15.0202C11.6544 15.1344 11.8732 15.1902 12.0941 15.1806C12.315 15.171 12.5282 15.0966 12.7071 14.9665C12.8859 14.8364 13.0224 14.6565 13.0996 14.4493C13.1767 14.2421 13.191 14.0167 13.1408 13.8013L12.1911 9.68213L15.3614 6.91536C15.5291 6.77022 15.6501 6.57873 15.7093 6.36498C15.7684 6.15123 15.7631 5.92476 15.6938 5.71404ZM14.624 6.06551L11.4537 8.83228C11.2994 8.96649 11.1847 9.14023 11.1217 9.33482C11.0588 9.5294 11.0501 9.73745 11.0966 9.93659L12.0491 14.0586L8.45921 11.8795C8.28407 11.7729 8.08295 11.7164 7.87788 11.7164V1.13089L9.5087 5.01673C9.5879 5.20558 9.71716 5.36922 9.88254 5.49C10.0479 5.61078 10.2431 5.68411 10.4471 5.70209L14.6254 6.0634C14.6254 6.0634 14.6254 6.06762 14.6254 6.06832L14.624 6.06551Z" fill="#282828"/>
</g>
<defs>
<clipPath id="clip0_2047_4605">
<rect width="16" height="16" fill="white"/>
</clipPath>
</defs>
</svg>
