<svg width="42" height="42" viewBox="0 0 42 42" fill="none" xmlns="http://www.w3.org/2000/svg">
<rect width="42" height="42" rx="21" fill="#EA3656"/>
<path d="M30.4131 23.0344V14.875C30.4134 14.7979 30.3933 14.7221 30.3549 14.6553C30.3165 14.5885 30.2611 14.5329 30.1943 14.4944L19.585 8.3694C19.5185 8.33101 19.443 8.31079 19.3662 8.31079C19.2894 8.31079 19.214 8.33101 19.1475 8.3694L8.53809 14.4944C8.47132 14.5329 8.41593 14.5885 8.37752 14.6553C8.3391 14.7221 8.31903 14.7979 8.31934 14.875V27.125C8.31903 27.2021 8.3391 27.2779 8.37752 27.3448C8.41593 27.4116 8.47132 27.4671 8.53809 27.5057L19.1475 33.6307C19.214 33.6691 19.2894 33.6893 19.3662 33.6893C19.443 33.6893 19.5185 33.6691 19.585 33.6307L23.5706 31.3294C24.0674 32.0254 24.7177 32.5978 25.4711 33.0023C26.2245 33.4067 27.0609 33.6324 27.9156 33.6618C28.7702 33.6912 29.6201 33.5236 30.3996 33.1719C31.1791 32.8202 31.8672 32.2939 32.4106 31.6337C32.9541 30.9734 33.3384 30.197 33.5337 29.3645C33.729 28.532 33.7302 27.6657 33.5371 26.8326C33.3439 25.9996 32.9617 25.2221 32.42 24.5605C31.8783 23.8988 31.1916 23.3707 30.4131 23.0169V23.0344ZM19.3662 9.25315L29.1006 14.875L24.2181 17.6925L15.1793 11.6725L19.3662 9.25315ZM19.3662 20.4969L9.63184 14.875L14.335 12.1582L23.3693 18.1825L19.3662 20.4969ZM9.19434 15.6319L18.9287 21.2538V32.4932L9.19434 26.8713V15.6319ZM19.8037 32.4932V21.2538L23.7412 18.9657V22.3738C23.7412 22.4898 23.7873 22.6011 23.8694 22.6831C23.9514 22.7652 24.0627 22.8113 24.1787 22.8113C24.2947 22.8113 24.406 22.7652 24.4881 22.6831C24.5701 22.6011 24.6162 22.4898 24.6162 22.3738V18.4625L29.5162 15.6319V22.7238C29.0528 22.5971 28.5747 22.5324 28.0943 22.5313C27.1476 22.5337 26.2171 22.7774 25.3907 23.2395C24.5643 23.7015 23.8693 24.3665 23.3715 25.1718C22.8736 25.9771 22.5892 26.896 22.5452 27.8418C22.5012 28.7875 22.699 29.7289 23.12 30.5769L19.8037 32.4932ZM28.1162 32.8125C27.186 32.8125 26.2767 32.5367 25.5033 32.0199C24.7299 31.5031 24.1271 30.7686 23.7711 29.9092C23.4151 29.0498 23.322 28.1042 23.5035 27.1919C23.6849 26.2796 24.1329 25.4415 24.7906 24.7838C25.4483 24.126 26.2864 23.6781 27.1987 23.4966C28.111 23.3152 29.0566 23.4083 29.916 23.7643C30.7754 24.1202 31.5099 24.7231 32.0267 25.4965C32.5435 26.2699 32.8193 27.1792 32.8193 28.1094C32.8182 29.3564 32.3223 30.552 31.4405 31.4337C30.5588 32.3155 29.3632 32.8114 28.1162 32.8125Z" fill="white" stroke="white" stroke-width="0.3"/>
<path d="M30.1944 25.8388L27.4819 29.4175L26.06 27.7463C25.9851 27.6563 25.8776 27.5998 25.7611 27.5892C25.6446 27.5785 25.5287 27.6145 25.4387 27.6894C25.3488 27.7642 25.2923 27.8717 25.2816 27.9882C25.271 28.1047 25.307 28.2207 25.3819 28.3106L27.1319 30.4019C27.1729 30.4499 27.2239 30.4885 27.2813 30.5149C27.3387 30.5413 27.4012 30.555 27.4643 30.555C27.53 30.553 27.5944 30.5363 27.6528 30.506C27.7111 30.4757 27.7618 30.4326 27.8012 30.38L30.8418 26.3681C30.8988 26.3302 30.9461 26.2794 30.9799 26.2199C31.0137 26.1604 31.0331 26.0938 31.0365 26.0254C31.0398 25.957 31.0271 25.8888 30.9993 25.8262C30.9715 25.7637 30.9294 25.7085 30.8764 25.6652C30.8234 25.6219 30.761 25.5916 30.6941 25.5768C30.6273 25.562 30.5579 25.563 30.4916 25.5799C30.4252 25.5968 30.3638 25.629 30.3122 25.674C30.2605 25.7189 30.2202 25.7754 30.1944 25.8388Z" fill="white"/>
</svg>
