<svg width="24" height="24" viewBox="0 0 24 24" fill="none" xmlns="http://www.w3.org/2000/svg">
<path d="M20.0625 13.7438V6.75003C20.0628 6.68395 20.0456 6.61897 20.0126 6.56168C19.9797 6.50439 19.9322 6.45681 19.875 6.42378L10.7813 1.17378C10.7242 1.14086 10.6596 1.12354 10.5938 1.12354C10.5279 1.12354 10.4633 1.14086 10.4063 1.17378L1.3125 6.42378C1.25528 6.45681 1.2078 6.50439 1.17487 6.56168C1.14194 6.61897 1.12474 6.68395 1.125 6.75003V17.25C1.12474 17.3161 1.14194 17.3811 1.17487 17.4384C1.2078 17.4957 1.25528 17.5432 1.3125 17.5763L10.4063 22.8263C10.4633 22.8592 10.5279 22.8765 10.5938 22.8765C10.6596 22.8765 10.7242 22.8592 10.7813 22.8263L14.1975 20.8538C14.6233 21.4504 15.1807 21.941 15.8265 22.2877C16.4723 22.6343 17.1892 22.8278 17.9218 22.853C18.6543 22.8782 19.3828 22.7345 20.0509 22.4331C20.7191 22.1316 21.3088 21.6805 21.7747 21.1146C22.2405 20.5487 22.5699 19.8832 22.7373 19.1696C22.9047 18.456 22.9057 17.7134 22.7402 16.9994C22.5747 16.2854 22.2471 15.619 21.7827 15.0518C21.3184 14.4847 20.7298 14.032 20.0625 13.7288V13.7438ZM10.5938 1.93128L18.9375 6.75003L14.7525 9.16503L7.005 4.00503L10.5938 1.93128ZM10.5938 11.5688L2.25 6.75003L6.28125 4.42128L14.025 9.58502L10.5938 11.5688ZM1.875 7.39878L10.2188 12.2175V21.8513L1.875 17.0325V7.39878ZM10.9688 21.8513V12.2175L14.3438 10.2563V13.1775C14.3438 13.277 14.3833 13.3724 14.4536 13.4427C14.5239 13.513 14.6193 13.5525 14.7188 13.5525C14.8182 13.5525 14.9136 13.513 14.9839 13.4427C15.0542 13.3724 15.0938 13.277 15.0938 13.1775V9.82503L19.2938 7.39878V13.4775C18.8966 13.369 18.4868 13.3135 18.075 13.3125C17.2635 13.3146 16.4659 13.5235 15.7576 13.9195C15.0493 14.3156 14.4536 14.8856 14.0268 15.5759C13.6001 16.2661 13.3563 17.0537 13.3186 17.8644C13.2809 18.675 13.4504 19.4819 13.8113 20.2088L10.9688 21.8513ZM18.0938 22.125C17.2964 22.125 16.517 21.8886 15.8541 21.4456C15.1912 21.0027 14.6745 20.3731 14.3694 19.6365C14.0642 18.8999 13.9844 18.0893 14.14 17.3073C14.2955 16.5253 14.6794 15.807 15.2432 15.2433C15.807 14.6795 16.5253 14.2955 17.3073 14.14C18.0893 13.9844 18.8998 14.0643 19.6364 14.3694C20.3731 14.6745 21.0027 15.1912 21.4456 15.8541C21.8886 16.5171 22.125 17.2965 22.125 18.0938C22.124 19.1626 21.699 20.1874 20.9432 20.9432C20.1874 21.699 19.1626 22.124 18.0938 22.125Z" fill="#282828"/>
<path d="M19.875 16.1475L17.55 19.215L16.3313 17.7825C16.2671 17.7054 16.175 17.657 16.0751 17.6479C15.9753 17.6387 15.8759 17.6696 15.7988 17.7338C15.7217 17.7979 15.6733 17.8901 15.6641 17.9899C15.655 18.0898 15.6859 18.1892 15.75 18.2663L17.25 20.0588C17.2852 20.0999 17.3289 20.133 17.3781 20.1556C17.4273 20.1783 17.4809 20.19 17.535 20.19C17.5913 20.1883 17.6465 20.1739 17.6965 20.148C17.7465 20.122 17.79 20.0851 17.8238 20.04L20.43 16.6013C20.4789 16.5688 20.5194 16.5252 20.5484 16.4742C20.5774 16.4232 20.5939 16.3661 20.5968 16.3075C20.5997 16.2489 20.5888 16.1904 20.565 16.1368C20.5411 16.0832 20.5051 16.0359 20.4596 15.9987C20.4142 15.9616 20.3607 15.9356 20.3034 15.9229C20.2461 15.9102 20.1867 15.9112 20.1298 15.9256C20.0729 15.9401 20.0203 15.9677 19.976 16.0063C19.9318 16.0448 19.8972 16.0932 19.875 16.1475Z" fill="#282828"/>
</svg>
