<svg width="40" height="40" viewBox="0 0 40 40" fill="none" xmlns="http://www.w3.org/2000/svg">
<g clip-path="url(#clip0_511_1278)">
<path d="M4.66675 12.166L1.42541 14.7333C1.18898 14.9205 0.997934 15.1587 0.866555 15.4301C0.735177 15.7015 0.666871 15.9991 0.666748 16.3007V37.3333C0.666748 37.8638 0.877462 38.3725 1.25253 38.7475C1.62761 39.1226 2.13632 39.3333 2.66675 39.3333H37.3334C37.8638 39.3333 38.3726 39.1226 38.7476 38.7475C39.1227 38.3725 39.3334 37.8638 39.3334 37.3333V16.3007C39.3333 15.9991 39.265 15.7015 39.1336 15.4301C39.0022 15.1587 38.8112 14.9205 38.5747 14.7333L35.3334 12.166H4.66675Z" fill="#F0C419"/>
<path d="M15.8267 27.3333L1.32666 38.8133C1.11819 38.6274 0.951564 38.3993 0.83779 38.1442C0.724016 37.8891 0.665688 37.6127 0.66666 37.3333C0.66666 14.35 0.589327 16.0307 0.84666 15.4733L15.8267 27.3333ZM39.3333 37.3333C39.3343 37.6127 39.276 37.8891 39.1622 38.1442C39.0484 38.3993 38.8818 38.6274 38.6733 38.8133L24.1733 27.3333L39.1533 15.4733C39.41 16.03 39.3333 14.3073 39.3333 37.3333Z" fill="#F3D55B"/>
<path d="M35.3334 2.00001V18.5L24.1734 27.3333L21.4401 25.1667C21.03 24.8428 20.5227 24.6666 20.0001 24.6666C19.4775 24.6666 18.9702 24.8428 18.5601 25.1667L15.8267 27.3333L4.66675 18.5V2.00001C4.6678 1.64671 4.80862 1.30818 5.05844 1.05836C5.30826 0.808542 5.64678 0.667727 6.00008 0.666672H34.0001C34.3534 0.667727 34.6919 0.808542 34.9417 1.05836C35.1915 1.30818 35.3324 1.64671 35.3334 2.00001Z" fill="#ECF0F1"/>
<path d="M20 12.16C20 12.16 20.9213 10 23 10C24.776 10 26 11.72 26 13.7573C26 16.5753 23.5587 18.4413 20 22C16.4413 18.4413 14 16.5753 14 13.7573C14 11.72 15.224 10 17 10C19.0787 10 20 12.16 20 12.16Z" fill="#FF5364"/>
<path d="M7.33341 2.66668C7.1566 2.66668 6.98703 2.73692 6.86201 2.86194C6.73699 2.98697 6.66675 3.15653 6.66675 3.33335V7.33335C6.66675 7.51016 6.73699 7.67973 6.86201 7.80475C6.98703 7.92977 7.1566 8.00001 7.33341 8.00001C7.51023 8.00001 7.67979 7.92977 7.80482 7.80475C7.92984 7.67973 8.00008 7.51016 8.00008 7.33335V3.33335C8.00008 3.15653 7.92984 2.98697 7.80482 2.86194C7.67979 2.73692 7.51023 2.66668 7.33341 2.66668ZM22.6667 2.66668C22.4899 2.66668 22.3204 2.73692 22.1953 2.86194C22.0703 2.98697 22.0001 3.15653 22.0001 3.33335V7.33335C22.0001 7.51016 22.0703 7.67973 22.1953 7.80475C22.3204 7.92977 22.4899 8.00001 22.6667 8.00001C22.8436 8.00001 23.0131 7.92977 23.1382 7.80475C23.2632 7.67973 23.3334 7.51016 23.3334 7.33335V3.33335C23.3334 3.15653 23.2632 2.98697 23.1382 2.86194C23.0131 2.73692 22.8436 2.66668 22.6667 2.66668ZM13.3334 2.66668C13.1566 2.66668 12.987 2.73692 12.862 2.86194C12.737 2.98697 12.6667 3.15653 12.6667 3.33335V5.49201L10.5121 2.90668C10.4244 2.80149 10.3064 2.72588 10.1742 2.69011C10.042 2.65435 9.90195 2.66017 9.77316 2.70679C9.64438 2.7534 9.53308 2.83856 9.4544 2.95066C9.37572 3.06277 9.33348 3.19638 9.33341 3.33335V7.33335C9.33341 7.51016 9.40365 7.67973 9.52868 7.80475C9.6537 7.92977 9.82327 8.00001 10.0001 8.00001C10.1769 8.00001 10.3465 7.92977 10.4715 7.80475C10.5965 7.67973 10.6667 7.51016 10.6667 7.33335V5.17468L12.8214 7.76001C12.9091 7.8652 13.0271 7.94081 13.1593 7.97658C13.2915 8.01235 13.4315 8.00652 13.5603 7.95991C13.6891 7.91329 13.8004 7.82814 13.8791 7.71603C13.9578 7.60392 14 7.47031 14.0001 7.33335V3.33335C14.0001 3.15653 13.9298 2.98697 13.8048 2.86194C13.6798 2.73692 13.5102 2.66668 13.3334 2.66668ZM20.2981 2.73668C20.2197 2.69751 20.1344 2.67416 20.0471 2.66797C19.9597 2.66178 19.8719 2.67287 19.7889 2.70061C19.7058 2.72835 19.629 2.77219 19.5628 2.82962C19.4967 2.88706 19.4425 2.95696 19.4034 3.03535L18.0001 5.84268L16.6001 3.03535C16.521 2.8771 16.3824 2.75673 16.2146 2.70072C16.0468 2.64471 15.8637 2.65764 15.7054 2.73668C15.5472 2.81571 15.4268 2.95437 15.3708 3.12216C15.3148 3.28994 15.3277 3.4731 15.4067 3.63135L17.4067 7.63135C17.462 7.74228 17.5472 7.83561 17.6526 7.90084C17.758 7.96608 17.8795 8.00063 18.0034 8.00063C18.1274 8.00063 18.2489 7.96608 18.3543 7.90084C18.4597 7.83561 18.5448 7.74228 18.6001 7.63135L20.6001 3.63135C20.6391 3.5528 20.6623 3.46731 20.6683 3.3798C20.6742 3.29228 20.6628 3.20444 20.6348 3.12133C20.6067 3.03822 20.5625 2.96146 20.5048 2.89545C20.447 2.82944 20.3768 2.77549 20.2981 2.73668ZM28.0001 2.66668H25.3334C25.1566 2.66668 24.987 2.73692 24.862 2.86194C24.737 2.98697 24.6667 3.15653 24.6667 3.33335C24.6667 3.51016 24.737 3.67973 24.862 3.80475C24.987 3.92977 25.1566 4.00001 25.3334 4.00001H26.0001V7.33335C26.0001 7.51016 26.0703 7.67973 26.1953 7.80475C26.3204 7.92977 26.4899 8.00001 26.6667 8.00001C26.8436 8.00001 27.0131 7.92977 27.1382 7.80475C27.2632 7.67973 27.3334 7.51016 27.3334 7.33335V4.00001H28.0001C28.1769 4.00001 28.3465 3.92977 28.4715 3.80475C28.5965 3.67973 28.6667 3.51016 28.6667 3.33335C28.6667 3.15653 28.5965 2.98697 28.4715 2.86194C28.3465 2.73692 28.1769 2.66668 28.0001 2.66668ZM32.6667 6.00001C32.8436 6.00001 33.0131 5.92977 33.1382 5.80475C33.2632 5.67973 33.3334 5.51016 33.3334 5.33335C33.3334 5.15653 33.2632 4.98697 33.1382 4.86194C33.0131 4.73692 32.8436 4.66668 32.6667 4.66668H31.3334V4.00001H32.6667C32.8436 4.00001 33.0131 3.92977 33.1382 3.80475C33.2632 3.67973 33.3334 3.51016 33.3334 3.33335C33.3334 3.15653 33.2632 2.98697 33.1382 2.86194C33.0131 2.73692 32.8436 2.66668 32.6667 2.66668H30.6667C30.4899 2.66668 30.3204 2.73692 30.1953 2.86194C30.0703 2.98697 30.0001 3.15653 30.0001 3.33335V7.33335C30.0001 7.51016 30.0703 7.67973 30.1953 7.80475C30.3204 7.92977 30.4899 8.00001 30.6667 8.00001H32.6667C32.8436 8.00001 33.0131 7.92977 33.1382 7.80475C33.2632 7.67973 33.3334 7.51016 33.3334 7.33335C33.3334 7.15653 33.2632 6.98697 33.1382 6.86194C33.0131 6.73692 32.8436 6.66668 32.6667 6.66668H31.3334V6.00001H32.6667Z" fill="#547580"/>
</g>
<defs>
<clipPath id="clip0_511_1278">
<rect width="40" height="40" fill="white"/>
</clipPath>
</defs>
</svg>
