<svg width="23" height="23" viewBox="0 0 23 24" fill="none" xmlns="http://www.w3.org/2000/svg">
<path d="M7.5675 7.84686L7.44453 7.9429L7.58315 8.01451C9.23639 8.86869 10.3687 10.5944 10.3687 12.5793V13.1824H0.1V12.5793C0.1 10.5944 1.23234 8.86869 2.88564 8.01451L3.02426 7.9429L2.90129 7.84686C2.01003 7.1508 1.43584 6.06773 1.43584 4.85259C1.43584 2.75818 3.13998 1.05405 5.23439 1.05405C7.3288 1.05405 9.03294 2.75814 9.03294 4.85259C9.03294 6.06773 8.45875 7.1508 7.5675 7.84686ZM1.37268 11.8578L1.35062 11.9762H1.47098H8.9978H9.11816L9.0961 11.8578C8.75633 10.0353 7.15419 8.65119 5.23439 8.65119C3.31459 8.65119 1.71241 10.0353 1.37268 11.8578ZM18.812 15.9361L18.6577 16.0371L18.8265 16.1113C21.2228 17.1656 22.9 19.5621 22.9 22.3428V22.946H9.2917V22.3428C9.2917 19.5621 10.9689 17.1656 13.3652 16.1113L13.534 16.0371L13.3797 15.9361C12.0197 15.0467 11.1197 13.5108 11.1197 11.7689C11.1197 9.02513 13.3521 6.79277 16.0958 6.79277C18.8396 6.79277 21.0719 9.02513 21.0719 11.7689C21.0719 13.5108 20.1719 15.0467 18.812 15.9361ZM10.5435 21.627L10.529 21.7397H10.6427H21.549H21.6626L21.6482 21.627C21.2956 18.877 18.9403 16.745 16.0958 16.745C13.2514 16.745 10.896 18.877 10.5435 21.627ZM6.58036 20.0833H0.1V14.8321H1.30625V18.777V18.877H1.40625H6.58036H6.82178L6.65107 18.7063L5.82698 17.8822L6.67992 17.0293L9.13083 19.4802L6.67992 21.9311L5.82698 21.0781L6.65107 20.254L6.82177 20.0833H6.58036ZM5.23434 2.2603C3.80488 2.2603 2.64205 3.42308 2.64205 4.85259C2.64205 6.2821 3.80488 7.44489 5.23434 7.44489C6.66381 7.44489 7.82664 6.28206 7.82664 4.85259C7.82664 3.42313 6.66381 2.2603 5.23434 2.2603ZM16.0958 15.5387C18.1746 15.5387 19.8657 13.8476 19.8657 11.7689C19.8657 9.69008 18.1746 7.99902 16.0958 7.99902C14.0171 7.99902 12.326 9.69008 12.326 11.7689C12.326 13.8476 14.0171 15.5387 16.0958 15.5387Z" fill="#282828" stroke="white" stroke-width="0.2"/>
</svg>
