<svg width="21" height="13" viewBox="0 0 21 13" fill="none" xmlns="http://www.w3.org/2000/svg">
<path d="M8.65551 11.8411C9.32575 11.2163 9.42895 10.2377 8.88603 9.65526C8.3431 9.07284 7.35964 9.10719 6.6894 9.73198C6.01917 10.3568 5.91596 11.3354 6.45888 11.9178C7.00181 12.5002 7.98527 12.4659 8.65551 11.8411Z" fill="#817566"/>
<path d="M17.5237 11.8417C18.1939 11.217 18.2971 10.2383 17.7542 9.6559C17.2113 9.07348 16.2278 9.10783 15.5576 9.73262C14.8873 10.3574 14.7841 11.336 15.327 11.9185C15.87 12.5009 16.8534 12.4665 17.5237 11.8417Z" fill="#817566"/>
<path d="M1.62261 4.19431C1.62261 3.80752 1.30905 3.49396 0.922266 3.49396C0.535478 3.49396 0.221924 3.80752 0.221924 4.19431C0.221924 4.58109 0.535478 4.89465 0.922266 4.89465C1.30905 4.89465 1.62261 4.58109 1.62261 4.19431Z" fill="#817566"/>
<path d="M14.2112 10.6401C14.4601 9.40965 15.6225 8.43184 16.8719 8.43184C18.0748 8.43184 18.9419 9.33869 18.9181 10.5048C20.2191 10.5388 20.5813 8.82559 20.5813 8.82559C20.6908 8.34652 20.8545 7.4126 20.9915 6.4959C21.0364 6.21287 21.0019 5.92294 20.8918 5.65836C20.5517 4.86446 20.1407 4.10286 19.6638 3.38281C19.2126 2.70975 18.4559 2.31107 17.5921 2.29672C17.0769 2.28852 16.5712 2.28359 16.1894 2.28359L16.1861 2.28031C16.1369 1.45672 15.5364 0.825898 14.6935 0.75043C14.1451 0.701621 11.9729 0.665937 10.9303 0.665937C10.5161 0.665937 9.92176 0.671679 9.32047 0.681523V0.679062H2.08613C1.99412 0.679008 1.903 0.697092 1.81798 0.732278C1.73296 0.767465 1.65571 0.819065 1.59065 0.884127C1.52559 0.94919 1.47399 1.02644 1.4388 1.11146C1.40362 1.19648 1.38553 1.2876 1.38559 1.37961V1.38289C1.38559 1.56782 1.45905 1.74517 1.58981 1.87593C1.72057 2.00669 1.89793 2.08016 2.08285 2.08016H3.54014C3.71561 2.09309 3.87971 2.17189 3.99952 2.30076C4.11933 2.42962 4.18599 2.59901 4.18613 2.77496V2.77865C4.1864 2.87075 4.16851 2.962 4.13347 3.04718C4.09844 3.13236 4.04696 3.20979 3.98196 3.27505C3.91697 3.34031 3.83975 3.39211 3.75472 3.42749C3.66968 3.46288 3.57851 3.48114 3.48641 3.48125H2.7391C2.55341 3.48125 2.37533 3.55501 2.24403 3.68632C2.11273 3.81762 2.03896 3.9957 2.03896 4.18139C2.03891 4.27336 2.05698 4.36445 2.09214 4.44944C2.1273 4.53444 2.17887 4.61167 2.24389 4.67672C2.3089 4.74178 2.3861 4.79339 2.47108 4.8286C2.55605 4.86381 2.64712 4.88193 2.7391 4.88193H3.48641C3.6722 4.88193 3.85039 4.95574 3.98177 5.08712C4.11315 5.2185 4.18695 5.39668 4.18695 5.58248C4.18695 5.76828 4.11315 5.94646 3.98177 6.07784C3.85039 6.20922 3.6722 6.28303 3.48641 6.28303H0.690781C0.505056 6.28303 0.326931 6.35678 0.195565 6.48807C0.0641985 6.61936 -0.00965689 6.79744 -0.00976562 6.98316C-0.00976562 7.16896 0.0640418 7.34715 0.19542 7.47853C0.326798 7.6099 0.504985 7.68371 0.690781 7.68371H3.48641C3.6722 7.68371 3.85039 7.75752 3.98177 7.8889C4.11315 8.02027 4.18695 8.19846 4.18695 8.38426C4.18674 8.56991 4.11283 8.74789 3.98148 8.87909C3.85012 9.01029 3.67206 9.08398 3.48641 9.08398H2.6218C2.43611 9.08398 2.25803 9.15775 2.12673 9.28905C1.99542 9.42035 1.92166 9.59843 1.92166 9.78412C1.92166 9.96985 1.99541 10.148 2.1267 10.2793C2.25799 10.4107 2.43607 10.4846 2.6218 10.4847L5.38051 10.4826L5.60979 9.91127C6.07941 9.04502 7.01375 8.43143 8.00305 8.43143C9.25279 8.43143 10.1404 9.41006 10.0428 10.6413H14.2108M7.26271 3.80732H6.32264C6.32175 3.8074 6.32091 3.80775 6.32024 3.80835C6.31958 3.80894 6.31912 3.80973 6.31894 3.81061L6.2324 4.42584C6.23227 4.42633 6.23226 4.42685 6.23237 4.42735C6.23248 4.42785 6.2327 4.42831 6.23302 4.42871C6.23334 4.42911 6.23374 4.42943 6.2342 4.42964C6.23467 4.42985 6.23517 4.42996 6.23568 4.42994H6.93541C6.96976 4.42897 7.00389 4.43567 7.03531 4.44956C7.06674 4.46344 7.09467 4.48417 7.11707 4.51023C7.13947 4.53628 7.15577 4.567 7.16479 4.60016C7.17381 4.63331 7.17532 4.66806 7.1692 4.70188C7.15721 4.77619 7.11969 4.844 7.06309 4.89364C7.00649 4.94327 6.93437 4.97162 6.85912 4.97381H6.15857C6.15772 4.97379 6.15689 4.97406 6.15622 4.97459C6.15554 4.97511 6.15507 4.97585 6.15488 4.97668L6.02937 5.87041C6.01739 5.94473 5.97986 6.01254 5.92327 6.06217C5.86667 6.11181 5.79454 6.14016 5.7193 6.14234C5.68496 6.14333 5.65084 6.13664 5.61943 6.12275C5.58802 6.10885 5.5601 6.08812 5.53773 6.06205C5.51536 6.03599 5.4991 6.00525 5.49014 5.9721C5.48117 5.93894 5.47973 5.9042 5.48592 5.87041L5.81158 3.55221C5.82449 3.47372 5.86427 3.40216 5.92413 3.34978C5.98399 3.29741 6.0602 3.26747 6.13971 3.2651H7.33859C7.37293 3.26411 7.40705 3.2708 7.43846 3.2847C7.46987 3.29859 7.49779 3.31932 7.52016 3.34539C7.54253 3.37145 7.55879 3.40219 7.56775 3.43535C7.57672 3.4685 7.57816 3.50324 7.57197 3.53703C7.55981 3.61098 7.52231 3.67839 7.46588 3.72771C7.40945 3.77703 7.33762 3.80517 7.26271 3.80732ZM9.77533 3.44967C9.87299 3.53631 9.94171 3.65085 9.97221 3.77779C10.0063 3.9216 10.0119 4.0707 9.98861 4.21666C9.96009 4.44377 9.86715 4.65797 9.72078 4.83395C9.6314 4.93963 9.51786 5.02221 9.38978 5.07471C9.38921 5.07532 9.38889 5.07612 9.38889 5.07696C9.38889 5.0778 9.38921 5.07861 9.38978 5.07922L9.62275 5.75146C9.68551 5.93193 9.52432 6.14234 9.32375 6.14234H9.31062C9.26196 6.14377 9.21411 6.12968 9.174 6.1021C9.13388 6.07452 9.10359 6.03489 9.0875 5.98895L8.80572 5.16863C8.80532 5.16802 8.80477 5.16751 8.80413 5.16715C8.80349 5.16679 8.80277 5.1666 8.80203 5.16658H8.2032C8.20237 5.16663 8.20157 5.16693 8.20091 5.16744C8.20025 5.16795 8.19976 5.16866 8.19951 5.16945L8.10107 5.87C8.08908 5.94432 8.05156 6.01213 7.99497 6.06176C7.93837 6.1114 7.86624 6.13975 7.791 6.14193C7.75666 6.14292 7.72254 6.13623 7.69113 6.12234C7.65971 6.10844 7.6318 6.08771 7.60943 6.06164C7.58706 6.03558 7.5708 6.00484 7.56184 5.97169C7.55287 5.93853 7.55143 5.90379 7.55762 5.87L7.88328 3.5518C7.89618 3.47331 7.93597 3.40175 7.99583 3.34937C8.05569 3.297 8.1319 3.26706 8.21141 3.26469H9.13836C9.13836 3.26469 9.54523 3.25197 9.77533 3.44967ZM12.3265 3.51775C12.3154 3.58717 12.2803 3.65052 12.2275 3.69687C12.1746 3.74322 12.1072 3.76966 12.0369 3.77164H10.9586C10.9578 3.77169 10.957 3.77199 10.9563 3.7725C10.9557 3.77301 10.9552 3.77371 10.9549 3.77451L10.8692 4.38318C10.8691 4.38368 10.8691 4.38419 10.8692 4.38469C10.8693 4.38519 10.8695 4.38566 10.8698 4.38606C10.8702 4.38645 10.8706 4.38677 10.871 4.38698C10.8715 4.3872 10.872 4.3873 10.8725 4.38729H11.71C11.7421 4.38634 11.774 4.39257 11.8034 4.40552C11.8327 4.41848 11.8588 4.43783 11.8797 4.46217C11.9006 4.48651 11.9158 4.51521 11.9242 4.54618C11.9326 4.57715 11.934 4.6096 11.9282 4.64117C11.9171 4.71059 11.8821 4.77394 11.8292 4.82029C11.7763 4.86664 11.709 4.89308 11.6387 4.89506H10.8007C10.7999 4.8951 10.7991 4.8954 10.7984 4.89592C10.7978 4.89643 10.7973 4.89713 10.797 4.89793L10.6941 5.63047C10.6941 5.63149 10.6945 5.63247 10.6951 5.63323C10.6958 5.63399 10.6968 5.63447 10.6978 5.63457H11.7753C11.8073 5.63362 11.8392 5.63985 11.8686 5.65281C11.8979 5.66577 11.924 5.68512 11.9449 5.70945C11.9658 5.73379 11.9811 5.76249 11.9895 5.79346C11.9978 5.82443 11.9992 5.85689 11.9935 5.88846C11.9823 5.95787 11.9473 6.02122 11.8944 6.06757C11.8415 6.11392 11.7742 6.14037 11.7039 6.14234H10.3668C10.3307 6.14285 10.295 6.13541 10.2621 6.12057C10.2292 6.10572 10.2 6.08382 10.1765 6.05643C10.153 6.02903 10.1358 5.99681 10.1262 5.96204C10.1165 5.92727 10.1147 5.89081 10.1207 5.85523L10.4443 3.55344C10.4572 3.47495 10.497 3.40339 10.5568 3.35101C10.6167 3.29864 10.6929 3.2687 10.7724 3.26633H12.1091C12.1409 3.26557 12.1724 3.27186 12.2015 3.28473C12.2305 3.2976 12.2563 3.31673 12.2771 3.34076C12.2979 3.3648 12.3131 3.39313 12.3216 3.42373C12.3302 3.45433 12.3318 3.48644 12.3265 3.51775ZM14.5664 3.51775C14.5552 3.58717 14.5202 3.65052 14.4673 3.69687C14.4145 3.74322 14.3471 3.76966 14.2768 3.77164H13.1985C13.1977 3.77169 13.1969 3.77199 13.1962 3.7725C13.1955 3.77301 13.1951 3.77371 13.1948 3.77451L13.1095 4.38318C13.1094 4.38368 13.1094 4.38419 13.1095 4.38469C13.1096 4.38519 13.1098 4.38566 13.1101 4.38606C13.1104 4.38645 13.1108 4.38677 13.1113 4.38698C13.1118 4.3872 13.1123 4.3873 13.1128 4.38729H13.9503C13.9824 4.38634 14.0143 4.39257 14.0436 4.40552C14.073 4.41848 14.0991 4.43783 14.12 4.46217C14.1409 4.48651 14.1561 4.51521 14.1645 4.54618C14.1729 4.57715 14.1743 4.6096 14.1685 4.64117C14.1574 4.71059 14.1223 4.77394 14.0695 4.82029C14.0166 4.86664 13.9492 4.89308 13.8789 4.89506H13.0406C13.0398 4.8951 13.0389 4.8954 13.0383 4.89592C13.0376 4.89643 13.0371 4.89713 13.0369 4.89793L12.9339 5.63047C12.9339 5.63149 12.9343 5.63247 12.935 5.63323C12.9357 5.63399 12.9366 5.63447 12.9376 5.63457H14.0151C14.0472 5.63362 14.0791 5.63985 14.1084 5.65281C14.1378 5.66577 14.1639 5.68512 14.1848 5.70945C14.2057 5.73379 14.2209 5.76249 14.2293 5.79346C14.2377 5.82443 14.2391 5.85689 14.2333 5.88846C14.2222 5.95787 14.1871 6.02122 14.1343 6.06757C14.0814 6.11392 14.014 6.14037 13.9437 6.14234H12.6066C12.5706 6.14285 12.5348 6.13541 12.5019 6.12057C12.469 6.10572 12.4398 6.08382 12.4163 6.05643C12.3929 6.02903 12.3757 5.99681 12.3661 5.96204C12.3564 5.92727 12.3545 5.89081 12.3605 5.85523L12.6842 3.55344C12.6971 3.47495 12.7369 3.40339 12.7967 3.35101C12.8566 3.29864 12.9328 3.2687 13.0123 3.26633H14.349C14.3807 3.26557 14.4123 3.27186 14.4413 3.28473C14.4704 3.2976 14.4962 3.31673 14.517 3.34076C14.5378 3.3648 14.553 3.39313 14.5615 3.42373C14.57 3.45433 14.5717 3.48644 14.5664 3.51775ZM16.125 3.25484C16.4912 3.25484 16.9654 3.25977 17.4412 3.26756C18.0178 3.27699 18.5223 3.54195 18.825 3.99394C19.1483 4.48137 19.439 4.98972 19.695 5.51562C19.8303 5.79125 19.5813 6.15014 19.2553 6.15014H15.7587L16.125 3.25484Z" fill="#817566"/>
<path d="M8.91904 4.65922H8.271L8.39404 3.77164H9.04168C9.04168 3.77164 9.51705 3.74088 9.43912 4.21543C9.44117 4.21543 9.38662 4.65922 8.91904 4.65922Z" fill="#817566"/>
</svg>
