<svg width="40" height="40" viewBox="0 0 40 40" fill="none" xmlns="http://www.w3.org/2000/svg">
<g clip-path="url(#clip0_511_1286)">
<path d="M18.2446 32.9263L13.9332 37.5247C10.537 41.1468 4.67932 40.7332 1.80925 36.6815C1.61993 36.4142 1.43657 36.1428 1.25932 35.8673L1.21643 35.8005C-1.10271 32.1688 -0.0220037 27.3411 3.60354 25.0125L8.85034 21.6426L18.2446 32.9263Z" fill="#F2A98C"/>
<path d="M27.8999 11.797C28.6343 13.1195 30.3017 13.5963 31.6242 12.8619L38.5965 8.99016C39.919 8.25578 40.3957 6.58836 39.6613 5.26586C38.9269 3.94336 37.2595 3.46664 35.937 4.20102L28.9648 8.07274C27.6423 8.80719 27.1655 10.4746 27.8999 11.797ZM9.31764 3.59156C11.7718 3.03805 14.2099 4.57875 14.7634 7.03289L16.1523 13.191C21.7444 11.134 27.8391 12.9955 30.3562 17.7877C33.1287 23.0657 30.5117 29.8996 24.5109 33.0517C18.5102 36.2038 11.3981 34.4804 8.62561 29.2024C7.16366 26.4193 7.20061 23.2038 8.44186 20.3235C9.5735 17.6976 9.82202 14.7752 9.19288 11.9859L7.83038 5.94485C7.59139 4.88438 8.25717 3.83078 9.31764 3.59156Z" fill="#FFC5AB"/>
<path d="M32.6424 2.70484V32.0435C32.6424 33.537 31.4319 34.7484 29.9376 34.7484H16.0271C14.5337 34.7484 13.3223 33.537 13.3223 32.0435V2.70484C13.3222 1.21055 14.5337 0 16.0271 0H29.9376C31.4319 0 32.6424 1.21055 32.6424 2.70484Z" fill="#424242"/>
<path d="M31.219 2.88445V31.8639C31.219 32.5922 30.629 33.1822 29.9007 33.1822H16.0639C15.3356 33.1822 14.7456 32.5922 14.7456 31.8639V2.88445C14.7456 2.15617 15.3356 1.56617 16.0639 1.56617H29.9008C30.629 1.56617 31.219 2.15617 31.219 2.88445Z" fill="white"/>
<path d="M31.2191 2.88445V22.8522H14.7456V2.88445C14.7456 2.15617 15.3356 1.56617 16.0639 1.56617H29.9008C30.6291 1.56617 31.2191 2.15617 31.2191 2.88445ZM27.8019 26.0252H18.1629C17.4521 26.0252 16.8758 26.6016 16.8758 27.3124V28.4798C16.8758 29.1907 17.452 29.767 18.1629 29.767H27.8019C28.5127 29.767 29.089 29.1908 29.089 28.4798V27.3124C29.089 26.6015 28.5127 26.0252 27.8019 26.0252Z" fill="#AC6BAD"/>
<path d="M22.9823 20.5649C26.1565 20.5649 28.7297 19.9216 28.7297 19.128C28.7297 18.3345 26.1565 17.6912 22.9823 17.6912C19.8081 17.6912 17.2349 18.3345 17.2349 19.128C17.2349 19.9216 19.8081 20.5649 22.9823 20.5649Z" fill="#913E98"/>
<path d="M23.1668 10.4174L23.1516 10.0681H21.3071L21.2945 9.08031L21.2388 4.60359L21.2378 4.52633C21.2372 4.48366 21.245 4.44128 21.2607 4.40163C21.2765 4.36198 21.3 4.32584 21.3298 4.2953C21.3596 4.26475 21.3951 4.2404 21.4344 4.22364C21.4736 4.20688 21.5158 4.19805 21.5585 4.19765L22.7645 4.18242C22.8894 4.18148 22.9989 4.2507 23.0546 4.35305C23.0788 4.39797 23.0924 4.4482 23.0932 4.50305L23.1507 9.08031L23.1624 10.0681L23.1668 10.4174Z" fill="#FC933A"/>
<path d="M20.0289 8.8575C19.9814 8.78787 19.9177 8.73087 19.8432 8.69143C19.7687 8.65199 19.6857 8.63131 19.6014 8.63117H18.152L18.0819 7.64336L18.0567 7.28593L17.8763 4.73914C17.8574 4.4814 18.0513 4.25781 18.31 4.23898L19.2269 4.17429C19.3086 4.16867 19.3904 4.18453 19.4642 4.22028C19.5379 4.25604 19.601 4.31045 19.6472 4.37812C19.6941 4.44617 19.7217 4.5256 19.7271 4.60804L19.9247 7.3982L19.9768 8.12742L19.9813 8.1957L20.0289 8.8575Z" fill="#FEB33C"/>
<path d="M27.0445 4.73914L26.8397 7.62992L26.7688 8.63125H26.3584C26.2513 8.63126 26.1469 8.66453 26.0595 8.72646C25.9722 8.78839 25.9062 8.87592 25.8707 8.97695C25.8707 8.97789 25.8698 8.97875 25.8698 8.97969L25.6534 9.60742L25.4944 10.0681H24.8057L24.8757 9.08031L24.9251 8.37984L25.1927 4.60813C25.2017 4.48435 25.2594 4.3692 25.3532 4.2879C25.447 4.2066 25.5691 4.16578 25.6929 4.17438L26.6107 4.23906C26.6993 4.24548 26.7842 4.2769 26.8556 4.32968C26.9269 4.38246 26.9819 4.45442 27.0139 4.53719C27.0382 4.6 27.0499 4.6682 27.0445 4.73914Z" fill="#FC933A"/>
<path d="M21.3788 10.068H20.4655L20.3065 9.60735L20.0901 8.97961C20.0901 8.97867 20.0892 8.97781 20.0892 8.97688C20.0746 8.93452 20.0544 8.89434 20.029 8.85742C19.9815 8.78779 19.9177 8.73079 19.8433 8.69135C19.7688 8.65192 19.6858 8.63123 19.6015 8.63109H19.5315V4.64664C19.5315 4.53977 19.5764 4.44547 19.6474 4.37813C19.6912 4.33627 19.7448 4.30586 19.8032 4.28956C19.8616 4.27327 19.9231 4.2716 19.9824 4.28469L21.0816 4.52625C21.164 4.54472 21.2377 4.59056 21.2907 4.65629C21.3437 4.72202 21.3729 4.80377 21.3734 4.8882L21.3779 9.08024L21.3788 10.068ZM28.6627 4.8236L28.3187 7.43149L28.2881 7.665L28.1525 8.68969C28.0542 8.65071 27.9494 8.6309 27.8436 8.63133H26.3583C26.3382 8.63118 26.3181 8.63238 26.2981 8.63492L26.4292 7.65156L26.4777 7.2843L26.8056 4.82188C26.8138 4.76082 26.8372 4.7028 26.8736 4.65308C26.91 4.60336 26.9582 4.56353 27.0139 4.53719C27.0542 4.51744 27.0977 4.50526 27.1424 4.50125L28.264 4.40602C28.5001 4.38625 28.6941 4.58922 28.6627 4.8236ZM24.9565 9.08024L25.0014 10.068H23.1623L23.1668 10.4173L23.1516 10.068L23.1084 9.08024L22.9145 4.65922C22.9119 4.60073 22.9232 4.54246 22.9476 4.48921C22.9719 4.43597 23.0086 4.38927 23.0545 4.35297C23.0956 4.32041 23.143 4.29693 23.1938 4.28408C23.2446 4.27123 23.2975 4.26931 23.3491 4.27844L24.4581 4.47149C24.5414 4.48582 24.6172 4.52819 24.6731 4.59157C24.729 4.65495 24.7615 4.73552 24.7652 4.81992L24.9251 8.37969L24.9565 9.08024Z" fill="#FFD23E"/>
<path d="M28.6522 9.56875L27.4075 17.8162C27.3016 18.5185 26.6307 19.0484 25.8593 19.0484H20.1011C19.3297 19.0484 18.6588 18.5185 18.5529 17.8162L18.5071 17.5082L18.4991 17.4552L17.3083 9.56875C17.2328 9.06765 17.6073 8.63125 18.1165 8.63125H19.6018C19.7088 8.63142 19.8132 8.66475 19.9005 8.72666C19.9878 8.78856 20.0538 8.876 20.0894 8.97695C20.0894 8.97789 20.0904 8.97875 20.0904 8.97969L20.3068 9.60742L20.4658 10.0681H25.4948L25.6537 9.60742L25.8701 8.97969C25.8701 8.97875 25.8711 8.97789 25.8711 8.97695C25.9067 8.876 25.9727 8.78856 26.06 8.72666C26.1473 8.66475 26.2517 8.63142 26.3587 8.63125H27.8441C28.3531 8.63125 28.7276 9.06765 28.6522 9.56875Z" fill="#DB4646"/>
<path d="M27.0231 8.63125L25.8691 16.2771C25.7632 16.9802 25.0915 17.5101 24.32 17.5101H18.5627C18.5394 17.4903 18.5223 17.4751 18.499 17.4553L17.3083 9.56875C17.2328 9.06765 17.6073 8.63125 18.1165 8.63125H19.6018C19.7088 8.63142 19.8132 8.66475 19.9005 8.72666C19.9878 8.78856 20.0538 8.876 20.0894 8.97695C20.0894 8.97789 20.0904 8.97875 20.0904 8.97969L20.3068 9.60742C20.3532 9.74194 20.4405 9.85861 20.5564 9.94119C20.6723 10.0238 20.811 10.0681 20.9533 10.0681H25.0071C25.1494 10.0682 25.2882 10.0238 25.4041 9.94121C25.52 9.85863 25.6072 9.74194 25.6537 9.60742L25.8701 8.97969C25.8701 8.97875 25.871 8.97789 25.871 8.97695C25.9066 8.876 25.9726 8.78856 26.0599 8.72666C26.1473 8.66475 26.2516 8.63142 26.3587 8.63125H27.0231Z" fill="#EE5351"/>
<path d="M20.2485 12.5005H25.7864C26.2066 12.5005 26.5092 12.9035 26.3921 13.307L26.0887 14.3523C26.0506 14.4834 25.9709 14.5987 25.8617 14.6807C25.7525 14.7628 25.6196 14.8071 25.483 14.8071H20.552C20.4154 14.8071 20.2825 14.7628 20.1733 14.6807C20.0641 14.5987 19.9844 14.4834 19.9463 14.3523L19.6429 13.307C19.5256 12.9035 19.8283 12.5005 20.2485 12.5005Z" fill="#FEC110"/>
<path d="M33.9511 28.1748L31.0351 29.794C29.9701 30.3858 28.6266 30.0014 28.0348 28.9363C27.5265 28.0212 27.7376 26.9023 28.4812 26.2297C28.6063 26.1158 28.7444 26.017 28.8925 25.9352L31.8084 24.316C32.1352 24.1339 32.503 24.0384 32.8771 24.0385C33.653 24.0385 34.4055 24.448 34.8087 25.1745C34.9211 25.3763 35.0011 25.5945 35.0458 25.8211C35.2244 26.7344 34.8087 27.698 33.9511 28.1748Z" fill="#F2AEA0"/>
<path d="M35.0458 25.8211C34.9205 25.9347 34.7824 26.0335 34.6345 26.1156L31.7185 27.7348C30.6526 28.3257 29.3091 27.9422 28.7174 26.8762C28.6053 26.6744 28.5256 26.4562 28.4812 26.2297C28.6064 26.1158 28.7444 26.017 28.8925 25.9352L31.8085 24.316C32.1352 24.1339 32.5031 24.0384 32.8771 24.0385C33.6531 24.0385 34.4056 24.448 34.8088 25.1745C34.9211 25.3763 35.0011 25.5945 35.0458 25.8211Z" fill="#FFC5AB"/>
<path d="M33.9511 22.2702L31.0351 23.8894C29.9701 24.4812 28.6266 24.0968 28.0348 23.0317C27.5265 22.1166 27.7376 20.9977 28.4812 20.3251C28.6063 20.2112 28.7444 20.1124 28.8925 20.0305L31.8084 18.4114C32.1352 18.2293 32.503 18.1338 32.8771 18.1339C33.653 18.1339 34.4055 18.5434 34.8087 19.2699C34.9211 19.4717 35.0011 19.6899 35.0458 19.9165C35.2244 20.8298 34.8087 21.7934 33.9511 22.2702Z" fill="#F2AEA0"/>
<path d="M35.0458 19.9165C34.9205 20.0301 34.7824 20.1289 34.6345 20.211L31.7185 21.8302C30.6526 22.4211 29.3091 22.0376 28.7174 20.9716C28.6053 20.7698 28.5256 20.5516 28.4812 20.3251C28.6064 20.2112 28.7444 20.1124 28.8925 20.0305L31.8085 18.4114C32.1352 18.2293 32.5031 18.1338 32.8771 18.1339C33.6531 18.1339 34.4056 18.5434 34.8088 19.2699C34.9211 19.4717 35.0011 19.6899 35.0458 19.9165Z" fill="#FFC5AB"/>
<path d="M33.9511 17.4209L31.0351 19.0401C29.9701 19.6319 28.6266 19.2475 28.0348 18.1824C27.5265 17.2673 27.7376 16.1484 28.4812 15.4758C28.6063 15.3619 28.7444 15.2631 28.8925 15.1812L31.8084 13.5621C32.1352 13.38 32.503 13.2845 32.8771 13.2846C33.653 13.2846 34.4055 13.6941 34.8087 14.4206C34.9211 14.6224 35.0011 14.8406 35.0458 15.0672C35.2244 15.9805 34.8087 16.9441 33.9511 17.4209Z" fill="#F2AEA0"/>
<path d="M35.0458 15.0672C34.9205 15.1808 34.7824 15.2796 34.6345 15.3617L31.7185 16.9809C30.6526 17.5718 29.3091 17.1883 28.7174 16.1223C28.6053 15.9205 28.5256 15.7023 28.4812 15.4758C28.6064 15.3619 28.7444 15.2631 28.8925 15.1812L31.8085 13.5621C32.1352 13.38 32.5031 13.2845 32.8771 13.2846C33.6531 13.2846 34.4056 13.6941 34.8088 14.4206C34.9211 14.6224 35.0011 14.8406 35.0458 15.0672Z" fill="#FFC5AB"/>
<path d="M30.8207 37.807C34.7884 37.807 38.0049 34.5906 38.0049 30.6228C38.0049 26.6551 34.7884 23.4386 30.8207 23.4386C26.853 23.4386 23.6365 26.6551 23.6365 30.6228C23.6365 34.5906 26.853 37.807 30.8207 37.807Z" fill="#09CC66"/>
<path d="M29.925 34.2527C29.7943 34.2527 29.6651 34.2252 29.5458 34.172C29.4265 34.1188 29.3198 34.041 29.2325 33.9438L26.3376 30.718C25.9944 30.3355 26.0262 29.7472 26.4087 29.404C26.791 29.0608 27.3795 29.0926 27.7226 29.475L29.9936 32.0055L34.5116 27.9177C34.8926 27.573 35.4811 27.6023 35.8258 27.9835C36.1707 28.3646 36.1412 28.953 35.7601 29.2978L30.5494 34.0124C30.3782 34.1671 30.1557 34.2527 29.925 34.2527Z" fill="white"/>
</g>
<defs>
<clipPath id="clip0_511_1286">
<rect width="40" height="40" fill="white"/>
</clipPath>
</defs>
</svg>
