<svg width="17" height="17" viewBox="0 0 17 17" fill="none" xmlns="http://www.w3.org/2000/svg">
<path d="M15.4062 6.90625C15.5471 6.90625 15.6823 6.85028 15.7819 6.75065C15.8815 6.65102 15.9375 6.5159 15.9375 6.375V4.78125C15.9375 3.90256 15.2224 3.1875 14.3438 3.1875H11.1562V4.78125C11.1562 4.92215 11.1003 5.05727 11.0007 5.1569C10.901 5.25653 10.7659 5.3125 10.625 5.3125C10.4841 5.3125 10.349 5.25653 10.2493 5.1569C10.1497 5.05727 10.0938 4.92215 10.0938 4.78125V3.1875H2.65625C1.77756 3.1875 1.0625 3.90256 1.0625 4.78125V6.375C1.0625 6.5159 1.11847 6.65102 1.2181 6.75065C1.31773 6.85028 1.45285 6.90625 1.59375 6.90625C2.47244 6.90625 3.1875 7.62131 3.1875 8.5C3.1875 9.37869 2.47244 10.0938 1.59375 10.0938C1.45285 10.0938 1.31773 10.1497 1.2181 10.2493C1.11847 10.349 1.0625 10.4841 1.0625 10.625V12.2188C1.0625 13.0974 1.77756 13.8125 2.65625 13.8125H10.0938V12.2188C10.0938 12.0779 10.1497 11.9427 10.2493 11.8431C10.349 11.7435 10.4841 11.6875 10.625 11.6875C10.7659 11.6875 10.901 11.7435 11.0007 11.8431C11.1003 11.9427 11.1562 12.0779 11.1562 12.2188V13.8125H14.3438C15.2224 13.8125 15.9375 13.0974 15.9375 12.2188V10.625C15.9375 10.4841 15.8815 10.349 15.7819 10.2493C15.6823 10.1497 15.5471 10.0938 15.4062 10.0938C14.5276 10.0938 13.8125 9.37869 13.8125 8.5C13.8125 7.62131 14.5276 6.90625 15.4062 6.90625ZM11.1562 10.0938C11.1562 10.2346 11.1003 10.3698 11.0007 10.4694C10.901 10.569 10.7659 10.625 10.625 10.625C10.4841 10.625 10.349 10.569 10.2493 10.4694C10.1497 10.3698 10.0938 10.2346 10.0938 10.0938V9.5625C10.0938 9.4216 10.1497 9.28648 10.2493 9.18685C10.349 9.08722 10.4841 9.03125 10.625 9.03125C10.7659 9.03125 10.901 9.08722 11.0007 9.18685C11.1003 9.28648 11.1562 9.4216 11.1562 9.5625V10.0938ZM11.1562 7.4375C11.1562 7.5784 11.1003 7.71352 11.0007 7.81315C10.901 7.91278 10.7659 7.96875 10.625 7.96875C10.4841 7.96875 10.349 7.91278 10.2493 7.81315C10.1497 7.71352 10.0938 7.5784 10.0938 7.4375V6.90625C10.0938 6.76535 10.1497 6.63023 10.2493 6.5306C10.349 6.43097 10.4841 6.375 10.625 6.375C10.7659 6.375 10.901 6.43097 11.0007 6.5306C11.1003 6.63023 11.1562 6.76535 11.1562 6.90625V7.4375Z" fill="#668175"/>
</svg>
