<svg width="27" height="27" viewBox="0 0 27 27" fill="none" xmlns="http://www.w3.org/2000/svg">
<path d="M6.625 17.875H24.625C24.9234 17.875 25.2095 17.7565 25.4205 17.5455C25.6315 17.3345 25.75 17.0484 25.75 16.75V2.125C25.75 1.82663 25.6315 1.54048 25.4205 1.32951C25.2095 1.11853 24.9234 1 24.625 1H8.875C8.57663 1 8.29048 1.11853 8.07951 1.32951C7.86853 1.54048 7.75 1.82663 7.75 2.125V3.25" stroke="#201254" stroke-linecap="round" stroke-linejoin="round"/>
<path d="M10 14.5L6.625 17.875L10 21.25" stroke="#201254" stroke-linecap="round" stroke-linejoin="round"/>
<path d="M20.125 8.875H2.125C1.82663 8.875 1.54048 8.99353 1.32951 9.20451C1.11853 9.41548 1 9.70163 1 10V24.625C1 24.9234 1.11853 25.2095 1.32951 25.4205C1.54048 25.6315 1.82663 25.75 2.125 25.75H17.875C18.1734 25.75 18.4595 25.6315 18.6705 25.4205C18.8815 25.2095 19 24.9234 19 24.625V23.5" stroke="#201254" stroke-linecap="round" stroke-linejoin="round"/>
<path d="M16.75 12.25L20.125 8.875L16.75 5.5" stroke="#201254" stroke-linecap="round" stroke-linejoin="round"/>
</svg>
