<svg width="112" height="21" viewBox="0 0 112 21" fill="none" xmlns="http://www.w3.org/2000/svg">
<path d="M3.91231 5.75231C4.45077 4.76154 5.24769 4.00769 6.30308 3.49077C7.35846 2.97384 8.64 2.71538 10.1477 2.71538V5.72C9.97539 5.69846 9.73846 5.68769 9.43692 5.68769C7.75692 5.68769 6.43231 6.19384 5.46308 7.20615C4.51539 8.19692 4.04154 9.61846 4.04154 11.4708V20H0.94L0.94 2.87692H3.91231V5.75231ZM20.1772 20.1938C18.4757 20.1938 16.9464 19.8169 15.5895 19.0631C14.2326 18.3092 13.1664 17.2754 12.3911 15.9615C11.6372 14.6262 11.2603 13.1185 11.2603 11.4385C11.2603 9.75846 11.6372 8.26154 12.3911 6.94769C13.1664 5.61231 14.2326 4.57846 15.5895 3.84615C16.9464 3.09231 18.4757 2.71538 20.1772 2.71538C21.8788 2.71538 23.3972 3.09231 24.7326 3.84615C26.0895 4.57846 27.1449 5.61231 27.8988 6.94769C28.6741 8.26154 29.0618 9.75846 29.0618 11.4385C29.0618 13.1185 28.6741 14.6262 27.8988 15.9615C27.1449 17.2754 26.0895 18.3092 24.7326 19.0631C23.3972 19.8169 21.8788 20.1938 20.1772 20.1938ZM20.1772 17.48C21.2757 17.48 22.2557 17.2323 23.1172 16.7369C24.0003 16.22 24.6895 15.5092 25.1849 14.6046C25.6803 13.6785 25.928 12.6231 25.928 11.4385C25.928 10.2538 25.6803 9.20923 25.1849 8.30461C24.6895 7.37846 24.0003 6.66769 23.1172 6.17231C22.2557 5.67692 21.2757 5.42923 20.1772 5.42923C19.0788 5.42923 18.088 5.67692 17.2049 6.17231C16.3434 6.66769 15.6541 7.37846 15.1372 8.30461C14.6418 9.20923 14.3941 10.2538 14.3941 11.4385C14.3941 12.6231 14.6418 13.6785 15.1372 14.6046C15.6541 15.5092 16.3434 16.22 17.2049 16.7369C18.088 17.2323 19.0788 17.48 20.1772 17.48ZM39.7158 20.1938C38.0143 20.1938 36.485 19.8169 35.1281 19.0631C33.7712 18.3092 32.705 17.2754 31.9296 15.9615C31.1758 14.6262 30.7989 13.1185 30.7989 11.4385C30.7989 9.75846 31.1758 8.26154 31.9296 6.94769C32.705 5.61231 33.7712 4.57846 35.1281 3.84615C36.485 3.09231 38.0143 2.71538 39.7158 2.71538C41.4173 2.71538 42.9358 3.09231 44.2712 3.84615C45.6281 4.57846 46.6835 5.61231 47.4373 6.94769C48.2127 8.26154 48.6004 9.75846 48.6004 11.4385C48.6004 13.1185 48.2127 14.6262 47.4373 15.9615C46.6835 17.2754 45.6281 18.3092 44.2712 19.0631C42.9358 19.8169 41.4173 20.1938 39.7158 20.1938ZM39.7158 17.48C40.8143 17.48 41.7943 17.2323 42.6558 16.7369C43.5389 16.22 44.2281 15.5092 44.7235 14.6046C45.2189 13.6785 45.4666 12.6231 45.4666 11.4385C45.4666 10.2538 45.2189 9.20923 44.7235 8.30461C44.2281 7.37846 43.5389 6.66769 42.6558 6.17231C41.7943 5.67692 40.8143 5.42923 39.7158 5.42923C38.6173 5.42923 37.6266 5.67692 36.7435 6.17231C35.8819 6.66769 35.1927 7.37846 34.6758 8.30461C34.1804 9.20923 33.9327 10.2538 33.9327 11.4385C33.9327 12.6231 34.1804 13.6785 34.6758 14.6046C35.1927 15.5092 35.8819 16.22 36.7435 16.7369C37.6266 17.2323 38.6173 17.48 39.7158 17.48ZM66.5996 2.87692L59.1042 20H55.938L48.4427 2.87692H51.6734L57.5534 16.6077L63.5627 2.87692H66.5996ZM75.3855 20.1938C73.684 20.1938 72.1547 19.8169 70.7978 19.0631C69.4409 18.3092 68.3747 17.2754 67.5993 15.9615C66.8455 14.6262 66.4686 13.1185 66.4686 11.4385C66.4686 9.75846 66.8455 8.26154 67.5993 6.94769C68.3747 5.61231 69.4409 4.57846 70.7978 3.84615C72.1547 3.09231 73.684 2.71538 75.3855 2.71538C77.087 2.71538 78.6055 3.09231 79.9409 3.84615C81.2978 4.57846 82.3532 5.61231 83.107 6.94769C83.8824 8.26154 84.2701 9.75846 84.2701 11.4385C84.2701 13.1185 83.8824 14.6262 83.107 15.9615C82.3532 17.2754 81.2978 18.3092 79.9409 19.0631C78.6055 19.8169 77.087 20.1938 75.3855 20.1938ZM75.3855 17.48C76.484 17.48 77.464 17.2323 78.3255 16.7369C79.2086 16.22 79.8978 15.5092 80.3932 14.6046C80.8886 13.6785 81.1363 12.6231 81.1363 11.4385C81.1363 10.2538 80.8886 9.20923 80.3932 8.30461C79.8978 7.37846 79.2086 6.66769 78.3255 6.17231C77.464 5.67692 76.484 5.42923 75.3855 5.42923C74.287 5.42923 73.2963 5.67692 72.4132 6.17231C71.5517 6.66769 70.8624 7.37846 70.3455 8.30461C69.8501 9.20923 69.6024 10.2538 69.6024 11.4385C69.6024 12.6231 69.8501 13.6785 70.3455 14.6046C70.8624 15.5092 71.5517 16.22 72.4132 16.7369C73.2963 17.2323 74.287 17.48 75.3855 17.48ZM87.6142 20.156C87.1289 20.156 86.7129 19.9913 86.3662 19.662C86.0196 19.3153 85.8462 18.882 85.8462 18.362C85.8462 17.8593 86.0196 17.4433 86.3662 17.114C86.7129 16.7673 87.1289 16.594 87.6142 16.594C88.0996 16.594 88.5069 16.7587 88.8362 17.088C89.1656 17.4173 89.3302 17.842 89.3302 18.362C89.3302 18.882 89.1569 19.3153 88.8102 19.662C88.4809 19.9913 88.0822 20.156 87.6142 20.156ZM92.1269 6.22H94.6229V20H92.1269V6.22ZM93.3749 3.568C92.8895 3.568 92.4822 3.412 92.1529 3.1C91.8409 2.788 91.6849 2.40667 91.6849 1.956C91.6849 1.50533 91.8409 1.124 92.1529 0.811999C92.4822 0.482666 92.8895 0.317999 93.3749 0.317999C93.8602 0.317999 94.2589 0.473999 94.5709 0.785999C94.9002 1.08067 95.0649 1.45333 95.0649 1.904C95.0649 2.372 94.9002 2.77067 94.5709 3.1C94.2589 3.412 93.8602 3.568 93.3749 3.568ZM105.967 6.09C107.717 6.09 109.104 6.60133 110.127 7.624C111.167 8.62933 111.687 10.1113 111.687 12.07V20H109.191V12.356C109.191 11.0213 108.87 10.016 108.229 9.34C107.587 8.664 106.669 8.326 105.473 8.326C104.121 8.326 103.055 8.72467 102.275 9.522C101.495 10.302 101.105 11.4287 101.105 12.902V20H98.6086V6.22H101.001V8.3C101.503 7.58933 102.179 7.04333 103.029 6.662C103.895 6.28067 104.875 6.09 105.967 6.09Z" fill="#282828"/>
</svg>
