<svg width="24" height="24" viewBox="0 0 24 24" fill="none" xmlns="http://www.w3.org/2000/svg">
<g clip-path="url(#clip0_880_617)">
<path d="M22.6976 14.0486L22.6906 14.0521C21.87 14.69 21.5223 15.7757 21.8144 16.7803L21.8178 16.7874C22.2838 18.3841 21.1294 19.9949 19.4881 20.0373H19.4811C18.4449 20.0655 17.5339 20.7352 17.1896 21.7257V21.7292C16.6402 23.3012 14.7695 23.9181 13.4168 22.9699C12.5769 22.3885 11.4666 22.3581 10.5829 22.9699H10.5794C9.22683 23.9145 7.35606 23.3012 6.81013 21.7256C6.64162 21.2422 6.33235 20.8219 5.92321 20.5205C5.51406 20.219 5.02429 20.0505 4.51865 20.0372H4.51169C2.87047 19.9949 1.71599 18.3841 2.18196 16.7873L2.18542 16.7803C2.47744 15.7756 2.12973 14.69 1.30917 14.052L1.3022 14.0485C-0.00177532 13.0333 -0.00177532 11.0453 1.3022 10.0302L1.30917 10.0267C2.12973 9.38871 2.47744 8.30302 2.18196 7.29844V7.29138C1.71248 5.69466 2.87042 4.08377 4.51169 4.04148H4.51865C5.55137 4.01328 6.46587 3.34354 6.81013 2.35309V2.34958C7.35602 0.777509 9.22683 0.160673 10.5794 1.10889H10.5829C11.4348 1.70459 12.5614 1.70459 13.4168 1.10889C14.7831 0.152473 16.6434 0.786942 17.1896 2.34958V2.35309C17.5339 3.34004 18.4449 4.01333 19.4811 4.04148H19.4881C21.1293 4.08377 22.2838 5.69466 21.8178 7.29138L21.8144 7.29844C21.5223 8.30302 21.87 9.38871 22.6906 10.0267L22.6976 10.0302C24.0016 11.0453 24.0016 13.0334 22.6976 14.0486Z" fill="#32BA7C"/>
<path d="M11.9625 18.6841C15.5398 18.6841 18.4397 15.7444 18.4397 12.1182C18.4397 8.49191 15.5398 5.55225 11.9625 5.55225C8.38529 5.55225 5.48535 8.49191 5.48535 12.1182C5.48535 15.7444 8.38529 18.6841 11.9625 18.6841Z" fill="#32BA7C"/>
<path d="M9.83198 16.0336L9.83209 16.0337C10.2156 16.448 10.8656 16.4375 11.2366 16.008L9.83198 16.0336ZM9.83198 16.0336L7.7354 13.7705C7.73539 13.7705 7.73538 13.7705 7.73537 13.7705C7.37168 13.3778 7.39107 12.7583 7.777 12.3901L7.77722 12.3899C8.15865 12.0257 8.75711 12.0442 9.11676 12.4326L9.11688 12.4327L10.1177 13.5126L10.4979 13.9228L10.8631 13.4993L15.1173 8.56592L15.1175 8.56569C15.463 8.16455 16.0603 8.12458 16.4551 8.47474C16.8534 8.82839 16.895 9.44669 16.5449 9.85271L11.2367 16.0079L9.83198 16.0336ZM9.48361 12.0929C8.935 11.5005 8.01595 11.4705 7.43189 12.0283C6.84783 12.5854 6.81949 13.5175 7.36858 14.1103L9.48361 12.0929ZM9.48361 12.0929L10.1424 12.8037L9.48361 12.0929Z" fill="white" stroke="#32BA7C"/>
</g>
<defs>
<clipPath id="clip0_880_617">
<rect width="24" height="24" fill="white"/>
</clipPath>
</defs>
</svg>
