<svg width="24" height="24" viewBox="0 0 24 24" fill="none" xmlns="http://www.w3.org/2000/svg">
<g clip-path="url(#clip0_1001_3177)">
<path d="M19.7156 3.36572L2.24062 8.28759C2.09187 8.32826 1.95926 8.4138 1.86088 8.53256C1.76249 8.65131 1.7031 8.79751 1.6908 8.95123C1.67851 9.10496 1.7139 9.25874 1.79215 9.39162C1.87041 9.52451 1.98772 9.63004 2.12812 9.69384L10.1531 13.4907C10.3103 13.5635 10.4366 13.6898 10.5094 13.847L14.3062 21.872C14.3701 22.0124 14.4756 22.1297 14.6085 22.2079C14.7414 22.2862 14.8951 22.3216 15.0489 22.3093C15.2026 22.297 15.3488 22.2376 15.4675 22.1392C15.5863 22.0408 15.6718 21.9082 15.7125 21.7595L20.6344 4.28447C20.6717 4.15695 20.674 4.02174 20.6411 3.89302C20.6081 3.7643 20.5412 3.64681 20.4472 3.55286C20.3533 3.45891 20.2358 3.39197 20.1071 3.35904C19.9784 3.32611 19.8431 3.32842 19.7156 3.36572Z" stroke="white" stroke-width="1.5" stroke-linecap="round" stroke-linejoin="round"/>
<path d="M10.3969 13.6032L14.6344 9.36572" stroke="white" stroke-width="1.5" stroke-linecap="round" stroke-linejoin="round"/>
</g>
<defs>
<clipPath id="clip0_1001_3177">
<rect width="24" height="24" fill="white"/>
</clipPath>
</defs>
</svg>
