<svg width="22" height="22" viewBox="0 0 22 22" fill="none" xmlns="http://www.w3.org/2000/svg">
<g clip-path="url(#clip0_1388_5805)">
<path d="M5.8002 13.823C7.23614 13.823 8.4002 12.659 8.4002 11.223C8.4002 9.78711 7.23614 8.62305 5.8002 8.62305C4.36425 8.62305 3.2002 9.78711 3.2002 11.223C3.2002 12.659 4.36425 13.823 5.8002 13.823Z" stroke="black" stroke-linecap="round" stroke-linejoin="round"/>
<path d="M14.9003 19.6736C16.3362 19.6736 17.5003 18.5096 17.5003 17.0736C17.5003 15.6377 16.3362 14.4736 14.9003 14.4736C13.4644 14.4736 12.3003 15.6377 12.3003 17.0736C12.3003 18.5096 13.4644 19.6736 14.9003 19.6736Z" stroke="black" stroke-linecap="round" stroke-linejoin="round"/>
<path d="M14.9003 7.97344C16.3362 7.97344 17.5003 6.80938 17.5003 5.37344C17.5003 3.9375 16.3362 2.77344 14.9003 2.77344C13.4644 2.77344 12.3003 3.9375 12.3003 5.37344C12.3003 6.80938 13.4644 7.97344 14.9003 7.97344Z" stroke="black" stroke-linecap="round" stroke-linejoin="round"/>
<path d="M12.7146 6.7793L7.98584 9.81805" stroke="black" stroke-linecap="round" stroke-linejoin="round"/>
<path d="M7.98584 12.6289L12.7146 15.6677" stroke="black" stroke-linecap="round" stroke-linejoin="round"/>
</g>
<defs>
<clipPath id="clip0_1388_5805">
<rect width="20.8" height="20.8" fill="white" transform="translate(0.600098 0.823242)"/>
</clipPath>
</defs>
</svg>
