<svg width="20" height="21" viewBox="0 0 20 21" fill="none" xmlns="http://www.w3.org/2000/svg">
<path d="M5 12.686C6.38071 12.686 7.5 11.55 7.5 10.1487C7.5 8.74734 6.38071 7.61133 5 7.61133C3.61929 7.61133 2.5 8.74734 2.5 10.1487C2.5 11.55 3.61929 12.686 5 12.686Z" stroke="#282828" stroke-width="1.5" stroke-linecap="round" stroke-linejoin="round"/>
<path d="M13.75 18.395C15.1307 18.395 16.25 17.259 16.25 15.8577C16.25 14.4563 15.1307 13.3203 13.75 13.3203C12.3693 13.3203 11.25 14.4563 11.25 15.8577C11.25 17.259 12.3693 18.395 13.75 18.395Z" stroke="#282828" stroke-width="1.5" stroke-linecap="round" stroke-linejoin="round"/>
<path d="M13.75 6.97703C15.1307 6.97703 16.25 5.84102 16.25 4.43969C16.25 3.03835 15.1307 1.90234 13.75 1.90234C12.3693 1.90234 11.25 3.03835 11.25 4.43969C11.25 5.84102 12.3693 6.97703 13.75 6.97703Z" stroke="#282828" stroke-width="1.5" stroke-linecap="round" stroke-linejoin="round"/>
<path d="M11.6484 5.8125L7.10156 8.77802" stroke="#282828" stroke-width="1.5" stroke-linecap="round" stroke-linejoin="round"/>
<path d="M7.10156 11.5215L11.6484 14.487" stroke="#282828" stroke-width="1.5" stroke-linecap="round" stroke-linejoin="round"/>
</svg>
