<svg width="42" height="42" viewBox="0 0 42 42" fill="none" xmlns="http://www.w3.org/2000/svg">
<rect width="42" height="42" rx="6" fill="#FEF7F8"/>
<g clip-path="url(#clip0_461_1670)">
<path d="M21.4851 29L20.2426 30.2425C19.1143 31.3526 17.5931 31.9718 16.0102 31.9654C14.4274 31.959 12.9113 31.3273 11.792 30.2081C10.6728 29.0889 10.0412 27.5727 10.0347 25.9899C10.0283 24.4071 10.6475 22.8858 11.7576 21.7575L14.7714 18.75C15.8524 17.6668 17.3065 17.0376 18.8361 16.9911C20.3657 16.9446 21.8553 17.4844 23.0001 18.5" stroke="#ED2F51" stroke-width="2" stroke-linecap="round" stroke-linejoin="round"/>
<path d="M20.515 13L21.7575 11.7575C22.8858 10.6474 24.4071 10.0282 25.9899 10.0346C27.5727 10.041 29.0889 10.6727 30.2081 11.7919C31.3273 12.9111 31.959 14.4273 31.9654 16.0101C31.9718 17.5929 31.3526 19.1142 30.2425 20.2425L27.2287 23.2563C26.1469 24.3386 24.6924 24.9667 23.1628 25.012C21.6331 25.0573 20.144 24.5164 19 23.5" stroke="#ED2F51" stroke-width="2" stroke-linecap="round" stroke-linejoin="round"/>
</g>
<defs>
<clipPath id="clip0_461_1670">
<rect width="32" height="32" fill="white" transform="translate(5 5)"/>
</clipPath>
</defs>
</svg>
