<svg width="16" height="16" viewBox="0 0 16 16" fill="none" xmlns="http://www.w3.org/2000/svg">
<path d="M15.8187 6.34844C15.7483 6.12694 15.6127 5.93188 15.4295 5.78885C15.2463 5.64581 15.0241 5.56147 14.7922 5.54688L10.6156 5.25859L9.06874 1.35625C8.98428 1.14138 8.83726 0.956807 8.64671 0.826434C8.45617 0.696061 8.23087 0.625888 7.99999 0.625C7.76912 0.625888 7.54382 0.696061 7.35328 0.826434C7.16273 0.956807 7.01571 1.14138 6.93124 1.35625L5.35625 5.27969L1.20781 5.54688C0.976131 5.56241 0.754447 5.64711 0.571433 5.79001C0.388418 5.93291 0.252494 6.12744 0.181245 6.34844C0.108078 6.57282 0.103803 6.81398 0.168971 7.04081C0.23414 7.26765 0.365763 7.46976 0.54687 7.62109L3.73906 10.3211L2.78984 14.0547C2.72416 14.3073 2.73598 14.5738 2.82376 14.8195C2.91153 15.0653 3.07121 15.279 3.28203 15.4328C3.48666 15.5797 3.73046 15.6621 3.98223 15.6697C4.23399 15.6772 4.48228 15.6094 4.69531 15.475L7.99296 13.3867H8.00703L11.5578 15.6297C11.74 15.7481 11.9523 15.8115 12.1695 15.8125C12.3469 15.8111 12.5216 15.7691 12.6801 15.6896C12.8387 15.6101 12.977 15.4954 13.0843 15.3541C13.1915 15.2129 13.265 15.0489 13.299 14.8749C13.333 14.7008 13.3267 14.5212 13.2805 14.35L12.275 10.2648L15.4531 7.62109C15.6342 7.46976 15.7659 7.26765 15.831 7.04081C15.8962 6.81398 15.8919 6.57282 15.8187 6.34844Z" fill="#201254"/>
</svg>
