<svg width="21" height="20" viewBox="0 0 21 20" fill="none" xmlns="http://www.w3.org/2000/svg">
<g clip-path="url(#clip0_184_528)">
<path d="M18.9196 5.9275C19.7329 5.35 20.4171 4.62917 20.9746 3.79917V3.79833C20.2304 4.12417 19.4387 4.34083 18.6121 4.44583C19.4621 3.93833 20.1112 3.14083 20.4162 2.18C19.6237 2.6525 18.7487 2.98583 17.8162 3.1725C17.0637 2.37083 15.9912 1.875 14.8212 1.875C12.5512 1.875 10.7237 3.7175 10.7237 5.97583C10.7237 6.30083 10.7512 6.61333 10.8187 6.91083C7.41041 6.74417 4.39375 5.11083 2.36708 2.62167C2.01375 3.23583 1.80541 3.93833 1.80541 4.69417C1.80541 6.11417 2.53625 7.3725 3.62708 8.10167C2.96791 8.08917 2.32208 7.8975 1.77458 7.59667V7.64167C1.77458 9.63417 3.19541 11.2892 5.05958 11.6708C4.72541 11.7625 4.36208 11.8058 3.98458 11.8058C3.72208 11.8058 3.45708 11.7908 3.20875 11.7358C3.73958 13.3592 5.24791 14.5533 7.03958 14.5925C5.64458 15.6833 3.87291 16.3408 1.95541 16.3408C1.61958 16.3408 1.29708 16.3258 0.974579 16.285C2.79125 17.4558 4.94291 18.125 7.26458 18.125C14.5004 18.125 19.2162 12.0883 18.9196 5.9275Z" fill="#6669F8"/>
</g>
<defs>
<clipPath id="clip0_184_528">
<rect width="20" height="20" fill="white" transform="translate(0.974609)"/>
</clipPath>
</defs>
</svg>
