<svg width="24" height="25" viewBox="0 0 24 25" fill="none" xmlns="http://www.w3.org/2000/svg">
<g clip-path="url(#clip0_518_1559)">
<path fill-rule="evenodd" clip-rule="evenodd" d="M20.5031 3.49959C18.2473 1.25337 15.2471 0.015727 12.0504 0.0145874C5.4634 0.0145874 0.102564 5.34524 0.100272 11.8976C0.099126 13.9922 0.649764 16.0367 1.69546 17.8385L0 23.9971L6.33491 22.3446C8.0802 23.2917 10.0455 23.7902 12.0453 23.7908H12.0504C18.6363 23.7908 23.9977 18.4596 24 11.9073C24.0011 8.73169 22.7595 5.74639 20.5031 3.50016V3.49959ZM12.0504 21.7839H12.0464C10.2644 21.7834 8.51627 21.307 6.991 20.4072L6.62828 20.193L2.86893 21.1736L3.87223 17.5285L3.63615 17.1547C2.64203 15.582 2.1166 13.7643 2.11775 11.8982C2.12004 6.45239 6.57556 2.02148 12.0545 2.02148C14.7073 2.02262 17.201 3.05115 19.0763 4.91844C20.9517 6.78517 21.9837 9.26732 21.9825 11.9061C21.9802 17.3525 17.5247 21.7834 12.0504 21.7834V21.7839ZM17.4983 14.3865C17.1998 14.2378 15.7319 13.5198 15.4579 13.4207C15.1841 13.3215 14.9853 13.272 14.7864 13.5694C14.5876 13.8669 14.0152 14.5358 13.841 14.7335C13.6668 14.9318 13.4926 14.9564 13.1941 14.8076C12.8956 14.6589 11.9335 14.3455 10.7927 13.3341C9.9052 12.5466 9.3058 11.5745 9.13167 11.277C8.95747 10.9796 9.11333 10.8189 9.26227 10.6713C9.39633 10.538 9.5608 10.3243 9.71033 10.1511C9.85993 9.97784 9.9092 9.85366 10.0089 9.65589C10.1086 9.45759 10.0587 9.28442 9.98427 9.13565C9.90973 8.98694 9.31273 7.52533 9.06347 6.93103C8.82107 6.35211 8.57473 6.43074 8.39193 6.42106C8.21773 6.4125 8.01893 6.4108 7.81953 6.4108C7.62013 6.4108 7.29693 6.48487 7.02307 6.78232C6.7492 7.07974 5.97794 7.79828 5.97794 9.25929C5.97794 10.7203 7.04773 12.1329 7.19727 12.3312C7.3468 12.5295 9.30293 15.5285 12.2979 16.8151C13.0102 17.1211 13.5665 17.304 14.0003 17.4408C14.7154 17.667 15.3663 17.6351 15.8808 17.5587C16.4544 17.4733 17.6473 16.8402 17.896 16.1467C18.1447 15.4532 18.1447 14.8583 18.0702 14.7347C17.9957 14.611 17.7963 14.5364 17.4978 14.3877L17.4983 14.3865Z" fill="white"/>
</g>
<defs>
<clipPath id="clip0_518_1559">
<rect width="24" height="24" fill="white" transform="translate(0 0.0145874)"/>
</clipPath>
</defs>
</svg>
