<svg width="13" height="12" viewBox="0 0 13 12" fill="none" xmlns="http://www.w3.org/2000/svg">
<path d="M12.952 4.52222C12.8939 4.34721 12.7819 4.19309 12.6307 4.08008C12.4796 3.96706 12.2963 3.90042 12.1049 3.88889L8.65839 3.66111L7.38192 0.577778C7.31222 0.408002 7.1909 0.262169 7.03367 0.159158C6.87643 0.0561468 6.69052 0.000701602 6.5 0C6.30948 0.000701602 6.12357 0.0561468 5.96633 0.159158C5.8091 0.262169 5.68778 0.408002 5.61808 0.577778L4.3184 3.67778L0.895136 3.88889C0.703959 3.90116 0.521027 3.96809 0.370005 4.081C0.218982 4.19391 0.106819 4.34761 0.0480244 4.52222C-0.0123522 4.69951 -0.0158798 4.89006 0.0378965 5.06928C0.0916728 5.24851 0.200287 5.40821 0.349736 5.52778L2.98391 7.66111L2.20062 10.6111C2.14642 10.8107 2.15618 11.0212 2.22861 11.2154C2.30104 11.4096 2.4328 11.5785 2.60677 11.7C2.77563 11.816 2.97681 11.8812 3.18457 11.8871C3.39232 11.8931 3.59721 11.8395 3.773 11.7333L6.4942 10.0833H6.5058L9.43588 11.8556C9.58618 11.9491 9.76142 11.9992 9.94067 12C10.087 11.9989 10.2312 11.9657 10.362 11.9029C10.4929 11.8401 10.607 11.7494 10.6955 11.6378C10.784 11.5262 10.8447 11.3967 10.8727 11.2592C10.9008 11.1216 10.8956 10.9797 10.8574 10.8444L10.0277 7.61667L12.6503 5.52778C12.7997 5.40821 12.9083 5.24851 12.9621 5.06928C13.0159 4.89006 13.0124 4.69951 12.952 4.52222Z" fill="white"/>
</svg>
