<svg width="32" height="32" viewBox="0 0 32 32" fill="none" xmlns="http://www.w3.org/2000/svg">
    <path d="M32 16C32 7.16344 24.8366 0 16 0C7.16344 0 0 7.16344 0 16C0 24.8366 7.16344 32 16 32C24.8366 32 32 24.8366 32 16Z" fill="#8d78fd"/>
    <path d="M17.547 16.152C17.547 16.3838 17.4783 16.6104 17.3495 16.8031C17.2207 16.9959 17.0377 17.1461 16.8235 17.2348C16.6094 17.3235 16.3737 17.3467 16.1464 17.3015C15.919 17.2563 15.7102 17.1446 15.5463 16.9807C15.3824 16.8168 15.2707 16.608 15.2255 16.3807C15.1803 16.1533 15.2035 15.9177 15.2922 15.7035C15.3809 15.4894 15.5311 15.3063 15.7239 15.1775C15.9166 15.0487 16.1432 14.98 16.375 14.98C16.6858 14.98 16.9839 15.1035 17.2037 15.3233C17.4235 15.5431 17.547 15.8412 17.547 16.152Z" fill="#FFFFFF" stroke="#FFFFFF" stroke-linecap="round" stroke-linejoin="round"/>
    <path d="M25.749 16.152C25.749 16.3838 25.6803 16.6104 25.5515 16.8031C25.4227 16.9959 25.2397 17.1461 25.0255 17.2348C24.8114 17.3235 24.5757 17.3467 24.3484 17.3015C24.121 17.2563 23.9122 17.1446 23.7483 16.9807C23.5844 16.8168 23.4728 16.608 23.4275 16.3807C23.3823 16.1533 23.4055 15.9177 23.4942 15.7035C23.5829 15.4894 23.7332 15.3063 23.9259 15.1775C24.1186 15.0487 24.3452 14.98 24.577 14.98C24.8879 14.98 25.186 15.1035 25.4058 15.3233C25.6256 15.5431 25.749 15.8412 25.749 16.152Z" fill="#FFFFFF" stroke="#FFFFFF" stroke-linecap="round" stroke-linejoin="round"/>
    <path d="M9.344 16.152C9.344 16.3838 9.27526 16.6104 9.14648 16.8031C9.0177 16.9959 8.83466 17.1461 8.62051 17.2348C8.40635 17.3235 8.1707 17.3467 7.94335 17.3015C7.71601 17.2563 7.50718 17.1446 7.34327 16.9807C7.17936 16.8168 7.06774 16.608 7.02252 16.3807C6.9773 16.1533 7.00051 15.9177 7.08921 15.7035C7.17792 15.4894 7.32814 15.3063 7.52087 15.1775C7.71361 15.0487 7.9402 14.98 8.172 14.98C8.48283 14.98 8.78094 15.1035 9.00073 15.3233C9.22052 15.5431 9.344 15.8412 9.344 16.152Z" fill="#FFFFFF" stroke="#FFFFFF" stroke-linecap="round" stroke-linejoin="round"/>
</svg>
