<svg width="90" height="32" viewBox="0 0 90 32" fill="none" xmlns="http://www.w3.org/2000/svg">
<g filter="url(#filter0_b_238_380)">
<path d="M2.23364 25L2.23364 11.9909H4.49182V15.5255L4.27091 14.6418C4.63091 13.7418 5.23636 13.0545 6.08727 12.58C6.93818 12.1055 7.98545 11.8682 9.22909 11.8682V14.1509C9.13091 14.1345 9.03273 14.1264 8.93455 14.1264C8.85273 14.1264 8.77091 14.1264 8.68909 14.1264C7.42909 14.1264 6.43091 14.5027 5.69455 15.2555C4.95818 16.0082 4.59 17.0964 4.59 18.52L4.59 25H2.23364ZM16.358 25.1473C15.0489 25.1473 13.8871 24.8609 12.8726 24.2882C11.858 23.7155 11.0562 22.93 10.4671 21.9318C9.87801 20.9173 9.58347 19.7718 9.58347 18.4955C9.58347 17.2027 9.87801 16.0573 10.4671 15.0591C11.0562 14.0609 11.858 13.2836 12.8726 12.7273C13.8871 12.1545 15.0489 11.8682 16.358 11.8682C17.6507 11.8682 18.8044 12.1545 19.8189 12.7273C20.8498 13.2836 21.6516 14.0609 22.2244 15.0591C22.8135 16.0409 23.108 17.1864 23.108 18.4955C23.108 19.7882 22.8135 20.9336 22.2244 21.9318C21.6516 22.93 20.8498 23.7155 19.8189 24.2882C18.8044 24.8609 17.6507 25.1473 16.358 25.1473ZM16.358 23.0855C17.1926 23.0855 17.9371 22.8973 18.5916 22.5209C19.2626 22.1445 19.7862 21.6127 20.1626 20.9255C20.5389 20.2218 20.7271 19.4118 20.7271 18.4955C20.7271 17.5627 20.5389 16.7609 20.1626 16.09C19.7862 15.4027 19.2626 14.8709 18.5916 14.4945C17.9371 14.1182 17.1926 13.93 16.358 13.93C15.5235 13.93 14.7789 14.1182 14.1244 14.4945C13.4698 14.8709 12.9462 15.4027 12.5535 16.09C12.1607 16.7609 11.9644 17.5627 11.9644 18.4955C11.9644 19.4118 12.1607 20.2218 12.5535 20.9255C12.9462 21.6127 13.4698 22.1445 14.1244 22.5209C14.7789 22.8973 15.5235 23.0855 16.358 23.0855ZM30.7113 25.1473C29.4023 25.1473 28.2404 24.8609 27.2259 24.2882C26.2113 23.7155 25.4095 22.93 24.8204 21.9318C24.2313 20.9173 23.9368 19.7718 23.9368 18.4955C23.9368 17.2027 24.2313 16.0573 24.8204 15.0591C25.4095 14.0609 26.2113 13.2836 27.2259 12.7273C28.2404 12.1545 29.4023 11.8682 30.7113 11.8682C32.0041 11.8682 33.1577 12.1545 34.1723 12.7273C35.2032 13.2836 36.005 14.0609 36.5777 15.0591C37.1668 16.0409 37.4613 17.1864 37.4613 18.4955C37.4613 19.7882 37.1668 20.9336 36.5777 21.9318C36.005 22.93 35.2032 23.7155 34.1723 24.2882C33.1577 24.8609 32.0041 25.1473 30.7113 25.1473ZM30.7113 23.0855C31.5459 23.0855 32.2904 22.8973 32.945 22.5209C33.6159 22.1445 34.1395 21.6127 34.5159 20.9255C34.8923 20.2218 35.0804 19.4118 35.0804 18.4955C35.0804 17.5627 34.8923 16.7609 34.5159 16.09C34.1395 15.4027 33.6159 14.8709 32.945 14.4945C32.2904 14.1182 31.5459 13.93 30.7113 13.93C29.8768 13.93 29.1323 14.1182 28.4777 14.4945C27.8232 14.8709 27.2995 15.4027 26.9068 16.09C26.5141 16.7609 26.3177 17.5627 26.3177 18.4955C26.3177 19.4118 26.5141 20.2218 26.9068 20.9255C27.2995 21.6127 27.8232 22.1445 28.4777 22.5209C29.1323 22.8973 29.8768 23.0855 30.7113 23.0855ZM42.5451 25L36.8506 11.9909H39.3051L44.3615 23.7727H43.1833L48.3379 11.9909H50.6451L44.9506 25H42.5451ZM56.8292 25.1473C55.5202 25.1473 54.3583 24.8609 53.3438 24.2882C52.3292 23.7155 51.5274 22.93 50.9383 21.9318C50.3492 20.9173 50.0547 19.7718 50.0547 18.4955C50.0547 17.2027 50.3492 16.0573 50.9383 15.0591C51.5274 14.0609 52.3292 13.2836 53.3438 12.7273C54.3583 12.1545 55.5202 11.8682 56.8292 11.8682C58.122 11.8682 59.2756 12.1545 60.2902 12.7273C61.3211 13.2836 62.1229 14.0609 62.6956 15.0591C63.2847 16.0409 63.5792 17.1864 63.5792 18.4955C63.5792 19.7882 63.2847 20.9336 62.6956 21.9318C62.1229 22.93 61.3211 23.7155 60.2902 24.2882C59.2756 24.8609 58.122 25.1473 56.8292 25.1473ZM56.8292 23.0855C57.6638 23.0855 58.4083 22.8973 59.0629 22.5209C59.7338 22.1445 60.2574 21.6127 60.6338 20.9255C61.0102 20.2218 61.1983 19.4118 61.1983 18.4955C61.1983 17.5627 61.0102 16.7609 60.6338 16.09C60.2574 15.4027 59.7338 14.8709 59.0629 14.4945C58.4083 14.1182 57.6638 13.93 56.8292 13.93C55.9947 13.93 55.2502 14.1182 54.5956 14.4945C53.9411 14.8709 53.4174 15.4027 53.0247 16.09C52.632 16.7609 52.4356 17.5627 52.4356 18.4955C52.4356 19.4118 52.632 20.2218 53.0247 20.9255C53.4174 21.6127 53.9411 22.1445 54.5956 22.5209C55.2502 22.8973 55.9947 23.0855 56.8292 23.0855ZM65.8877 25.1473C65.4295 25.1473 65.0368 24.9918 64.7095 24.6809C64.3822 24.3536 64.2186 23.9445 64.2186 23.4536C64.2186 22.9627 64.3822 22.5618 64.7095 22.2509C65.0368 21.94 65.4295 21.7845 65.8877 21.7845C66.3295 21.7845 66.7059 21.94 67.0168 22.2509C67.344 22.5618 67.5077 22.9627 67.5077 23.4536C67.5077 23.9445 67.344 24.3536 67.0168 24.6809C66.7059 24.9918 66.3295 25.1473 65.8877 25.1473ZM69.6569 25V11.9909H72.0133V25L69.6569 25ZM70.8351 9.48727C70.3769 9.48727 69.9924 9.34 69.6815 9.04545C69.3869 8.75091 69.2397 8.39091 69.2397 7.96545C69.2397 7.52364 69.3869 7.15545 69.6815 6.86091C69.9924 6.56636 70.3769 6.41909 70.8351 6.41909C71.2933 6.41909 71.6697 6.56636 71.9642 6.86091C72.2751 7.13909 72.4306 7.49091 72.4306 7.91636C72.4306 8.35818 72.2833 8.73455 71.9887 9.04545C71.6942 9.34 71.3097 9.48727 70.8351 9.48727ZM82.2315 11.8682C83.2951 11.8682 84.2279 12.0727 85.0297 12.4818C85.8479 12.8909 86.486 13.5127 86.9442 14.3473C87.4024 15.1818 87.6315 16.2373 87.6315 17.5136V25H85.2751V17.7836C85.2751 16.5236 84.9642 15.5745 84.3424 14.9364C83.7369 14.2982 82.8779 13.9791 81.7651 13.9791C80.9306 13.9791 80.2024 14.1427 79.5806 14.47C78.9588 14.7973 78.476 15.28 78.1324 15.9182C77.8051 16.5564 77.6415 17.35 77.6415 18.2991V25H75.2851V11.9909H77.5433V15.5009L77.1751 14.5682C77.6006 13.7173 78.2551 13.0545 79.1388 12.58C80.0224 12.1055 81.0533 11.8682 82.2315 11.8682Z" fill="#282828"/>
</g>
<defs>
<filter id="filter0_b_238_380" x="-0.49363" y="3.69183" width="90.8525" height="24.1827" filterUnits="userSpaceOnUse" color-interpolation-filters="sRGB">
<feFlood flood-opacity="0" result="BackgroundImageFix"/>
<feGaussianBlur in="BackgroundImageFix" stdDeviation="1.36364"/>
<feComposite in2="SourceAlpha" operator="in" result="effect1_backgroundBlur_238_380"/>
<feBlend mode="normal" in="SourceGraphic" in2="effect1_backgroundBlur_238_380" result="shape"/>
</filter>
</defs>
</svg>
